# 3ds Max Wavefront OBJ Exporter v0.97b - (c)2007 guruware
# File Created: 20.02.2020 12:14:05

mtllib LowPolyAvatar2020.mtl

#
# object Sphere001
#

v  -0.3244 -0.0038 -0.0013
v  -0.2660 0.2454 -0.0013
v  -0.2660 0.1978 -0.1020
v  -0.2660 0.1122 -0.2040
v  -0.2660 -0.0419 -0.2040
v  -0.2208 -0.3219 -0.1960
v  -0.2660 -0.3246 -0.0013
v  -0.2660 -0.2054 0.1452
v  -0.2660 -0.0808 0.2358
v  -0.2660 0.0732 0.2358
v  -0.2660 0.1978 0.1452
v  -0.1310 0.3475 -0.0013
v  -0.1310 0.2502 -0.1866
v  -0.1310 0.0998 -0.2873
v  -0.1310 -0.0895 -0.3468
v  -0.0915 -0.3557 -0.2953
v  -0.1310 -0.4071 -0.0013
v  -0.1310 -0.2230 0.1554
v  -0.1310 -0.1284 0.3823
v  -0.1310 0.1208 0.3823
v  -0.1310 0.2994 0.2358
v  0.1311 0.3475 -0.0013
v  0.1311 0.2502 -0.1866
v  0.1311 0.0998 -0.2873
v  0.1311 -0.0895 -0.3468
v  0.0916 -0.3557 -0.2953
v  0.1311 -0.4071 -0.0013
v  0.1311 -0.2230 0.1554
v  0.1311 -0.1284 0.3823
v  0.1311 0.1208 0.3823
v  0.1311 0.2994 0.2358
v  0.2662 0.2454 -0.0013
v  0.2662 0.1978 -0.1020
v  0.2662 0.1122 -0.2040
v  0.2662 -0.0419 -0.2040
v  0.2210 -0.3219 -0.1960
v  0.2662 -0.3246 -0.0013
v  0.2662 -0.2054 0.1452
v  0.2662 -0.0808 0.2358
v  0.2662 0.0732 0.2358
v  0.2662 0.1978 0.1452
v  0.3245 -0.0038 -0.0013
v  -0.2128 -0.4020 0.2060
v  -0.1887 -0.0737 0.2858
v  -0.1989 -0.3280 0.0725
v  -0.1989 -0.4696 0.1139
v  -0.1989 -0.5841 0.0734
v  -0.1989 -0.5710 0.1500
v  -0.1989 -0.4333 0.3544
v  -0.1989 -0.3973 0.3409
v  -0.1989 -0.3110 0.3034
v  0.0001 0.0087 0.2858
v  0.0001 -0.2966 -0.0290
v  0.0001 -0.4696 0.0314
v  0.0001 -0.6423 0.0151
v  0.0001 -0.6308 0.1500
v  0.0001 -0.4916 0.4127
v  0.0001 -0.3973 0.4233
v  0.0001 -0.3104 0.3617
v  0.1888 -0.0737 0.2858
v  0.1991 -0.3280 0.0725
v  0.1991 -0.4696 0.1139
v  0.1991 -0.5841 0.0734
v  0.1991 -0.5710 0.1500
v  0.1991 -0.4333 0.3544
v  0.1991 -0.3973 0.3409
v  0.1991 -0.3110 0.3034
v  0.2130 -0.4020 0.2060
v  0.0003 -0.5929 0.2511
v  0.1051 -0.7180 -0.0327
v  0.2746 -0.6702 0.0757
v  0.3394 -0.5929 0.2511
v  -0.2740 -0.6702 0.0757
v  -0.1044 -0.7180 -0.0327
v  -0.2740 -0.5155 0.4266
v  -0.3387 -0.5929 0.2511
v  0.1051 -0.4677 0.5350
v  -0.1044 -0.4677 0.5350
v  0.2746 -0.5155 0.4266
v  0.2246 -0.6017 0.0708
v  0.2775 -0.5244 0.2142
v  0.0860 -0.6495 -0.0178
v  -0.0853 -0.6495 -0.0178
v  -0.2239 -0.6017 0.0708
v  -0.2768 -0.5244 0.2142
v  -0.2239 -0.4470 0.3576
v  -0.0853 -0.3993 0.4462
v  0.0860 -0.3993 0.4462
v  0.2246 -0.4470 0.3576
v  0.0003 -0.5244 0.2142
# 90 vertices

vn -0.9997 0.0033 -0.0225
vn -0.7980 0.6005 -0.0509
vn -0.7869 0.5076 -0.3510
vn -0.7353 0.3741 -0.5651
vn -0.8700 -0.0879 -0.4851
vn -0.7313 -0.5173 -0.4444
vn -0.7747 -0.6033 0.1892
vn -0.7132 -0.5534 0.4303
vn -0.8695 -0.1526 0.4697
vn -0.8666 0.1622 0.4720
vn -0.8427 0.4513 0.2936
vn -0.3079 0.9439 -0.1196
vn -0.2939 0.7063 -0.6440
vn -0.2511 0.4270 -0.8687
vn -0.3804 -0.0107 -0.9248
vn -0.2806 -0.6635 -0.6936
vn -0.2409 -0.9201 0.3087
vn -0.1013 -0.8195 0.5640
vn -0.3320 -0.4826 0.8104
vn -0.3826 0.3100 0.8704
vn -0.3598 0.7931 0.4915
vn 0.2948 0.9472 -0.1262
vn 0.2600 0.7285 -0.6338
vn 0.2788 0.3761 -0.8836
vn 0.3773 0.0274 -0.9257
vn 0.2693 -0.6775 -0.6844
vn 0.2390 -0.9298 0.2799
vn 0.1432 -0.7545 0.6405
vn 0.3617 -0.5028 0.7851
vn 0.3792 0.3073 0.8728
vn 0.3486 0.7949 0.4966
vn 0.8086 0.5850 -0.0621
vn 0.8035 0.5036 -0.3176
vn 0.7629 0.2681 -0.5883
vn 0.8553 -0.0399 -0.5167
vn 0.7105 -0.5897 -0.3840
vn 0.7872 -0.6045 0.1221
vn 0.6701 -0.4828 0.5638
vn 0.8297 -0.2721 0.4874
vn 0.8695 0.1526 0.4697
vn 0.8534 0.4306 0.2936
vn 0.9997 0.0033 -0.0225
vn -1.0000 -0.0064 0.0001
vn -0.6706 0.6629 0.3329
vn -0.7667 0.1263 -0.6295
vn -0.8128 0.0129 -0.5824
vn -0.6940 -0.4388 -0.5708
vn -0.7412 -0.6294 0.2333
vn -0.7319 -0.2020 0.6508
vn -0.7744 0.2553 0.5789
vn -0.7840 0.1893 0.5912
vn -0.0073 0.9711 0.2387
vn 0.0065 0.2311 -0.9729
vn -0.0292 -0.1004 -0.9945
vn -0.0196 -0.6966 -0.7172
vn 0.0176 -0.9569 0.2899
vn 0.0289 -0.5583 0.8291
vn 0.0056 0.2305 0.9730
vn -0.0376 0.3930 0.9188
vn 0.6887 0.6829 0.2435
vn 0.7640 0.1579 -0.6255
vn 0.8302 0.0301 -0.5566
vn 0.7142 -0.4796 -0.5098
vn 0.7253 -0.6407 0.2518
vn 0.6854 -0.1875 0.7036
vn 0.7697 0.2084 0.6034
vn 0.8075 0.1714 0.5645
vn 1.0000 -0.0064 0.0001
vn 0.0000 -0.9150 0.4034
vn -0.0000 -0.9150 0.4034
vn 0.7749 0.5778 -0.2564
vn 0.6193 0.4100 -0.6696
vn 0.6054 0.3781 -0.7003
vn 0.7922 0.5474 -0.2697
vn 0.2446 0.2706 -0.9311
vn 0.2246 0.2618 -0.9386
vn -0.2409 0.2646 -0.9338
vn -0.2172 0.2648 -0.9395
vn -0.6241 0.3910 -0.6765
vn -0.5917 0.3870 -0.7072
vn -0.7925 0.5554 -0.2522
vn -0.7759 0.5626 -0.2854
vn -0.6747 0.7026 0.2261
vn -0.6652 0.7175 0.2067
vn -0.2627 0.7904 0.5534
vn -0.2564 0.7975 0.5461
vn 0.2709 0.7960 0.5413
vn 0.2715 0.7894 0.5506
vn 0.6648 0.7181 0.2059
vn 0.6783 0.7005 0.2218
vn -0.0000 0.8802 -0.4747
vn 0.0000 0.8802 -0.4747
# 92 vertex normals

vt 0.7558 0.1624 0.0000
vt 0.8665 0.1616 0.0000
vt 0.8468 0.2056 0.0000
vt 0.8110 0.2506 0.0000
vt 0.6336 0.1075 0.0000
vt 0.6260 0.2113 0.0000
vt 0.5701 0.1751 0.0000
vt 0.4673 0.1109 0.0000
vt 0.4607 0.2404 0.0000
vt 0.2934 0.2462 0.0000
vt 0.3375 0.1718 0.0000
vt 0.0023 0.7216 0.0000
vt 0.1341 0.7720 0.0000
vt 0.0639 0.8137 0.0000
vt 0.0000 0.8323 0.0000
vt 0.2237 0.8323 0.0000
vt 0.1861 0.9364 0.0000
vt 0.1332 0.8960 0.0000
vt 0.1134 0.8331 0.0000
vt 0.6955 0.7499 0.0000
vt 0.5899 0.7832 0.0000
vt 0.5899 0.7166 0.0000
vt 0.5569 0.7554 0.0000
vt 0.5774 0.8257 0.0000
vt 0.4868 0.8257 0.0000
vt 0.5087 0.7565 0.0000
vt 0.0000 0.9932 0.0000
vt 0.0495 0.9401 0.0000
vt 0.1079 0.9922 0.0000
vt 0.0476 1.0230 0.0000
vt 0.8007 0.7832 0.0000
vt 0.7509 0.8308 0.0000
vt 0.6789 0.7841 0.0000
vt 0.7527 0.7404 0.0000
vt 0.5021 0.5572 0.0000
vt 0.5637 0.4950 0.0000
vt 0.6623 0.5607 0.0000
vt 0.6119 0.6109 0.0000
vt 0.9139 0.2172 0.0000
vt 0.8665 0.1629 0.0000
vt 0.9968 0.1616 0.0000
vt 0.9991 0.2295 0.0000
vt 0.3612 0.0845 0.0000
vt 0.2984 0.1117 0.0000
vt 0.2984 0.0071 0.0000
vt 0.3557 0.0042 0.0000
vt 0.6385 0.1075 0.0000
vt 0.5794 0.1063 0.0000
vt 0.5794 0.0000 0.0000
vt 0.6436 0.0506 0.0000
vt 0.4607 0.6869 0.0000
vt 0.4813 0.7731 0.0000
vt 0.3734 0.7731 0.0000
vt 0.3940 0.6869 0.0000
vt 0.4491 0.7731 0.0000
vt 0.4734 0.8583 0.0000
vt 0.3734 0.8583 0.0000
vt 0.3826 0.7759 0.0000
vt 0.6649 0.6391 0.0000
vt 0.6945 0.7166 0.0000
vt 0.5986 0.6441 0.0000
vt 0.9742 0.3590 0.0000
vt 0.8609 0.3590 0.0000
vt 0.8609 0.2684 0.0000
vt 0.9742 0.2684 0.0000
vt 0.9843 0.4791 0.0000
vt 0.8709 0.4791 0.0000
vt 0.8709 0.4008 0.0000
vt 0.9843 0.4008 0.0000
vt 0.8709 0.4866 0.0000
vt 0.7575 0.4866 0.0000
vt 0.7575 0.4008 0.0000
vt 0.7558 0.0796 0.0000
vt 0.7558 0.1929 0.0000
vt 0.6385 0.1758 0.0000
vt 0.6385 0.0967 0.0000
vt 0.7330 0.2855 0.0000
vt 0.7330 0.3647 0.0000
vt 0.6057 0.3818 0.0000
vt 0.6057 0.2684 0.0000
vt 0.4673 0.0000 0.0000
vt 0.4673 0.1134 0.0000
vt 0.3627 0.1134 0.0000
vt 0.3627 0.0000 0.0000
vt 0.4673 0.1063 0.0000
vt 0.1134 0.9401 0.0000
vt 0.0000 0.9401 0.0000
vt 0.1134 0.8323 0.0000
vt 0.4868 0.6869 0.0000
vt 0.3734 0.6869 0.0000
vt 0.3734 0.5870 0.0000
vt 0.4868 0.5870 0.0000
vt 0.3532 0.7103 0.0000
vt 0.2398 0.7103 0.0000
vt 0.2398 0.6057 0.0000
vt 0.3532 0.6057 0.0000
vt 0.8906 0.6391 0.0000
vt 0.8717 0.7099 0.0000
vt 0.8235 0.7099 0.0000
vt 0.8001 0.6413 0.0000
vt 0.9931 0.4950 0.0000
vt 0.9947 0.5661 0.0000
vt 0.9393 0.5594 0.0000
vt 0.9148 0.4950 0.0000
vt 0.5727 0.6767 0.0000
vt 0.5885 0.7420 0.0000
vt 0.5250 0.7554 0.0000
vt 0.4868 0.6767 0.0000
vt 0.6395 0.4866 0.0000
vt 0.6223 0.4008 0.0000
vt 0.7441 0.4162 0.0000
vt 0.7575 0.4861 0.0000
vt 0.8107 0.5484 0.0000
vt 0.7457 0.5788 0.0000
vt 0.6623 0.5568 0.0000
vt 0.6918 0.4950 0.0000
vt 0.4401 0.1739 0.0000
vt 0.3598 0.1718 0.0000
vt 0.7448 0.1929 0.0000
vt 0.7460 0.2450 0.0000
vt 0.6891 0.2657 0.0000
vt 0.6385 0.1929 0.0000
vt 0.3476 0.8138 0.0000
vt 0.3270 0.9000 0.0000
vt 0.2604 0.9000 0.0000
vt 0.2398 0.8138 0.0000
vt 0.3397 0.9000 0.0000
vt 0.3157 0.9854 0.0000
vt 0.2491 0.9828 0.0000
vt 0.2398 0.9004 0.0000
vt 0.8881 0.5735 0.0000
vt 0.8215 0.5709 0.0000
vt 0.8107 0.4990 0.0000
vt 0.1341 0.7231 0.0000
vt 0.2198 0.7761 0.0000
vt 0.1935 0.8165 0.0000
vt 0.2382 0.7216 0.0000
vt 0.6057 0.3725 0.0000
vt 0.5450 0.3024 0.0000
vt 0.6023 0.2684 0.0000
vt 0.4398 0.3625 0.0000
vt 0.9996 0.0000 0.0000
vt 0.8790 0.0732 0.0000
vt 0.8322 0.0005 0.0000
vt 0.3049 0.5161 0.0000
vt 0.3734 0.5605 0.0000
vt 0.2418 0.4950 0.0000
vt 0.3305 0.7502 0.0000
vt 0.3505 0.8138 0.0000
vt 0.2779 0.7103 0.0000
vt 0.6945 0.6724 0.0000
vt 0.8001 0.6391 0.0000
vt 0.8001 0.7057 0.0000
vt 0.1351 0.5652 0.0000
vt 0.0000 0.6210 0.0000
vt 0.0947 0.5130 0.0000
vt 0.1579 0.5213 0.0000
vt 0.4398 0.3017 0.0000
vt 0.4867 0.2851 0.0000
vt 0.5373 0.2990 0.0000
vt 0.2042 0.4965 0.0000
vt 0.2037 0.5301 0.0000
vt 0.1583 0.6266 0.0000
vt 0.1420 0.6232 0.0000
vt 0.1026 0.6128 0.0000
vt 0.4047 0.4094 0.0000
vt 0.4296 0.4950 0.0000
vt 0.2398 0.4950 0.0000
vt 0.2619 0.4008 0.0000
vt 0.9038 0.0959 0.0000
vt 1.0000 0.0796 0.0000
vt 0.9908 0.1583 0.0000
vt 0.8977 0.1593 0.0000
vt 0.2351 0.9377 0.0000
vt 0.1611 0.9944 0.0000
vt 0.1134 0.9364 0.0000
vt 0.1990 0.9015 0.0000
vt 0.3755 0.9606 0.0000
vt 0.4656 0.9368 0.0000
vt 0.4633 0.9953 0.0000
vt 0.3734 0.9940 0.0000
vt 0.4900 0.4979 0.0000
vt 0.5021 0.5870 0.0000
vt 0.3839 0.4950 0.0000
vt 0.9821 0.8020 0.0000
vt 0.8916 0.8243 0.0000
vt 0.8916 0.7832 0.0000
vt 0.9844 0.7872 0.0000
vt 0.8916 0.8087 0.0000
vt 0.8007 0.8293 0.0000
vt 0.8889 0.7688 0.0000
vt 0.7998 0.0027 0.0000
vt 0.7535 0.0796 0.0000
vt 0.6385 0.0000 0.0000
vt 0.7125 -0.0471 0.0000
vt 0.1898 0.6266 0.0000
vt 0.1649 0.7114 0.0000
vt 0.0221 0.7216 0.0000
vt 0.0000 0.6266 0.0000
vt 0.4772 0.9368 0.0000
vt 0.3807 0.9223 0.0000
vt 0.3734 0.8589 0.0000
vt 0.4666 0.8583 0.0000
vt 0.6789 0.8583 0.0000
vt 0.5866 0.8616 0.0000
vt 0.5899 0.8107 0.0000
vt 0.6789 0.7832 0.0000
vt 0.9814 0.6984 0.0000
vt 0.8919 0.6727 0.0000
vt 0.9804 0.6401 0.0000
vt 0.8609 0.2717 0.0000
vt 0.8464 0.3604 0.0000
vt 0.7398 0.3604 0.0000
vt 0.7330 0.2684 0.0000
vt 0.8407 0.9207 0.0000
vt 0.7504 0.8984 0.0000
vt 0.7476 0.8836 0.0000
vt 0.8407 0.8796 0.0000
vt 0.9681 0.3967 0.0000
vt 0.8822 0.4318 0.0000
vt 0.8609 0.3981 0.0000
vt 0.9416 0.3590 0.0000
vt 0.8977 0.0796 0.0000
vt 0.8922 0.1677 0.0000
vt 0.7905 0.1616 0.0000
vt 0.3726 0.3294 0.0000
vt 0.3302 0.3800 0.0000
vt 0.2398 0.2684 0.0000
vt 0.3937 0.3742 0.0000
vt 0.3718 0.3998 0.0000
vt 0.2742 0.4008 0.0000
vt 0.3242 0.3850 0.0000
vt 0.4398 0.3672 0.0000
vt 0.4390 0.4008 0.0000
vt 0.3982 0.2690 0.0000
vt 0.3818 0.2718 0.0000
vt 0.3420 0.2806 0.0000
vt 0.1467 0.1342 0.0000
vt 0.1014 0.2684 0.0000
vt 0.0280 0.2171 0.0000
vt 0.0000 0.1342 0.0000
vt 0.2654 0.2171 0.0000
vt 0.1920 0.2684 0.0000
vt 0.2654 0.0513 0.0000
vt 0.2934 0.1342 0.0000
vt 0.1014 0.0000 0.0000
vt 0.1920 0.0000 0.0000
vt 0.0280 0.0513 0.0000
vt 0.8350 0.9625 0.0000
vt 0.7476 0.9602 0.0000
vt 0.7509 0.9238 0.0000
vt 0.8250 0.9207 0.0000
vt 0.9244 0.9974 0.0000
vt 0.8350 0.9944 0.0000
vt 0.8395 0.9633 0.0000
vt 0.9136 0.9623 0.0000
vt 0.4781 0.1810 0.0000
vt 0.5687 0.1810 0.0000
vt 0.5604 0.2113 0.0000
vt 0.4863 0.2113 0.0000
vt 0.9300 0.9106 0.0000
vt 0.8407 0.9154 0.0000
vt 0.8508 0.8800 0.0000
vt 0.9249 0.8796 0.0000
vt 0.9225 0.9607 0.0000
vt 0.8350 0.9623 0.0000
vt 0.8452 0.9207 0.0000
vt 0.9193 0.9241 0.0000
vt 0.5742 0.9722 0.0000
vt 0.4868 0.9738 0.0000
vt 0.4933 0.9272 0.0000
vt 0.5674 0.9297 0.0000
vt 0.7476 0.8331 0.0000
vt 0.8369 0.8308 0.0000
vt 0.8319 0.8796 0.0000
vt 0.7578 0.8793 0.0000
vt 0.9079 0.7651 0.0000
vt 0.8172 0.7651 0.0000
vt 0.8255 0.7166 0.0000
vt 0.8996 0.7166 0.0000
vt 0.5762 0.9272 0.0000
vt 0.4868 0.9248 0.0000
vt 0.4969 0.8787 0.0000
vt 0.5710 0.8782 0.0000
vt 0.9079 0.7169 0.0000
vt 0.9953 0.7166 0.0000
vt 0.9896 0.7590 0.0000
vt 0.9157 0.7635 0.0000
vt 0.1199 0.3824 0.0000
vt 0.0229 0.4529 0.0000
vt 0.0000 0.3824 0.0000
vt 0.0229 0.3119 0.0000
vt 0.0829 0.2684 0.0000
vt 0.1570 0.2684 0.0000
vt 0.2169 0.3119 0.0000
vt 0.2398 0.3824 0.0000
vt 0.2169 0.4529 0.0000
vt 0.1570 0.4965 0.0000
vt 0.0829 0.4965 0.0000
# 299 texture coords

g Sphere001
usemtl 06___Default
s 1
f 1/1/1 2/2/2 3/3/3 
f 1/1/1 3/3/3 4/4/4 
f 1/5/1 4/6/4 5/7/5 
f 1/5/1 5/7/5 6/8/6 
f 1/9/1 6/10/6 7/11/7 
f 1/12/1 7/13/7 8/14/8 
f 1/12/1 8/14/8 9/15/9 
f 1/16/1 9/17/9 10/18/10 
f 1/16/1 10/18/10 11/19/11 
f 1/20/1 11/21/11 2/22/2 
f 2/23/2 12/24/12 13/25/13 3/26/3 
f 3/27/3 13/28/13 14/29/14 4/30/4 
f 4/31/4 14/32/14 15/33/15 5/34/5 
f 5/35/5 15/36/15 16/37/16 6/38/6 
f 6/39/6 16/40/16 17/41/17 7/42/7 
f 7/43/7 17/44/17 18/45/18 8/46/8 
f 8/47/8 18/48/18 19/49/19 9/50/9 
f 9/51/9 19/52/19 20/53/20 10/54/10 
f 10/55/10 20/56/20 21/57/21 11/58/11 
f 11/59/11 21/60/21 12/22/12 2/61/2 
f 12/62/12 22/63/22 23/64/23 13/65/13 
f 13/66/13 23/67/23 24/68/24 14/69/14 
f 14/70/14 24/71/24 25/72/25 15/68/15 
f 15/73/15 25/74/25 26/75/26 16/76/16 
f 16/77/16 26/78/26 27/79/27 17/80/17 
f 17/81/17 27/82/27 28/83/28 18/84/18 
f 18/48/18 28/85/28 29/81/29 19/49/19 
f 19/86/19 29/87/29 30/15/30 20/88/20 
f 20/89/20 30/90/30 31/91/31 21/92/21 
f 21/93/21 31/94/31 22/95/22 12/96/12 
f 22/97/22 32/98/32 33/99/33 23/100/23 
f 23/101/23 33/102/33 34/103/34 24/104/24 
f 24/105/24 34/106/34 35/107/35 25/108/25 
f 25/109/25 35/110/35 36/111/36 26/112/26 
f 26/113/26 36/114/36 37/115/37 27/116/27 
f 27/82/27 37/117/37 38/118/38 28/83/28 
f 28/119/28 38/120/38 39/121/39 29/122/29 
f 29/123/29 39/124/39 40/125/40 30/126/30 
f 30/127/30 40/128/40 41/129/41 31/130/31 
f 31/104/31 41/131/41 32/132/32 22/133/22 
f 42/134/42 33/135/33 32/136/32 
f 42/134/42 34/137/34 33/135/33 
f 42/138/42 35/139/35 34/140/34 
f 42/138/42 36/141/36 35/139/35 
f 42/142/42 37/143/37 36/144/36 
f 42/95/42 38/145/38 37/146/37 
f 42/95/42 39/147/39 38/145/38 
f 42/126/42 40/148/40 39/149/39 
f 42/126/42 41/150/41 40/148/40 
f 42/151/42 32/152/32 41/153/41 
f 43/154/43 44/155/44 45/156/45 
f 43/154/43 45/156/45 46/157/46 
f 43/158/43 46/159/46 47/160/47 
f 43/154/43 47/161/47 48/162/48 
f 43/154/43 48/162/48 49/163/49 
f 43/154/43 49/163/49 50/164/50 
f 43/154/43 50/164/50 51/165/51 
f 43/154/43 51/165/51 44/155/44 
f 44/166/44 52/167/52 53/168/53 45/169/45 
f 45/170/45 53/171/53 54/172/54 46/173/46 
f 46/174/46 54/175/54 55/176/55 47/177/47 
f 47/178/47 55/179/55 56/180/56 48/181/48 
f 48/182/48 56/183/56 57/91/57 49/184/49 
f 49/185/49 57/186/57 58/187/58 50/188/50 
f 50/189/50 58/190/58 59/31/59 51/191/51 
f 51/192/51 59/193/59 52/194/52 44/195/44 
f 52/196/52 60/197/60 61/198/61 53/199/53 
f 53/200/53 61/201/61 62/202/62 54/203/54 
f 54/204/54 62/205/62 63/206/63 55/207/55 
f 55/208/55 63/209/63 64/97/64 56/210/56 
f 56/211/56 64/212/64 65/213/65 57/214/57 
f 57/215/57 65/216/65 66/217/66 58/218/58 
f 58/219/58 66/220/66 67/221/67 59/222/59 
f 59/223/59 67/224/67 60/225/60 52/73/52 
f 68/226/68 61/227/61 60/228/60 
f 68/226/68 62/229/62 61/227/61 
f 68/230/68 63/231/63 62/232/62 
f 68/226/68 64/233/64 63/234/63 
f 68/226/68 65/235/65 64/233/64 
f 68/226/68 66/236/66 65/235/65 
f 68/226/68 67/237/67 66/236/66 
f 68/226/68 60/228/60 67/237/67 
f 69/238/69 70/239/69 71/240/69 72/241/69 
f 69/238/69 73/242/69 74/243/69 70/239/69 
f 69/238/69 75/244/69 76/245/69 73/242/69 
f 69/238/69 77/246/69 78/247/70 75/244/69 
f 69/238/69 72/241/69 79/248/69 77/246/69 
s 8
f 72/249/71 71/250/72 80/251/73 81/252/74 
f 71/253/72 70/254/75 82/255/76 80/256/73 
f 70/257/75 74/258/77 83/259/78 82/260/76 
f 74/261/77 73/262/79 84/263/80 83/264/78 
f 73/265/79 76/266/81 85/267/82 84/268/80 
f 76/269/81 75/270/83 86/271/84 85/272/82 
f 75/273/83 78/274/85 87/275/86 86/276/84 
f 78/277/85 77/278/87 88/279/88 87/280/86 
f 77/281/87 79/282/89 89/283/90 88/284/88 
f 79/285/89 72/286/71 81/287/74 89/288/90 
s 1
f 90/289/91 89/290/92 81/291/91 80/292/91 
f 90/289/91 80/292/91 82/293/91 83/294/91 
f 90/289/91 83/294/91 84/295/91 85/296/91 
f 90/289/91 85/296/91 86/297/91 87/298/91 
f 90/289/91 87/298/91 88/299/92 89/290/92 
# 66 polygons - 36 triangles

