# 3ds Max Wavefront OBJ Exporter v0.97b - (c)2007 guruware
# File Created: 10.07.2020 10:24:19

mtllib desk.mtl

#
# object Box001
#

v  -10.0071 0.0000 5.1575
v  -10.0071 0.0000 -4.7009
v  9.8274 0.0000 -4.7009
v  9.8274 0.0000 5.1575
v  -10.0071 0.5788 5.1575
v  9.8274 0.5788 5.1575
v  9.8274 0.5788 -4.7009
v  -10.0071 0.5788 -4.7009
# 8 vertices

vn 0.0000 -1.0000 -0.0000
vn 0.0000 1.0000 -0.0000
vn 0.0000 0.0000 1.0000
vn 1.0000 0.0000 -0.0000
vn 0.0000 0.0000 -1.0000
vn -1.0000 0.0000 -0.0000
# 6 vertex normals

vt 1.0000 0.0000 0.9366
vt 1.0000 1.0000 0.9366
vt 0.0000 1.0000 0.9366
vt 0.0000 -0.0000 0.9366
vt -0.0000 0.0000 1.0000
vt 1.0000 -0.0000 1.0000
vt 1.0000 1.0000 1.0000
vt 0.0000 1.0000 1.0000
vt -0.0000 0.9366 0.0000
vt 1.0000 0.9366 -0.0000
vt 1.0000 1.0000 -0.0000
vt -0.0000 1.0000 0.0000
vt -0.0000 0.9366 1.0000
vt 1.0000 0.9366 1.0000
vt -0.0000 1.0000 1.0000
vt 0.0000 0.9366 1.0000
vt 0.0000 0.9366 0.0000
vt 0.0000 1.0000 0.0000
# 18 texture coords

g Box001
usemtl 01___Default
s 2
f 1/1/1 2/2/1 3/3/1 4/4/1 
s 4
f 5/5/2 6/6/2 7/7/2 8/8/2 
s 8
f 1/9/3 4/10/3 6/11/3 5/12/3 
s 16
f 4/13/4 3/14/4 7/7/4 6/15/4 
s 32
f 3/16/5 2/14/5 8/7/5 7/8/5 
s 64
f 2/17/6 1/10/6 5/11/6 8/18/6 
# 6 polygons

#
# object Box002
#

v  -9.8141 -8.5498 -3.6006
v  -9.8141 -8.5498 -4.5662
v  -8.7742 -8.5498 -4.5662
v  -8.7742 -8.5498 -3.6006
v  -9.8141 0.2890 -3.6006
v  -8.7742 0.2890 -3.6006
v  -8.7742 0.2890 -4.5662
v  -9.8141 0.2890 -4.5662
# 8 vertices

vn 0.0000 -1.0000 -0.0000
vn 0.0000 1.0000 -0.0000
vn 0.0000 0.0000 1.0000
vn 1.0000 0.0000 -0.0000
vn 0.0000 0.0000 -1.0000
vn -1.0000 0.0000 -0.0000
# 6 vertex normals

vt 0.9903 0.8884 0.0000
vt 0.9903 0.9863 0.0000
vt 0.9378 0.9863 0.0000
vt 0.9378 0.8884 0.0000
vt 0.0097 0.8884 0.9683
vt 0.0622 0.8884 0.9683
vt 0.0622 0.9863 0.9683
vt 0.0097 0.9863 0.9683
vt 0.0097 0.0000 0.8884
vt 0.0622 0.0000 0.8884
vt 0.0622 0.9683 0.8884
vt 0.0097 0.9683 0.8884
vt 0.8884 0.0000 0.0622
vt 0.9863 0.0000 0.0622
vt 0.9863 0.9683 0.0622
vt 0.8884 0.9683 0.0622
vt 0.9378 0.0000 0.9863
vt 0.9903 0.0000 0.9863
vt 0.9903 0.9683 0.9863
vt 0.9378 0.9683 0.9863
vt 0.0137 0.0000 0.0097
vt 0.1116 0.0000 0.0097
vt 0.1116 0.9683 0.0097
vt 0.0137 0.9683 0.0097
# 24 texture coords

g Box002
usemtl 01___Default
s 2
f 9/19/7 10/20/7 11/21/7 12/22/7 
s 4
f 13/23/8 14/24/8 15/25/8 16/26/8 
s 8
f 9/27/9 12/28/9 14/29/9 13/30/9 
s 16
f 12/31/10 11/32/10 15/33/10 14/34/10 
s 32
f 11/35/11 10/36/11 16/37/11 15/38/11 
s 64
f 10/39/12 9/40/12 13/41/12 16/42/12 
# 6 polygons

#
# object Box003
#

v  -9.8141 -8.5498 4.9524
v  -9.8141 -8.5498 3.9868
v  -8.7742 -8.5498 3.9868
v  -8.7742 -8.5498 4.9524
v  -9.8141 0.2890 4.9524
v  -8.7742 0.2890 4.9524
v  -8.7742 0.2890 3.9868
v  -9.8141 0.2890 3.9868
# 8 vertices

vn 0.0000 -1.0000 -0.0000
vn 0.0000 1.0000 -0.0000
vn 0.0000 0.0000 1.0000
vn 1.0000 0.0000 -0.0000
vn 0.0000 0.0000 -1.0000
vn -1.0000 0.0000 -0.0000
# 6 vertex normals

vt 0.9903 0.0208 0.0000
vt 0.9903 0.1187 0.0000
vt 0.9378 0.1187 0.0000
vt 0.9378 0.0208 0.0000
vt 0.0097 0.0208 0.9683
vt 0.0622 0.0208 0.9683
vt 0.0622 0.1187 0.9683
vt 0.0097 0.1187 0.9683
vt 0.0097 0.0000 0.0208
vt 0.0622 0.0000 0.0208
vt 0.0622 0.9683 0.0208
vt 0.0097 0.9683 0.0208
vt 0.0208 0.0000 0.0622
vt 0.1187 0.0000 0.0622
vt 0.1187 0.9683 0.0622
vt 0.0208 0.9683 0.0622
vt 0.9378 0.0000 0.1187
vt 0.9903 0.0000 0.1187
vt 0.9903 0.9683 0.1187
vt 0.9378 0.9683 0.1187
vt 0.8813 0.0000 0.0097
vt 0.9792 0.0000 0.0097
vt 0.9792 0.9683 0.0097
vt 0.8813 0.9683 0.0097
# 24 texture coords

g Box003
usemtl 01___Default
s 2
f 17/43/13 18/44/13 19/45/13 20/46/13 
s 4
f 21/47/14 22/48/14 23/49/14 24/50/14 
s 8
f 17/51/15 20/52/15 22/53/15 21/54/15 
s 16
f 20/55/16 19/56/16 23/57/16 22/58/16 
s 32
f 19/59/17 18/60/17 24/61/17 23/62/17 
s 64
f 18/63/18 17/64/18 21/65/18 24/66/18 
# 6 polygons

#
# object Box004
#

v  8.5535 -8.5498 4.9524
v  8.5535 -8.5498 3.9868
v  9.5934 -8.5498 3.9868
v  9.5934 -8.5498 4.9524
v  8.5535 0.2890 4.9524
v  9.5934 0.2890 4.9524
v  9.5934 0.2890 3.9868
v  8.5535 0.2890 3.9868
# 8 vertices

vn 0.0000 -1.0000 -0.0000
vn 0.0000 1.0000 -0.0000
vn 0.0000 0.0000 1.0000
vn 1.0000 0.0000 -0.0000
vn 0.0000 0.0000 -1.0000
vn -1.0000 0.0000 -0.0000
# 6 vertex normals

vt 0.0642 0.0208 0.0000
vt 0.0642 0.1187 0.0000
vt 0.0118 0.1187 0.0000
vt 0.0118 0.0208 0.0000
vt 0.9358 0.0208 0.9683
vt 0.9882 0.0208 0.9683
vt 0.9882 0.1187 0.9683
vt 0.9358 0.1187 0.9683
vt 0.9358 0.0000 0.0208
vt 0.9882 0.0000 0.0208
vt 0.9882 0.9683 0.0208
vt 0.9358 0.9683 0.0208
vt 0.0208 0.0000 0.9882
vt 0.1187 0.0000 0.9882
vt 0.1187 0.9683 0.9882
vt 0.0208 0.9683 0.9882
vt 0.0118 0.0000 0.1187
vt 0.0642 0.0000 0.1187
vt 0.0642 0.9683 0.1187
vt 0.0118 0.9683 0.1187
vt 0.8813 0.0000 0.9358
vt 0.9792 0.0000 0.9358
vt 0.9792 0.9683 0.9358
vt 0.8813 0.9683 0.9358
# 24 texture coords

g Box004
usemtl 01___Default
s 2
f 25/67/19 26/68/19 27/69/19 28/70/19 
s 4
f 29/71/20 30/72/20 31/73/20 32/74/20 
s 8
f 25/75/21 28/76/21 30/77/21 29/78/21 
s 16
f 28/79/22 27/80/22 31/81/22 30/82/22 
s 32
f 27/83/23 26/84/23 32/85/23 31/86/23 
s 64
f 26/87/24 25/88/24 29/89/24 32/90/24 
# 6 polygons

#
# object Box005
#

v  8.5535 -8.5498 -3.6006
v  8.5535 -8.5498 -4.5662
v  9.5934 -8.5498 -4.5662
v  9.5934 -8.5498 -3.6006
v  8.5535 0.2890 -3.6006
v  9.5934 0.2890 -3.6006
v  9.5934 0.2890 -4.5662
v  8.5535 0.2890 -4.5662
# 8 vertices

vn 0.0000 -1.0000 -0.0000
vn 0.0000 1.0000 -0.0000
vn 0.0000 0.0000 1.0000
vn 1.0000 0.0000 -0.0000
vn 0.0000 0.0000 -1.0000
vn -1.0000 0.0000 -0.0000
# 6 vertex normals

vt 0.0642 0.8884 0.0000
vt 0.0642 0.9863 0.0000
vt 0.0118 0.9863 0.0000
vt 0.0118 0.8884 0.0000
vt 0.9358 0.8884 0.9683
vt 0.9882 0.8884 0.9683
vt 0.9882 0.9863 0.9683
vt 0.9358 0.9863 0.9683
vt 0.9358 0.0000 0.8884
vt 0.9882 0.0000 0.8884
vt 0.9882 0.9683 0.8884
vt 0.9358 0.9683 0.8884
vt 0.8884 0.0000 0.9882
vt 0.9863 0.0000 0.9882
vt 0.9863 0.9683 0.9882
vt 0.8884 0.9683 0.9882
vt 0.0118 0.0000 0.9863
vt 0.0642 0.0000 0.9863
vt 0.0642 0.9683 0.9863
vt 0.0118 0.9683 0.9863
vt 0.0137 0.0000 0.9358
vt 0.1116 0.0000 0.9358
vt 0.1116 0.9683 0.9358
vt 0.0137 0.9683 0.9358
# 24 texture coords

g Box005
usemtl 01___Default
s 2
f 33/91/25 34/92/25 35/93/25 36/94/25 
s 4
f 37/95/26 38/96/26 39/97/26 40/98/26 
s 8
f 33/99/27 36/100/27 38/101/27 37/102/27 
s 16
f 36/103/28 35/104/28 39/105/28 38/106/28 
s 32
f 35/107/29 34/108/29 40/109/29 39/110/29 
s 64
f 34/111/30 33/112/30 37/113/30 40/114/30 
# 6 polygons

