# 3ds Max Wavefront OBJ Exporter v0.97b - (c)2007 guruware
# File Created: 02.07.2020 23:30:29

mtllib contryroads.mtl

#
# object Plane001
#

v  -29.7170 11.5674 7.8384
v  -29.7170 5.7477 7.8384
v  -25.7441 5.7477 7.8384
v  -25.7441 11.5674 7.8384
v  -21.7712 5.7477 7.8384
v  -21.7712 11.5674 7.8384
v  -17.7982 5.7477 7.8384
v  -17.7982 11.5674 7.8384
v  -13.8253 5.7477 7.8384
v  -13.8253 11.5674 7.8384
v  -29.7170 17.3871 7.8384
v  -25.7441 17.3871 7.8384
v  -21.7712 17.3871 7.8384
v  -17.7982 17.3871 7.8384
v  -13.8253 17.3871 7.8384
v  -29.7170 23.2068 7.8384
v  -25.7441 23.2068 7.8384
v  -21.7712 23.2068 7.8384
v  -17.7982 23.2068 7.8384
v  -13.8253 23.2068 7.8384
v  -29.7170 29.0265 7.8384
v  -25.7441 29.0265 7.8384
v  -21.7712 29.0265 7.8384
v  -17.7982 29.0265 7.8384
v  -13.8253 29.0265 7.8384
# 25 vertices

vn 0.0000 0.0000 1.0000
# 1 vertex normals

vt 0.0000 0.2500 0.0000
vt 0.0000 0.0000 0.0000
vt 0.2500 0.0000 0.0000
vt 0.2500 0.2500 0.0000
vt 0.5000 0.0000 0.0000
vt 0.5000 0.2500 0.0000
vt 0.7500 0.0000 0.0000
vt 0.7500 0.2500 0.0000
vt 1.0000 0.0000 0.0000
vt 1.0000 0.2500 0.0000
vt 0.0000 0.5000 0.0000
vt 0.2500 0.5000 0.0000
vt 0.5000 0.5000 0.0000
vt 0.7500 0.5000 0.0000
vt 1.0000 0.5000 0.0000
vt 0.0000 0.7500 0.0000
vt 0.2500 0.7500 0.0000
vt 0.5000 0.7500 0.0000
vt 0.7500 0.7500 0.0000
vt 1.0000 0.7500 0.0000
vt 0.0000 1.0000 0.0000
vt 0.2500 1.0000 0.0000
vt 0.5000 1.0000 0.0000
vt 0.7500 1.0000 0.0000
vt 1.0000 1.0000 0.0000
# 25 texture coords

g Plane001
usemtl 01___Default
s 1
f 1/1/1 2/2/1 3/3/1 4/4/1 
f 4/4/1 3/3/1 5/5/1 6/6/1 
f 6/6/1 5/5/1 7/7/1 8/8/1 
f 8/8/1 7/7/1 9/9/1 10/10/1 
f 11/11/1 1/1/1 4/4/1 12/12/1 
f 12/12/1 4/4/1 6/6/1 13/13/1 
f 13/13/1 6/6/1 8/8/1 14/14/1 
f 14/14/1 8/8/1 10/10/1 15/15/1 
f 16/16/1 11/11/1 12/12/1 17/17/1 
f 17/17/1 12/12/1 13/13/1 18/18/1 
f 18/18/1 13/13/1 14/14/1 19/19/1 
f 19/19/1 14/14/1 15/15/1 20/20/1 
f 21/21/1 16/16/1 17/17/1 22/22/1 
f 22/22/1 17/17/1 18/18/1 23/23/1 
f 23/23/1 18/18/1 19/19/1 24/24/1 
f 24/24/1 19/19/1 20/20/1 25/25/1 
# 16 polygons

#
# object Plane002
#

v  -21.7712 11.5674 15.7843
v  -21.7712 5.7477 15.7843
v  -21.7712 5.7477 11.8113
v  -21.7712 11.5674 11.8113
v  -21.7712 5.7477 7.8384
v  -21.7712 11.5674 7.8384
v  -21.7712 5.7477 3.8655
v  -21.7712 11.5674 3.8655
v  -21.7712 5.7477 -0.1075
v  -21.7712 11.5674 -0.1075
v  -21.7712 17.3871 15.7843
v  -21.7712 17.3871 11.8113
v  -21.7712 17.3871 7.8384
v  -21.7712 17.3871 3.8655
v  -21.7712 17.3871 -0.1075
v  -21.7712 23.2068 15.7843
v  -21.7712 23.2068 11.8113
v  -21.7712 23.2068 7.8384
v  -21.7712 23.2068 3.8655
v  -21.7712 23.2068 -0.1075
v  -21.7712 29.0265 15.7843
v  -21.7712 29.0265 11.8113
v  -21.7712 29.0265 7.8384
v  -21.7712 29.0265 3.8655
v  -21.7712 29.0265 -0.1075
# 25 vertices

vn 1.0000 0.0000 -0.0000
# 1 vertex normals

vt 0.0000 0.2500 0.0000
vt 0.0000 0.0000 0.0000
vt 0.2500 0.0000 0.0000
vt 0.2500 0.2500 0.0000
vt 0.5000 0.0000 0.0000
vt 0.5000 0.2500 0.0000
vt 0.7500 0.0000 0.0000
vt 0.7500 0.2500 0.0000
vt 1.0000 0.0000 0.0000
vt 1.0000 0.2500 0.0000
vt 0.0000 0.5000 0.0000
vt 0.2500 0.5000 0.0000
vt 0.5000 0.5000 0.0000
vt 0.7500 0.5000 0.0000
vt 1.0000 0.5000 0.0000
vt 0.0000 0.7500 0.0000
vt 0.2500 0.7500 0.0000
vt 0.5000 0.7500 0.0000
vt 0.7500 0.7500 0.0000
vt 1.0000 0.7500 0.0000
vt 0.0000 1.0000 0.0000
vt 0.2500 1.0000 0.0000
vt 0.5000 1.0000 0.0000
vt 0.7500 1.0000 0.0000
vt 1.0000 1.0000 0.0000
# 25 texture coords

g Plane002
usemtl 01___Default
s 1
f 26/26/2 27/27/2 28/28/2 29/29/2 
f 29/29/2 28/28/2 30/30/2 31/31/2 
f 31/31/2 30/30/2 32/32/2 33/33/2 
f 33/33/2 32/32/2 34/34/2 35/35/2 
f 36/36/2 26/26/2 29/29/2 37/37/2 
f 37/37/2 29/29/2 31/31/2 38/38/2 
f 38/38/2 31/31/2 33/33/2 39/39/2 
f 39/39/2 33/33/2 35/35/2 40/40/2 
f 41/41/2 36/36/2 37/37/2 42/42/2 
f 42/42/2 37/37/2 38/38/2 43/43/2 
f 43/43/2 38/38/2 39/39/2 44/44/2 
f 44/44/2 39/39/2 40/40/2 45/45/2 
f 46/46/2 41/41/2 42/42/2 47/47/2 
f 47/47/2 42/42/2 43/43/2 48/48/2 
f 48/48/2 43/43/2 44/44/2 49/49/2 
f 49/49/2 44/44/2 45/45/2 50/50/2 
# 16 polygons

#
# object Plane003
#

v  -4.1872 11.5674 25.4510
v  -4.1872 5.7477 25.4510
v  -4.1872 5.7477 21.4780
v  -4.1872 11.5674 21.4780
v  -4.1872 5.7477 17.5051
v  -4.1872 11.5674 17.5051
v  -4.1872 5.7477 13.5322
v  -4.1872 11.5674 13.5322
v  -4.1872 5.7477 9.5592
v  -4.1872 11.5674 9.5592
v  -4.1872 17.3871 25.4510
v  -4.1872 17.3871 21.4780
v  -4.1872 17.3871 17.5051
v  -4.1872 17.3871 13.5322
v  -4.1872 17.3871 9.5592
v  -4.1872 23.2068 25.4510
v  -4.1872 23.2068 21.4780
v  -4.1872 23.2068 17.5051
v  -4.1872 23.2068 13.5322
v  -4.1872 23.2068 9.5592
v  -4.1872 29.0265 25.4510
v  -4.1872 29.0265 21.4780
v  -4.1872 29.0265 17.5051
v  -4.1872 29.0265 13.5322
v  -4.1872 29.0265 9.5592
# 25 vertices

vn 1.0000 0.0000 -0.0000
# 1 vertex normals

vt 0.0000 0.2500 0.0000
vt 0.0000 0.0000 0.0000
vt 0.2500 0.0000 0.0000
vt 0.2500 0.2500 0.0000
vt 0.5000 0.0000 0.0000
vt 0.5000 0.2500 0.0000
vt 0.7500 0.0000 0.0000
vt 0.7500 0.2500 0.0000
vt 1.0000 0.0000 0.0000
vt 1.0000 0.2500 0.0000
vt 0.0000 0.5000 0.0000
vt 0.2500 0.5000 0.0000
vt 0.5000 0.5000 0.0000
vt 0.7500 0.5000 0.0000
vt 1.0000 0.5000 0.0000
vt 0.0000 0.7500 0.0000
vt 0.2500 0.7500 0.0000
vt 0.5000 0.7500 0.0000
vt 0.7500 0.7500 0.0000
vt 1.0000 0.7500 0.0000
vt 0.0000 1.0000 0.0000
vt 0.2500 1.0000 0.0000
vt 0.5000 1.0000 0.0000
vt 0.7500 1.0000 0.0000
vt 1.0000 1.0000 0.0000
# 25 texture coords

g Plane003
usemtl 01___Default
s 1
f 51/51/3 52/52/3 53/53/3 54/54/3 
f 54/54/3 53/53/3 55/55/3 56/56/3 
f 56/56/3 55/55/3 57/57/3 58/58/3 
f 58/58/3 57/57/3 59/59/3 60/60/3 
f 61/61/3 51/51/3 54/54/3 62/62/3 
f 62/62/3 54/54/3 56/56/3 63/63/3 
f 63/63/3 56/56/3 58/58/3 64/64/3 
f 64/64/3 58/58/3 60/60/3 65/65/3 
f 66/66/3 61/61/3 62/62/3 67/67/3 
f 67/67/3 62/62/3 63/63/3 68/68/3 
f 68/68/3 63/63/3 64/64/3 69/69/3 
f 69/69/3 64/64/3 65/65/3 70/70/3 
f 71/71/3 66/66/3 67/67/3 72/72/3 
f 72/72/3 67/67/3 68/68/3 73/73/3 
f 73/73/3 68/68/3 69/69/3 74/74/3 
f 74/74/3 69/69/3 70/70/3 75/75/3 
# 16 polygons

#
# object Plane004
#

v  -12.1331 11.5674 17.5051
v  -12.1331 5.7477 17.5051
v  -8.1602 5.7477 17.5051
v  -8.1602 11.5674 17.5051
v  -4.1872 5.7477 17.5051
v  -4.1872 11.5674 17.5051
v  -0.2143 5.7477 17.5051
v  -0.2143 11.5674 17.5051
v  3.7586 5.7477 17.5051
v  3.7586 11.5674 17.5051
v  -12.1331 17.3871 17.5051
v  -8.1602 17.3871 17.5051
v  -4.1872 17.3871 17.5051
v  -0.2143 17.3871 17.5051
v  3.7586 17.3871 17.5051
v  -12.1331 23.2068 17.5051
v  -8.1602 23.2068 17.5051
v  -4.1872 23.2068 17.5051
v  -0.2143 23.2068 17.5051
v  3.7586 23.2068 17.5051
v  -12.1331 29.0265 17.5051
v  -8.1602 29.0265 17.5051
v  -4.1872 29.0265 17.5051
v  -0.2143 29.0265 17.5051
v  3.7586 29.0265 17.5051
# 25 vertices

vn 0.0000 0.0000 1.0000
# 1 vertex normals

vt 0.0000 0.2500 0.0000
vt 0.0000 0.0000 0.0000
vt 0.2500 0.0000 0.0000
vt 0.2500 0.2500 0.0000
vt 0.5000 0.0000 0.0000
vt 0.5000 0.2500 0.0000
vt 0.7500 0.0000 0.0000
vt 0.7500 0.2500 0.0000
vt 1.0000 0.0000 0.0000
vt 1.0000 0.2500 0.0000
vt 0.0000 0.5000 0.0000
vt 0.2500 0.5000 0.0000
vt 0.5000 0.5000 0.0000
vt 0.7500 0.5000 0.0000
vt 1.0000 0.5000 0.0000
vt 0.0000 0.7500 0.0000
vt 0.2500 0.7500 0.0000
vt 0.5000 0.7500 0.0000
vt 0.7500 0.7500 0.0000
vt 1.0000 0.7500 0.0000
vt 0.0000 1.0000 0.0000
vt 0.2500 1.0000 0.0000
vt 0.5000 1.0000 0.0000
vt 0.7500 1.0000 0.0000
vt 1.0000 1.0000 0.0000
# 25 texture coords

g Plane004
usemtl 01___Default
s 1
f 76/76/4 77/77/4 78/78/4 79/79/4 
f 79/79/4 78/78/4 80/80/4 81/81/4 
f 81/81/4 80/80/4 82/82/4 83/83/4 
f 83/83/4 82/82/4 84/84/4 85/85/4 
f 86/86/4 76/76/4 79/79/4 87/87/4 
f 87/87/4 79/79/4 81/81/4 88/88/4 
f 88/88/4 81/81/4 83/83/4 89/89/4 
f 89/89/4 83/83/4 85/85/4 90/90/4 
f 91/91/4 86/86/4 87/87/4 92/92/4 
f 92/92/4 87/87/4 88/88/4 93/93/4 
f 93/93/4 88/88/4 89/89/4 94/94/4 
f 94/94/4 89/89/4 90/90/4 95/95/4 
f 96/96/4 91/91/4 92/92/4 97/97/4 
f 97/97/4 92/92/4 93/93/4 98/98/4 
f 98/98/4 93/93/4 94/94/4 99/99/4 
f 99/99/4 94/94/4 95/95/4 100/100/4 
# 16 polygons

#
# object Plane005
#

v  -13.3683 11.5674 49.7807
v  -13.3683 5.7477 49.7807
v  -13.3683 5.7477 45.8077
v  -13.3683 11.5674 45.8077
v  -13.3683 5.7477 41.8348
v  -13.3683 11.5674 41.8348
v  -13.3683 5.7477 37.8619
v  -13.3683 11.5674 37.8619
v  -13.3683 5.7477 33.8889
v  -13.3683 11.5674 33.8889
v  -13.3683 17.3871 49.7807
v  -13.3683 17.3871 45.8077
v  -13.3683 17.3871 41.8348
v  -13.3683 17.3871 37.8619
v  -13.3683 17.3871 33.8889
v  -13.3683 23.2068 49.7807
v  -13.3683 23.2068 45.8077
v  -13.3683 23.2068 41.8348
v  -13.3683 23.2068 37.8619
v  -13.3683 23.2068 33.8889
v  -13.3683 29.0265 49.7807
v  -13.3683 29.0265 45.8077
v  -13.3683 29.0265 41.8348
v  -13.3683 29.0265 37.8619
v  -13.3683 29.0265 33.8889
# 25 vertices

vn 1.0000 0.0000 -0.0000
# 1 vertex normals

vt 0.0000 0.2500 0.0000
vt 0.0000 0.0000 0.0000
vt 0.2500 0.0000 0.0000
vt 0.2500 0.2500 0.0000
vt 0.5000 0.0000 0.0000
vt 0.5000 0.2500 0.0000
vt 0.7500 0.0000 0.0000
vt 0.7500 0.2500 0.0000
vt 1.0000 0.0000 0.0000
vt 1.0000 0.2500 0.0000
vt 0.0000 0.5000 0.0000
vt 0.2500 0.5000 0.0000
vt 0.5000 0.5000 0.0000
vt 0.7500 0.5000 0.0000
vt 1.0000 0.5000 0.0000
vt 0.0000 0.7500 0.0000
vt 0.2500 0.7500 0.0000
vt 0.5000 0.7500 0.0000
vt 0.7500 0.7500 0.0000
vt 1.0000 0.7500 0.0000
vt 0.0000 1.0000 0.0000
vt 0.2500 1.0000 0.0000
vt 0.5000 1.0000 0.0000
vt 0.7500 1.0000 0.0000
vt 1.0000 1.0000 0.0000
# 25 texture coords

g Plane005
usemtl 01___Default
s 1
f 101/101/5 102/102/5 103/103/5 104/104/5 
f 104/104/5 103/103/5 105/105/5 106/106/5 
f 106/106/5 105/105/5 107/107/5 108/108/5 
f 108/108/5 107/107/5 109/109/5 110/110/5 
f 111/111/5 101/101/5 104/104/5 112/112/5 
f 112/112/5 104/104/5 106/106/5 113/113/5 
f 113/113/5 106/106/5 108/108/5 114/114/5 
f 114/114/5 108/108/5 110/110/5 115/115/5 
f 116/116/5 111/111/5 112/112/5 117/117/5 
f 117/117/5 112/112/5 113/113/5 118/118/5 
f 118/118/5 113/113/5 114/114/5 119/119/5 
f 119/119/5 114/114/5 115/115/5 120/120/5 
f 121/121/5 116/116/5 117/117/5 122/122/5 
f 122/122/5 117/117/5 118/118/5 123/123/5 
f 123/123/5 118/118/5 119/119/5 124/124/5 
f 124/124/5 119/119/5 120/120/5 125/125/5 
# 16 polygons

#
# object Plane006
#

v  -21.3142 11.5674 41.8348
v  -21.3142 5.7477 41.8348
v  -17.3413 5.7477 41.8348
v  -17.3413 11.5674 41.8348
v  -13.3683 5.7477 41.8348
v  -13.3683 11.5674 41.8348
v  -9.3954 5.7477 41.8348
v  -9.3954 11.5674 41.8348
v  -5.4225 5.7477 41.8348
v  -5.4225 11.5674 41.8348
v  -21.3142 17.3871 41.8348
v  -17.3413 17.3871 41.8348
v  -13.3683 17.3871 41.8348
v  -9.3954 17.3871 41.8348
v  -5.4225 17.3871 41.8348
v  -21.3142 23.2068 41.8348
v  -17.3413 23.2068 41.8348
v  -13.3683 23.2068 41.8348
v  -9.3954 23.2068 41.8348
v  -5.4225 23.2068 41.8348
v  -21.3142 29.0265 41.8348
v  -17.3413 29.0265 41.8348
v  -13.3683 29.0265 41.8348
v  -9.3954 29.0265 41.8348
v  -5.4225 29.0265 41.8348
# 25 vertices

vn 0.0000 0.0000 1.0000
# 1 vertex normals

vt 0.0000 0.2500 0.0000
vt 0.0000 0.0000 0.0000
vt 0.2500 0.0000 0.0000
vt 0.2500 0.2500 0.0000
vt 0.5000 0.0000 0.0000
vt 0.5000 0.2500 0.0000
vt 0.7500 0.0000 0.0000
vt 0.7500 0.2500 0.0000
vt 1.0000 0.0000 0.0000
vt 1.0000 0.2500 0.0000
vt 0.0000 0.5000 0.0000
vt 0.2500 0.5000 0.0000
vt 0.5000 0.5000 0.0000
vt 0.7500 0.5000 0.0000
vt 1.0000 0.5000 0.0000
vt 0.0000 0.7500 0.0000
vt 0.2500 0.7500 0.0000
vt 0.5000 0.7500 0.0000
vt 0.7500 0.7500 0.0000
vt 1.0000 0.7500 0.0000
vt 0.0000 1.0000 0.0000
vt 0.2500 1.0000 0.0000
vt 0.5000 1.0000 0.0000
vt 0.7500 1.0000 0.0000
vt 1.0000 1.0000 0.0000
# 25 texture coords

g Plane006
usemtl 01___Default
s 1
f 126/126/6 127/127/6 128/128/6 129/129/6 
f 129/129/6 128/128/6 130/130/6 131/131/6 
f 131/131/6 130/130/6 132/132/6 133/133/6 
f 133/133/6 132/132/6 134/134/6 135/135/6 
f 136/136/6 126/126/6 129/129/6 137/137/6 
f 137/137/6 129/129/6 131/131/6 138/138/6 
f 138/138/6 131/131/6 133/133/6 139/139/6 
f 139/139/6 133/133/6 135/135/6 140/140/6 
f 141/141/6 136/136/6 137/137/6 142/142/6 
f 142/142/6 137/137/6 138/138/6 143/143/6 
f 143/143/6 138/138/6 139/139/6 144/144/6 
f 144/144/6 139/139/6 140/140/6 145/145/6 
f 146/146/6 141/141/6 142/142/6 147/147/6 
f 147/147/6 142/142/6 143/143/6 148/148/6 
f 148/148/6 143/143/6 144/144/6 149/149/6 
f 149/149/6 144/144/6 145/145/6 150/150/6 
# 16 polygons

