# 3ds Max Wavefront OBJ Exporter v0.97b - (c)2007 guruware
# File Created: 20.08.2020 02:38:50

mtllib museum.mtl

#
# object Plane001
#

v  -10.7030 0.0000 -10.5781
v  -10.7030 0.0000 11.0219
v  10.9390 0.0000 11.0219
v  10.9390 0.0000 -10.5781
# 4 vertices

vn 0.0000 1.0000 -0.0000
# 1 vertex normals

vt 0.0000 3.0000 0.5000
vt 0.0000 0.0000 0.5000
vt 3.0000 0.0000 0.5000
vt 3.0000 3.0000 0.5000
# 4 texture coords

g Plane001
usemtl 01___Defaults
s 1
f 1/1/1 2/2/1 3/3/1 4/4/1 
# 1 polygons

#
# object Box001
#

v  -10.6808 0.0000 -9.8131
v  -10.6808 0.0000 -10.6142
v  11.0815 0.0000 -10.6142
v  11.0815 0.0000 -9.8131
v  -10.6808 8.0107 -9.8131
v  11.0815 8.0107 -9.8131
v  11.0815 8.0107 -10.6142
v  -10.6808 8.0107 -10.6142
# 8 vertices

vn 0.0000 -1.0000 -0.0000
vn 0.0000 1.0000 -0.0000
vn 0.0000 0.0000 1.0000
vn 1.0000 0.0000 -0.0000
vn 0.0000 0.0000 -1.0000
vn -1.0000 0.0000 -0.0000
# 6 vertex normals

vt 5.4800 0.0000 0.0000
vt 5.4800 2.3100 0.0000
vt 0.0000 2.3100 0.0000
vt 0.0000 0.0000 0.0000
vt 0.0000 0.0000 1.0000
vt 5.4800 0.0000 1.0000
vt 5.4800 2.3100 1.0000
vt 0.0000 2.3100 1.0000
# 8 texture coords

g Box001
usemtl 01___Default
s 2
f 5/5/2 6/6/2 7/7/2 8/8/2 
s 4
f 9/9/3 10/10/3 11/11/3 12/12/3 
s 8
f 5/8/4 8/5/4 10/6/4 9/7/4 
s 16
f 8/9/5 7/10/5 11/11/5 10/12/5 
s 32
f 7/9/6 6/10/6 12/11/6 11/12/6 
s 64
f 6/8/7 5/5/7 9/6/7 12/7/7 
# 6 polygons

#
# object Plane002
#

v  -3.5721 6.4295 -9.5915
v  -3.5721 2.0629 -9.5915
v  4.1614 2.0629 -9.5915
v  4.1614 6.4295 -9.5915
# 4 vertices

vn 0.0000 0.0000 1.0000
# 1 vertex normals

vt 0.0000 1.0000 0.5000
vt 0.0000 0.0000 0.5000
vt 1.0000 0.0000 0.5000
vt 1.0000 1.0000 0.5000
# 4 texture coords

g Plane002
usemtl d
s 1
f 13/13/8 14/14/8 15/15/8 16/16/8 
# 1 polygons

