# 3ds Max Wavefront OBJ Exporter v0.97b - (c)2007 guruware
# File Created: 20.08.2020 02:43:07

mtllib museum.mtl

#
# object Plane002
#

v  -3.5721 6.4295 -9.5915
v  -3.5721 2.0629 -9.5915
v  4.1614 2.0629 -9.5915
v  4.1614 6.4295 -9.5915
# 4 vertices

vn 0.0000 0.0000 1.0000
# 1 vertex normals

vt 0.0000 1.0000 0.5000
vt 0.0000 0.0000 0.5000
vt 1.0000 0.0000 0.5000
vt 1.0000 1.0000 0.5000
# 4 texture coords

g Plane002
usemtl 04___Default
s 1
f 1/1/1 2/2/1 3/3/1 4/4/1 
# 1 polygons

