# 3ds Max Wavefront OBJ Exporter v0.97b - (c)2007 guruware
# File Created: 13.05.2021 22:23:19

mtllib wheelFront.mtl

#
# object Cylinder005
#

v  -0.1577 -0.3830 -0.4473
v  -0.1577 -0.5135 -0.2917
v  -0.1577 -0.5830 -0.0920
v  -0.1577 -0.5830 0.1111
v  -0.1577 -0.5135 0.2930
v  -0.1577 -0.3830 0.4486
v  -0.1577 -0.2071 0.5501
v  -0.1577 -0.0071 0.5854
v  -0.1577 0.1929 0.5501
v  -0.1577 0.3688 0.4486
v  -0.1577 0.4993 0.2930
v  -0.1577 0.5688 0.1022
v  -0.1577 0.5688 -0.1009
v  -0.1577 0.4993 -0.2917
v  -0.1577 0.3688 -0.4473
v  -0.1577 0.1929 -0.5489
v  -0.1577 -0.0071 -0.5841
v  -0.1577 -0.2071 -0.5489
v  0.1601 0.1929 -0.5489
v  0.1601 -0.0071 -0.5841
v  0.1601 0.3688 -0.4473
v  0.1601 0.4993 -0.2917
v  0.1601 0.5688 -0.1009
v  0.1601 0.5688 0.1022
v  0.1601 0.4993 0.2930
v  0.1601 0.3688 0.4486
v  0.1601 0.1929 0.5501
v  0.1601 -0.0071 0.5854
v  0.1601 -0.2071 0.5501
v  0.1601 -0.3830 0.4486
v  0.1601 -0.5135 0.2930
v  0.1601 -0.5830 0.1111
v  0.1601 -0.5830 -0.0920
v  0.1601 -0.5135 -0.2917
v  0.1601 -0.3830 -0.4473
v  0.1601 -0.2071 -0.5489
# 36 vertices

vn -1.0000 -0.0000 0.0000
vn -1.0000 -0.0000 -0.0000
vn -1.0000 0.0000 -0.0000
vn -1.0000 0.0000 0.0000
vn -0.0000 0.3420 -0.9397
vn -0.0000 -0.0000 -1.0000
vn -0.0000 0.6430 -0.7659
vn -0.0000 0.8660 -0.5000
vn -0.0000 0.9848 -0.1738
vn 0.0000 0.9848 0.1738
vn 0.0000 0.8660 0.5000
vn 0.0000 0.6428 0.7660
vn 0.0000 0.3420 0.9397
vn 0.0000 0.0000 1.0000
vn 0.0000 -0.3420 0.9397
vn 0.0000 -0.6428 0.7660
vn 0.0000 -0.8621 0.5068
vn 0.0000 -0.9834 0.1815
vn -0.0000 -0.9860 -0.1666
vn 0.0000 -0.9860 -0.1666
vn -0.0000 -0.8696 -0.4937
vn -0.0000 -0.6430 -0.7659
vn -0.0000 -0.3420 -0.9397
vn 1.0000 0.0000 -0.0000
vn 1.0000 -0.0000 -0.0000
vn 1.0000 -0.0000 0.0000
# 26 vertex normals

vt 0.7065 0.0126 0.0000
vt 0.7157 0.0058 0.0000
vt 0.7259 0.0060 0.0000
vt 0.7350 0.0127 0.0000
vt 0.7421 0.0251 0.0000
vt 0.7471 0.0423 0.0000
vt 0.7488 0.0619 0.0000
vt 0.7471 0.0815 0.0000
vt 0.7423 0.0987 0.0000
vt 0.7348 0.1115 0.0000
vt 0.7256 0.1184 0.0000
vt 0.7159 0.1185 0.0000
vt 0.7067 0.1117 0.0000
vt 0.6992 0.0990 0.0000
vt 0.6943 0.0818 0.0000
vt 0.6925 0.0623 0.0000
vt 0.6942 0.0427 0.0000
vt 0.6991 0.0254 0.0000
vt 0.2630 0.9766 0.0000
vt 0.2630 0.9708 0.0000
vt 0.2693 0.9708 0.0000
vt 0.2693 0.9766 0.0000
vt 0.2574 0.9766 0.0000
vt 0.2574 0.9708 0.0000
vt 0.2930 0.9694 0.0000
vt 0.2881 0.9694 0.0000
vt 0.2881 0.9636 0.0000
vt 0.2930 0.9636 0.0000
vt 0.2990 0.9636 0.0000
vt 0.2990 0.9694 0.0000
vt 0.3055 0.9694 0.0000
vt 0.3055 0.9636 0.0000
vt 0.3115 0.9636 0.0000
vt 0.3115 0.9694 0.0000
vt 0.3164 0.9636 0.0000
vt 0.3164 0.9694 0.0000
vt 0.2630 0.9837 0.0000
vt 0.2574 0.9837 0.0000
vt 0.2574 0.9780 0.0000
vt 0.2630 0.9780 0.0000
vt 0.2693 0.9837 0.0000
vt 0.2693 0.9780 0.0000
vt 0.2756 0.9837 0.0000
vt 0.2756 0.9780 0.0000
vt 0.2811 0.9837 0.0000
vt 0.2811 0.9780 0.0000
vt 0.2574 0.9694 0.0000
vt 0.2574 0.9636 0.0000
vt 0.2623 0.9636 0.0000
vt 0.2623 0.9694 0.0000
vt 0.2681 0.9694 0.0000
vt 0.2681 0.9636 0.0000
vt 0.2745 0.9636 0.0000
vt 0.2745 0.9694 0.0000
vt 0.2808 0.9636 0.0000
vt 0.2808 0.9694 0.0000
vt 0.2857 0.9636 0.0000
vt 0.2857 0.9694 0.0000
vt 0.2756 0.9766 0.0000
vt 0.2756 0.9708 0.0000
vt 0.2811 0.9708 0.0000
vt 0.2811 0.9766 0.0000
vt 0.7472 0.0425 0.0000
vt 0.7489 0.0622 0.0000
vt 0.7472 0.0818 0.0000
vt 0.7423 0.0991 0.0000
vt 0.7348 0.1120 0.0000
vt 0.7255 0.1188 0.0000
vt 0.7064 0.1120 0.0000
vt 0.6989 0.0991 0.0000
vt 0.6939 0.0818 0.0000
vt 0.6922 0.0622 0.0000
vt 0.7157 0.1188 0.0000
vt 0.6939 0.0425 0.0000
vt 0.6989 0.0253 0.0000
vt 0.7064 0.0124 0.0000
vt 0.7152 0.0056 0.0000
vt 0.7251 0.0056 0.0000
vt 0.7348 0.0124 0.0000
vt 0.7423 0.0253 0.0000
# 80 texture coords

g Cylinder005
usemtl Material__25
s 1
f 1/1/1 2/2/2 3/3/1 
f 3/3/1 4/4/3 5/5/3 
f 5/5/3 6/6/3 7/7/3 
f 7/7/3 8/8/3 9/9/3 
f 5/5/3 7/7/3 9/9/3 
f 9/9/3 10/10/3 11/11/4 
f 5/5/3 9/9/3 11/11/4 
f 3/3/1 5/5/3 11/11/4 
f 1/1/1 3/3/1 11/11/4 
f 1/1/1 11/11/4 12/12/4 
f 12/12/4 13/13/3 14/14/3 
f 14/14/3 15/15/4 16/16/4 
f 12/12/4 14/14/3 16/16/4 
f 1/1/1 12/12/4 16/16/4 
f 1/1/1 16/16/4 17/17/1 
f 18/18/4 1/1/1 17/17/1 
s 8
f 16/19/5 19/20/5 20/21/6 
f 20/21/6 17/22/6 16/19/5 
f 16/19/5 15/23/7 21/24/7 
f 21/24/7 19/20/5 16/19/5 
f 22/25/8 21/26/7 15/27/7 
f 15/27/7 14/28/8 22/25/8 
f 13/29/9 23/30/9 22/25/8 
f 22/25/8 14/28/8 13/29/9 
f 24/31/10 23/30/9 13/29/9 
f 13/29/9 12/32/10 24/31/10 
f 24/31/10 12/32/10 11/33/11 
f 11/33/11 25/34/11 24/31/10 
f 10/35/12 26/36/12 25/34/11 
f 25/34/11 11/33/11 10/35/12 
f 27/37/13 26/38/12 10/39/12 
f 10/39/12 9/40/13 27/37/13 
f 28/41/14 27/37/13 9/40/13 
f 9/40/13 8/42/14 28/41/14 
f 29/43/15 28/41/14 8/42/14 
f 8/42/14 7/44/15 29/43/15 
f 30/45/16 29/43/15 7/44/15 
f 7/44/15 6/46/16 30/45/16 
f 30/47/16 6/48/16 5/49/17 
f 5/49/17 31/50/17 30/47/16 
f 32/51/18 31/50/17 5/49/17 
f 5/49/17 4/52/18 32/51/18 
f 32/51/18 4/52/18 3/53/19 
f 3/53/19 33/54/20 32/51/18 
f 3/53/19 2/55/21 34/56/21 
f 34/56/21 33/54/20 3/53/19 
f 1/57/22 35/58/22 34/56/21 
f 34/56/21 2/55/21 1/57/22 
f 18/59/23 36/60/23 35/61/22 
f 35/61/22 1/62/22 18/59/23 
f 20/21/6 36/60/23 18/59/23 
f 18/59/23 17/22/6 20/21/6 
s 1
f 36/63/24 20/64/24 19/65/25 
f 21/66/25 22/67/26 23/68/25 
f 25/69/24 26/70/24 27/71/24 
f 25/69/24 27/71/24 28/72/24 
f 24/73/24 25/69/24 28/72/24 
f 28/72/24 29/74/24 30/75/24 
f 24/73/24 28/72/24 30/75/24 
f 23/68/25 24/73/24 30/75/24 
f 21/66/25 23/68/25 30/75/24 
f 19/65/25 21/66/25 30/75/24 
f 30/75/24 31/76/24 32/77/24 
f 19/65/25 30/75/24 32/77/24 
f 32/77/24 33/78/24 34/79/24 
f 19/65/25 32/77/24 34/79/24 
f 36/63/24 19/65/25 34/79/24 
f 36/63/24 34/79/24 35/80/24 
# 68 faces

