{
  "accessors": [
    {
      "bufferView": 1,
      "componentType": 5126,
      "count": 19,
      "max": [
        1.5118405818939209,
        9.1243057250976562,
        3.1264955997467041
      ],
      "min": [
        1.4282474517822266,
        9.0952892303466797,
        2.6125521659851074
      ],
      "type": "VEC3"
    },
    {
      "bufferView": 1,
      "byteOffset": 228,
      "componentType": 5126,
      "count": 19,
      "max": [
        -0.91431921720504761,
        0.31754714250564575,
        -0.072748661041259766
      ],
      "min": [
        -0.94544780254364014,
        0.30685436725616455,
        -0.2638271152973175
      ],
      "type": "VEC3"
    },
    {
      "bufferView": 2,
      "componentType": 5126,
      "count": 19,
      "max": [
        -0.31812569499015808,
        -0.94771462678909302,
        9.3537869361171033e-07,
        1
      ],
      "min": [
        -0.31911906599998474,
        -0.94804865121841431,
        -3.6489649346549413e-07,
        1
      ],
      "type": "VEC4"
    },
    {
      "bufferView": 2,
      "byteOffset": 304,
      "componentType": 5126,
      "count": 19,
      "max": [
        1,
        1,
        1,
        1
      ],
      "min": [
        1,
        1,
        1,
        1
      ],
      "type": "VEC4"
    },
    {
      "bufferView": 0,
      "componentType": 5125,
      "count": 27,
      "max": [
        18
      ],
      "min": [
        0
      ],
      "type": "SCALAR"
    },
    {
      "bufferView": 1,
      "byteOffset": 456,
      "componentType": 5126,
      "count": 131,
      "max": [
        7.5381650924682617,
        2.3952181339263916,
        2.4270174503326416
      ],
      "min": [
        0.80719035863876343,
        2.3951482772827148,
        0.12089015543460846
      ],
      "type": "VEC3"
    },
    {
      "bufferView": 1,
      "byteOffset": 2028,
      "componentType": 5126,
      "count": 131,
      "max": [
        2.3751794287818484e-05,
        1,
        1.7957097952603363e-05
      ],
      "min": [
        -2.3751794287818484e-05,
        0.99999982118606567,
        -0.00067394343204796314
      ],
      "type": "VEC3"
    },
    {
      "bufferView": 2,
      "byteOffset": 608,
      "componentType": 5126,
      "count": 131,
      "max": [
        -1,
        2.3751794287818484e-05,
        2.0187665938919963e-07,
        1
      ],
      "min": [
        -1,
        -2.3751796106807888e-05,
        -2.0187664517834492e-07,
        1
      ],
      "type": "VEC4"
    },
    {
      "bufferView": 2,
      "byteOffset": 2704,
      "componentType": 5126,
      "count": 131,
      "max": [
        1,
        1,
        1,
        1
      ],
      "min": [
        1,
        1,
        1,
        1
      ],
      "type": "VEC4"
    },
    {
      "bufferView": 0,
      "byteOffset": 108,
      "componentType": 5125,
      "count": 177,
      "max": [
        130
      ],
      "min": [
        0
      ],
      "type": "SCALAR"
    },
    {
      "bufferView": 1,
      "byteOffset": 3600,
      "componentType": 5126,
      "count": 222,
      "max": [
        6.7306537628173828,
        10.307303428649902,
        3.9071719646453857
      ],
      "min": [
        1.6147017478942871,
        8.9447736740112305,
        2.5548303127288818
      ],
      "type": "VEC3"
    },
    {
      "bufferView": 1,
      "byteOffset": 6264,
      "componentType": 5126,
      "count": 222,
      "max": [
        0.42676663398742676,
        1,
        0.022405838593840599
      ],
      "min": [
        -0.40183064341545105,
        -1,
        -0.022147707641124725
      ],
      "type": "VEC3"
    },
    {
      "bufferView": 2,
      "byteOffset": 4800,
      "componentType": 5126,
      "count": 222,
      "max": [
        1,
        0.42680323123931885,
        1.4760315025341697e-05,
        1
      ],
      "min": [
        -1,
        -0.40183106064796448,
        -1.054574840964051e-05,
        1
      ],
      "type": "VEC4"
    },
    {
      "bufferView": 2,
      "byteOffset": 8352,
      "componentType": 5126,
      "count": 222,
      "max": [
        1,
        1,
        1,
        1
      ],
      "min": [
        1,
        1,
        1,
        1
      ],
      "type": "VEC4"
    },
    {
      "bufferView": 0,
      "byteOffset": 816,
      "componentType": 5125,
      "count": 516,
      "max": [
        221
      ],
      "min": [
        0
      ],
      "type": "SCALAR"
    },
    {
      "bufferView": 1,
      "byteOffset": 8928,
      "componentType": 5126,
      "count": 19385,
      "max": [
        7.2270150184631348,
        10.307303428649902,
        3.9071719646453857
      ],
      "min": [
        1.1183403730392456,
        3.0312366485595703,
        2.5548303127288818
      ],
      "type": "VEC3"
    },
    {
      "bufferView": 1,
      "byteOffset": 241548,
      "componentType": 5126,
      "count": 19385,
      "max": [
        1,
        0.99495923519134521,
        1
      ],
      "min": [
        -0.99997079372406006,
        -1,
        -1
      ],
      "type": "VEC3"
    },
    {
      "bufferView": 2,
      "byteOffset": 11904,
      "componentType": 5126,
      "count": 19385,
      "max": [
        1,
        1,
        0.0109321353957057,
        1
      ],
      "min": [
        -1,
        -1,
        -0.14269237220287323,
        -1
      ],
      "type": "VEC4"
    },
    {
      "bufferView": 2,
      "byteOffset": 322064,
      "componentType": 5126,
      "count": 19385,
      "max": [
        1,
        1,
        1,
        1
      ],
      "min": [
        1,
        1,
        1,
        1
      ],
      "type": "VEC4"
    },
    {
      "bufferView": 0,
      "byteOffset": 2880,
      "componentType": 5125,
      "count": 29634,
      "max": [
        19384
      ],
      "min": [
        0
      ],
      "type": "SCALAR"
    },
    {
      "bufferView": 1,
      "byteOffset": 474168,
      "componentType": 5126,
      "count": 299,
      "max": [
        7.1912870407104492,
        10.307303428649902,
        3.8185997009277344
      ],
      "min": [
        1.2012554407119751,
        3.0312366485595703,
        2.5778703689575195
      ],
      "type": "VEC3"
    },
    {
      "bufferView": 1,
      "byteOffset": 477756,
      "componentType": 5126,
      "count": 299,
      "max": [
        0.76817089319229126,
        0.24320134520530701,
        1
      ],
      "min": [
        -0.38268408179283142,
        -0.35576525330543518,
        -1
      ],
      "type": "VEC3"
    },
    {
      "bufferView": 2,
      "byteOffset": 632224,
      "componentType": 5126,
      "count": 299,
      "max": [
        1,
        0.966136634349823,
        1.3005227117446339e-07,
        1
      ],
      "min": [
        -1,
        -1,
        -1.0002414541077087e-07,
        1
      ],
      "type": "VEC4"
    },
    {
      "bufferView": 2,
      "byteOffset": 637008,
      "componentType": 5126,
      "count": 299,
      "max": [
        1,
        1,
        1,
        1
      ],
      "min": [
        1,
        1,
        1,
        1
      ],
      "type": "VEC4"
    },
    {
      "bufferView": 0,
      "byteOffset": 121416,
      "componentType": 5125,
      "count": 486,
      "max": [
        298
      ],
      "min": [
        0
      ],
      "type": "SCALAR"
    },
    {
      "bufferView": 1,
      "byteOffset": 481344,
      "componentType": 5126,
      "count": 9282,
      "max": [
        8.3453550338745117,
        11.719542503356934,
        3.9935734272003174
      ],
      "min": [
        0,
        0,
        2.4270174503326416
      ],
      "type": "VEC3"
    },
    {
      "bufferView": 1,
      "byteOffset": 592728,
      "componentType": 5126,
      "count": 9282,
      "max": [
        1,
        1,
        1
      ],
      "min": [
        -1,
        -1,
        -1
      ],
      "type": "VEC3"
    },
    {
      "bufferView": 2,
      "byteOffset": 641792,
      "componentType": 5126,
      "count": 9282,
      "max": [
        1,
        1,
        0.00056621566182002425,
        1
      ],
      "min": [
        -1,
        -1,
        -0.70708870887756348,
        1
      ],
      "type": "VEC4"
    },
    {
      "bufferView": 2,
      "byteOffset": 790304,
      "componentType": 5126,
      "count": 9282,
      "max": [
        1,
        1,
        1,
        1
      ],
      "min": [
        1,
        1,
        1,
        1
      ],
      "type": "VEC4"
    },
    {
      "bufferView": 0,
      "byteOffset": 123360,
      "componentType": 5125,
      "count": 14754,
      "max": [
        9281
      ],
      "min": [
        0
      ],
      "type": "SCALAR"
    },
    {
      "bufferView": 1,
      "byteOffset": 704112,
      "componentType": 5126,
      "count": 4013,
      "max": [
        8.3453550338745117,
        11.719542503356934,
        3.9935734272003174
      ],
      "min": [
        0,
        0,
        2.4270174503326416
      ],
      "type": "VEC3"
    },
    {
      "bufferView": 1,
      "byteOffset": 752268,
      "componentType": 5126,
      "count": 4013,
      "max": [
        0.99997085332870483,
        1,
        1
      ],
      "min": [
        -0.99997085332870483,
        -1,
        -1
      ],
      "type": "VEC3"
    },
    {
      "bufferView": 2,
      "byteOffset": 938816,
      "componentType": 5126,
      "count": 4013,
      "max": [
        1,
        0.99997085332870483,
        0.00038113145274110138,
        1
      ],
      "min": [
        -1,
        -0.99997085332870483,
        -0.00010165764251723886,
        1
      ],
      "type": "VEC4"
    },
    {
      "bufferView": 2,
      "byteOffset": 1003024,
      "componentType": 5126,
      "count": 4013,
      "max": [
        1,
        1,
        1,
        1
      ],
      "min": [
        1,
        1,
        1,
        1
      ],
      "type": "VEC4"
    },
    {
      "bufferView": 0,
      "byteOffset": 182376,
      "componentType": 5125,
      "count": 6453,
      "max": [
        4012
      ],
      "min": [
        0
      ],
      "type": "SCALAR"
    },
    {
      "bufferView": 1,
      "byteOffset": 800424,
      "componentType": 5126,
      "count": 594,
      "max": [
        8.0456933975219727,
        8.1715860366821289,
        2.4270174503326416
      ],
      "min": [
        0.29966181516647339,
        7.173375129699707,
        2.2538518905639648
      ],
      "type": "VEC3"
    },
    {
      "bufferView": 1,
      "byteOffset": 807552,
      "componentType": 5126,
      "count": 594,
      "max": [
        1,
        0.99365043640136719,
        0
      ],
      "min": [
        -0.99458056688308716,
        -0.99365001916885376,
        -1
      ],
      "type": "VEC3"
    },
    {
      "bufferView": 2,
      "byteOffset": 1067232,
      "componentType": 5126,
      "count": 594,
      "max": [
        0.99365007877349854,
        1,
        3.5601831882559054e-07,
        1
      ],
      "min": [
        -1,
        -1,
        -0.92387956380844116,
        1
      ],
      "type": "VEC4"
    },
    {
      "bufferView": 2,
      "byteOffset": 1076736,
      "componentType": 5126,
      "count": 594,
      "max": [
        1,
        1,
        1,
        1
      ],
      "min": [
        1,
        1,
        1,
        1
      ],
      "type": "VEC4"
    },
    {
      "bufferView": 0,
      "byteOffset": 208188,
      "componentType": 5125,
      "count": 852,
      "max": [
        593
      ],
      "min": [
        0
      ],
      "type": "SCALAR"
    },
    {
      "bufferView": 1,
      "byteOffset": 814680,
      "componentType": 5126,
      "count": 2534,
      "max": [
        8.0415382385253906,
        3.1891422271728516,
        3.4617073535919189
      ],
      "min": [
        0.30381742119789124,
        0,
        0
      ],
      "type": "VEC3"
    },
    {
      "bufferView": 1,
      "byteOffset": 845088,
      "componentType": 5126,
      "count": 2534,
      "max": [
        0.98409682512283325,
        1,
        1
      ],
      "min": [
        -0.98409682512283325,
        -0.99831473827362061,
        -0.98056644201278687
      ],
      "type": "VEC3"
    },
    {
      "bufferView": 2,
      "byteOffset": 1086240,
      "componentType": 5126,
      "count": 2534,
      "max": [
        0.99902230501174927,
        0.99945825338363647,
        0.00013229514297563583,
        1
      ],
      "min": [
        -1,
        -0.99945825338363647,
        -0.00013247737661004066,
        1
      ],
      "type": "VEC4"
    },
    {
      "bufferView": 2,
      "byteOffset": 1126784,
      "componentType": 5126,
      "count": 2534,
      "max": [
        1,
        1,
        1,
        1
      ],
      "min": [
        1,
        1,
        1,
        1
      ],
      "type": "VEC4"
    },
    {
      "bufferView": 0,
      "byteOffset": 211596,
      "componentType": 5125,
      "count": 3294,
      "max": [
        2533
      ],
      "min": [
        0
      ],
      "type": "SCALAR"
    }
  ],
  "asset": {
    "extras": {
      "author": "areousahmadtj (https://sketchfab.com/abdulahmadtj4)",
      "license": "CC-BY-4.0 (http://creativecommons.org/licenses/by/4.0/)",
      "source": "https://sketchfab.com/models/821e0c92a957430a87e5c05a41565fc0",
      "title": "Microsoft Hololens"
    },
    "generator": "Sketchfab-3.17.1",
    "version": "2.0"
  },
  "bufferViews": [
    {
      "buffer": 0,
      "byteLength": 224772,
      "byteOffset": 0,
      "name": "floatBufferViews",
      "target": 34963
    },
    {
      "buffer": 0,
      "byteLength": 875496,
      "byteOffset": 224772,
      "byteStride": 12,
      "name": "floatBufferViews",
      "target": 34962
    },
    {
      "buffer": 0,
      "byteLength": 1167328,
      "byteOffset": 1100268,
      "byteStride": 16,
      "name": "floatBufferViews",
      "target": 34962
    }
  ],
  "buffers": [
    {
      "byteLength": 2267596,
      "uri": "scene.bin"
    }
  ],
  "materials": [
    {
      "alphaMode": "BLEND",
      "doubleSided": true,
      "emissiveFactor": [
        0,
        0,
        0
      ],
      "name": "Color_M0",
      "pbrMetallicRoughness": {
        "baseColorFactor": [
          1,
          1,
          1,
          0.46999999999999997
        ],
        "metallicFactor": 0,
        "roughnessFactor": 0.59999999999999998
      }
    },
    {
      "doubleSided": true,
      "emissiveFactor": [
        0,
        0,
        0
      ],
      "name": "FrontCol",
      "pbrMetallicRoughness": {
        "baseColorFactor": [
          1,
          1,
          1,
          1
        ],
        "metallicFactor": 0,
        "roughnessFactor": 0.59999999999999998
      }
    },
    {
      "doubleSided": true,
      "emissiveFactor": [
        0,
        0,
        0
      ],
      "name": "material",
      "pbrMetallicRoughness": {
        "baseColorFactor": [
          0.31764700000000001,
          0.31764700000000001,
          0.31764700000000001,
          1
        ],
        "metallicFactor": 0,
        "roughnessFactor": 0.59999999999999998
      }
    },
    {
      "doubleSided": true,
      "emissiveFactor": [
        0,
        0,
        0
      ],
      "name": "material_4",
      "pbrMetallicRoughness": {
        "baseColorFactor": [
          0.50196099999999999,
          0.50196099999999999,
          0.50196099999999999,
          1
        ],
        "metallicFactor": 0,
        "roughnessFactor": 0.59999999999999998
      }
    },
    {
      "doubleSided": true,
      "emissiveFactor": [
        0,
        0,
        0
      ],
      "name": "material_5",
      "pbrMetallicRoughness": {
        "baseColorFactor": [
          1,
          0.298039,
          0.17647099999999999,
          1
        ],
        "metallicFactor": 0,
        "roughnessFactor": 0.59999999999999998
      }
    },
    {
      "alphaMode": "BLEND",
      "doubleSided": true,
      "emissiveFactor": [
        0,
        0,
        0
      ],
      "name": "material_6",
      "pbrMetallicRoughness": {
        "baseColorFactor": [
          0.13725499999999999,
          0.13725499999999999,
          0.13725499999999999,
          0.90000000000000002
        ],
        "metallicFactor": 0,
        "roughnessFactor": 0.59999999999999998
      }
    }
  ],
  "meshes": [
    {
      "primitives": [
        {
          "attributes": {
            "COLOR_0": 3,
            "NORMAL": 1,
            "POSITION": 0,
            "TANGENT": 2
          },
          "indices": 4,
          "material": 1,
          "mode": 4
        }
      ]
    },
    {
      "primitives": [
        {
          "attributes": {
            "COLOR_0": 8,
            "NORMAL": 6,
            "POSITION": 5,
            "TANGENT": 7
          },
          "indices": 9,
          "material": 0,
          "mode": 4
        }
      ]
    },
    {
      "primitives": [
        {
          "attributes": {
            "COLOR_0": 13,
            "NORMAL": 11,
            "POSITION": 10,
            "TANGENT": 12
          },
          "indices": 14,
          "material": 2,
          "mode": 4
        }
      ]
    },
    {
      "primitives": [
        {
          "attributes": {
            "COLOR_0": 18,
            "NORMAL": 16,
            "POSITION": 15,
            "TANGENT": 17
          },
          "indices": 19,
          "material": 2,
          "mode": 4
        }
      ]
    },
    {
      "primitives": [
        {
          "attributes": {
            "COLOR_0": 23,
            "NORMAL": 21,
            "POSITION": 20,
            "TANGENT": 22
          },
          "indices": 24,
          "material": 2,
          "mode": 4
        }
      ]
    },
    {
      "primitives": [
        {
          "attributes": {
            "COLOR_0": 28,
            "NORMAL": 26,
            "POSITION": 25,
            "TANGENT": 27
          },
          "indices": 29,
          "material": 3,
          "mode": 4
        }
      ]
    },
    {
      "primitives": [
        {
          "attributes": {
            "COLOR_0": 33,
            "NORMAL": 31,
            "POSITION": 30,
            "TANGENT": 32
          },
          "indices": 34,
          "material": 3,
          "mode": 4
        }
      ]
    },
    {
      "primitives": [
        {
          "attributes": {
            "COLOR_0": 38,
            "NORMAL": 36,
            "POSITION": 35,
            "TANGENT": 37
          },
          "indices": 39,
          "material": 4,
          "mode": 4
        }
      ]
    },
    {
      "primitives": [
        {
          "attributes": {
            "COLOR_0": 43,
            "NORMAL": 41,
            "POSITION": 40,
            "TANGENT": 42
          },
          "indices": 44,
          "material": 5,
          "mode": 4
        }
      ]
    }
  ],
  "nodes": [
    {
      "children": [
        1
      ],
      "name": "RootNode (gltf orientation matrix)",
      "rotation": [
        -0.70710678118654746,
        -0,
        -0,
        0.70710678118654757
      ]
    },
    {
      "children": [
        2
      ],
      "name": "RootNode (model correction matrix)"
    },
    {
      "children": [
        3
      ],
      "name": "76656c7af9014297b7bacfb52f37d7e0.3ds"
    },
    {
      "children": [
        4,
        5,
        6,
        7,
        8,
        9,
        10,
        11,
        12
      ],
      "name": "Model"
    },
    {
      "mesh": 0,
      "name": ""
    },
    {
      "mesh": 1,
      "name": ""
    },
    {
      "mesh": 2,
      "name": ""
    },
    {
      "mesh": 3,
      "name": ""
    },
    {
      "mesh": 4,
      "name": ""
    },
    {
      "mesh": 5,
      "name": ""
    },
    {
      "mesh": 6,
      "name": ""
    },
    {
      "mesh": 7,
      "name": ""
    },
    {
      "mesh": 8,
      "name": ""
    }
  ],
  "scene": 0,
  "scenes": [
    {
      "name": "OSG_Scene",
      "nodes": [
        0
      ]
    }
  ]
}

