# 3ds Max Wavefront OBJ Exporter v0.97b - (c)2007 guruware
# File Created: 04.10.2020 03:15:17

mtllib cluster.mtl

#
# object Box002
#

v  -1.3590 0.0000 1.2262
v  -1.3590 0.0000 -1.6275
v  1.3858 0.0000 -1.6275
v  1.3858 0.0000 1.2262
v  -1.3590 6.7561 1.2262
v  1.3858 6.7561 1.2262
v  1.3858 6.7561 -1.6275
v  -1.3590 6.7561 -1.6275
v  -1.1537 5.7002 1.2767
v  -1.1537 5.7002 -1.2181
v  1.2223 5.7002 -1.2181
v  1.2223 5.7002 1.2767
v  -1.1537 6.5366 1.2767
v  1.2223 6.5366 1.2767
v  1.2223 6.5366 -1.2181
v  -1.1537 6.5366 -1.2181
v  -1.1537 4.7963 1.2767
v  -1.1537 4.7963 -1.2181
v  1.2223 4.7963 -1.2181
v  1.2223 4.7963 1.2767
v  -1.1537 5.6327 1.2767
v  1.2223 5.6327 1.2767
v  1.2223 5.6327 -1.2181
v  -1.1537 5.6327 -1.2181
v  -1.1537 3.9125 1.2767
v  -1.1537 3.9125 -1.2181
v  1.2223 3.9125 -1.2181
v  1.2223 3.9125 1.2767
v  -1.1537 4.7489 1.2767
v  1.2223 4.7489 1.2767
v  1.2223 4.7489 -1.2181
v  -1.1537 4.7489 -1.2181
v  -1.1537 3.0129 1.2767
v  -1.1537 3.0129 -1.2181
v  1.2223 3.0129 -1.2181
v  1.2223 3.0129 1.2767
v  -1.1537 3.8492 1.2767
v  1.2223 3.8492 1.2767
v  1.2223 3.8492 -1.2181
v  -1.1537 3.8492 -1.2181
v  -1.1537 2.1206 1.2767
v  -1.1537 2.1206 -1.2181
v  1.2223 2.1206 -1.2181
v  1.2223 2.1206 1.2767
v  -1.1537 2.9569 1.2767
v  1.2223 2.9569 1.2767
v  1.2223 2.9569 -1.2181
v  -1.1537 2.9569 -1.2181
v  -1.1537 1.2194 1.2767
v  -1.1537 1.2194 -1.2181
v  1.2223 1.2194 -1.2181
v  1.2223 1.2194 1.2767
v  -1.1537 2.0558 1.2767
v  1.2223 2.0558 1.2767
v  1.2223 2.0558 -1.2181
v  -1.1537 2.0558 -1.2181
v  -1.1537 0.3088 1.2767
v  -1.1537 0.3088 -1.2181
v  1.2223 0.3088 -1.2181
v  1.2223 0.3088 1.2767
v  -1.1537 1.1452 1.2767
v  1.2223 1.1452 1.2767
v  1.2223 1.1452 -1.2181
v  -1.1537 1.1452 -1.2181
# 64 vertices

vn 0.0000 -1.0000 -0.0000
vn 0.0000 1.0000 -0.0000
vn 0.0000 0.0000 1.0000
vn 0.0000 -0.0000 1.0000
vn 1.0000 0.0000 -0.0000
vn -0.0000 -0.0000 -1.0000
vn 0.0000 0.0000 -1.0000
vn -1.0000 0.0000 -0.0000
# 8 vertex normals

vt 0.9330 0.7837 0.0000
vt 0.9330 0.8254 0.0000
vt 0.5568 0.8254 0.0000
vt 0.5568 0.7837 0.0000
vt 0.8917 0.9269 0.0000
vt 0.9525 0.9269 0.0000
vt 0.9525 0.9351 0.0000
vt 0.8917 0.9351 0.0000
vt 0.8877 0.9269 0.0000
vt 0.8877 0.9351 0.0000
vt 0.8269 0.9351 0.0000
vt 0.8269 0.9269 0.0000
vt 0.0479 0.8586 0.0000
vt 0.9631 0.8586 0.0000
vt 0.9631 0.9774 0.0000
vt 0.0479 0.9774 0.0000
vt 0.8269 0.9432 0.0000
vt 0.8877 0.9432 0.0000
vt 0.8877 0.9466 0.0000
vt 0.8269 0.9466 0.0000
vt 0.8781 0.9358 0.0000
vt 0.9272 0.9358 0.0000
vt 0.9272 0.9392 0.0000
vt 0.8781 0.9392 0.0000
vt 0.8269 0.9395 0.0000
vt 0.8877 0.9395 0.0000
vt 0.8877 0.9429 0.0000
vt 0.8269 0.9429 0.0000
vt 0.0491 0.7185 0.0000
vt 0.9644 0.7185 0.0000
vt 0.9644 0.8373 0.0000
vt 0.0491 0.8373 0.0000
vt 0.0517 0.5816 0.0000
vt 0.9669 0.5816 0.0000
vt 0.9669 0.7004 0.0000
vt 0.0517 0.7004 0.0000
vt 0.0436 0.4435 0.0000
vt 0.9588 0.4435 0.0000
vt 0.9588 0.5623 0.0000
vt 0.0436 0.5623 0.0000
vt 0.0477 0.3039 0.0000
vt 0.9629 0.3039 0.0000
vt 0.9629 0.4227 0.0000
vt 0.0477 0.4227 0.0000
vt 0.0486 0.1659 0.0000
vt 0.9638 0.1659 0.0000
vt 0.9638 0.2847 0.0000
vt 0.0486 0.2847 0.0000
vt 0.0517 0.0291 0.0000
vt 0.9669 0.0291 0.0000
vt 0.9669 0.1480 0.0000
vt 0.0517 0.1480 0.0000
# 52 texture coords

g Box002
usemtl 01___Default
s 2
f 1/1/1 2/2/1 3/3/1 4/4/1 
s 4
f 5/4/2 6/1/2 7/2/2 8/3/2 
s 8
f 1/4/3 4/1/3 6/2/4 5/3/4 
s 16
f 4/4/5 3/1/5 7/2/5 6/3/5 
s 32
f 3/4/6 2/1/7 8/2/6 7/3/6 
s 64
f 2/4/8 1/1/8 5/2/8 8/3/8 
s 2
f 9/5/1 10/6/1 11/7/1 12/8/1 
s 4
f 13/9/2 14/10/2 15/11/2 16/12/2 
s 8
f 9/13/3 12/14/3 14/15/3 13/16/3 
s 16
f 12/17/5 11/18/5 15/19/5 14/20/5 
s 32
f 11/21/7 10/22/7 16/23/7 15/24/7 
s 64
f 10/25/8 9/26/8 13/27/8 16/28/8 
s 2
f 17/5/1 18/6/1 19/7/1 20/8/1 
s 4
f 21/9/2 22/10/2 23/11/2 24/12/2 
s 8
f 17/29/3 20/30/3 22/31/3 21/32/3 
s 16
f 20/17/5 19/18/5 23/19/5 22/20/5 
s 32
f 19/21/7 18/22/7 24/23/7 23/24/7 
s 64
f 18/25/8 17/26/8 21/27/8 24/28/8 
s 2
f 25/5/1 26/6/1 27/7/1 28/8/1 
s 4
f 29/9/2 30/10/2 31/11/2 32/12/2 
s 8
f 25/33/3 28/34/3 30/35/3 29/36/3 
s 16
f 28/17/5 27/18/5 31/19/5 30/20/5 
s 32
f 27/21/7 26/22/7 32/23/7 31/24/7 
s 64
f 26/25/8 25/26/8 29/27/8 32/28/8 
s 2
f 33/5/1 34/6/1 35/7/1 36/8/1 
s 4
f 37/9/2 38/10/2 39/11/2 40/12/2 
s 8
f 33/37/3 36/38/3 38/39/3 37/40/3 
s 16
f 36/17/5 35/18/5 39/19/5 38/20/5 
s 32
f 35/21/7 34/22/7 40/23/7 39/24/7 
s 64
f 34/25/8 33/26/8 37/27/8 40/28/8 
s 2
f 41/5/1 42/6/1 43/7/1 44/8/1 
s 4
f 45/9/2 46/10/2 47/11/2 48/12/2 
s 8
f 41/41/3 44/42/3 46/43/3 45/44/3 
s 16
f 44/17/5 43/18/5 47/19/5 46/20/5 
s 32
f 43/21/7 42/22/7 48/23/7 47/24/7 
s 64
f 42/25/8 41/26/8 45/27/8 48/28/8 
s 2
f 49/5/1 50/6/1 51/7/1 52/8/1 
s 4
f 53/9/2 54/10/2 55/11/2 56/12/2 
s 8
f 49/45/3 52/46/3 54/47/3 53/48/3 
s 16
f 52/17/5 51/18/5 55/19/5 54/20/5 
s 32
f 51/21/7 50/22/7 56/23/7 55/24/7 
s 64
f 50/25/8 49/26/8 53/27/8 56/28/8 
s 2
f 57/5/1 58/6/1 59/7/1 60/8/1 
s 4
f 61/9/2 62/10/2 63/11/2 64/12/2 
s 8
f 57/49/3 60/50/3 62/51/3 61/52/3 
s 16
f 60/17/5 59/18/5 63/19/5 62/20/5 
s 32
f 59/21/7 58/22/7 64/23/7 63/24/7 
s 64
f 58/25/8 57/26/8 61/27/8 64/28/8 
# 48 polygons

