# Alias OBJ Model File
# Exported from SketchUp, (c) 2000-2012 Trimble Navigation Limited
# File units = meters

mtllib building.mtl

g Mesh1 Model

usemtl FrontColor
v 3 0 -2
vt -118.11 78.7402
vn 0 -1 -0
v 0 0 -0
vt 0 0
v 0 0 -2
vt 0 78.7402
f 1/1/1 2/2/1 3/3/1

v 3 0 -0
vt -118.11 0
f 2/2/1 1/1/1 4/4/1

usemtl Brick_Rough_Tan
vt 3.02847 0
vn 1 0 -0
v 3 0.478402 -0
vt 0 0.724412
f 1/5/2 5/6/2 4/2/2

v 3 0.478402 -0.05
vt 0.0757117 0.724412
f 5/6/2 1/5/2 6/7/2

v 3 0.478402 -0.307247
vt 0.465244 0.724412
f 6/7/2 1/5/2 7/8/2

v 3 0.478402 -1.64941
vt 2.4976 0.724412
f 7/8/2 1/5/2 8/9/2

v 3 0.478402 -2
vt 3.02847 0.724412
f 8/9/2 1/5/2 9/10/2

vt -4.5427 0.724412
vn 0 0 -1
vt -4.5427 0
v 2.97 0.478402 -2
vt -4.49727 0.724412
f 9/11/3 1/12/3 10/13/3

v 0 1.53338 -2
vt 0 2.3219
f 1/12/3 11/14/3 10/13/3

f 11/14/3 1/12/3 3/2/3

vt -3.02847 0
vn -1 0 -0
v 0 0.478402 -0.05
vt -0.0757117 0.724412
vt -3.02847 2.3219
f 3/15/4 12/16/4 11/17/4

f 2/2/4 12/16/4 3/15/4

v 0 0.478402 -0
f 12/16/4 2/2/4 13/6/4

vn 0 0 1
vt 4.5427 0.724412
f 2/2/5 5/18/5 13/6/5

vt 4.5427 0
f 5/18/5 2/2/5 4/19/5

usemtl Concrete_Scored_Jointless
vn 0 1 -0
vt 0 0.0757117
f 5/19/6 12/20/6 13/2/6

v 2.97 0.478402 -0.05
vt 4.49727 0.0757117
f 12/20/6 5/19/6 14/21/6

vt 4.5427 0.0757117
f 14/21/6 5/19/6 6/22/6

vn 0 1 -7.01573e-16
v 2.97 0.478402 -0.307247
vt 4.49727 0.465244
f 6/22/7 15/23/7 14/21/7

vt 4.5427 0.465244
f 15/23/7 6/22/7 7/24/7

v 2.97 0.478402 -1.64941
vt 4.49727 2.4976
f 16/25/6 15/23/6 7/24/6

v 2.75 0.478402 -1.64941
vt 4.16414 2.4976
f 17/26/6 15/23/6 16/25/6

v 2.75 0.478402 -0.307247
vt 4.16414 0.465244
f 15/23/6 17/26/6 18/27/6

usemtl Marc_Shoes2
vt 64.9376 18.8347
v 2.75 1.16241 -0.307247
vt 12.0964 45.7644
vt 12.0964 18.8347
f 17/28/2 19/29/2 18/30/2

v 2.75 1.16241 -1.64941
vt 64.9376 45.7644
f 19/29/2 17/28/2 20/31/2

usemtl Concrete_Scored_Jointless
vt 4.16414 0.724412
v 2.97 1.16241 -1.64941
vt 4.49727 1.76017
vt 4.16414 1.76017
f 17/32/5 21/33/5 20/34/5

vt 4.49727 0.724412
f 21/33/5 17/32/5 16/35/5

vt 2.4976 1.76017
f 10/10/2 21/36/2 16/9/2

v 2.97 1.16241 -2
vt 3.02847 1.76017
f 21/36/2 10/10/2 22/37/2

usemtl Brick_Rough_Tan
vt -4.49727 1.76017
f 10/13/3 11/14/3 22/38/3

v 3 1.16241 -2
vt -4.5427 1.76017
f 22/38/3 11/14/3 23/39/3

v 3 1.53338 -2
vt -4.5427 2.3219
f 23/39/3 11/14/3 24/40/3

usemtl Roofing_Scalloped_Ornate
v 0 2.53661 -1
vt 0 1.87986
vn 0 0.705966 -0.708246
vt -4.92126 -0.561801
vt 0 -0.561801
f 25/41/8 24/42/8 11/43/8

v 3 2.53661 -1
vt -4.92126 1.87986
f 24/42/8 25/41/8 26/44/8

v 0 1.53338 -0
vt 0 1.87199
vn 0 0.705966 0.708246
vt 4.92126 4.31366
vt 0 4.31366
f 27/45/9 26/46/9 25/47/9

v 3 1.53338 -0
vt 4.92126 1.87199
f 26/46/9 27/45/9 28/48/9

usemtl FrontColor
vt 118.11 0
f 28/49/6 11/3/6 27/2/6

vt 118.11 78.7402
f 11/3/6 28/49/6 24/50/6

usemtl Roofing_Scalloped_Ornate
vt 3.28084 2.64314
vt 1.64042 4.37244
vt 0 2.64314
f 24/51/2 26/52/2 28/53/2

usemtl Brick_Rough_Tan
v 3 1.16241 -0.05
vt 0.0757117 1.76017
vt 3.02847 2.3219
f 28/14/2 29/54/2 24/55/2

v 3 1.16241 -0
vt 0 1.76017
f 29/54/2 28/14/2 30/56/2

vt 4.5427 1.76017
vt 4.5427 2.3219
f 27/14/5 30/57/5 28/58/5

v 0 1.16241 -0
f 30/57/5 27/14/5 31/56/5

f 11/17/4 31/56/4 27/14/4

v 0 1.16241 -0.05
vt -0.0757117 1.76017
f 31/56/4 11/17/4 32/59/4

f 32/59/4 11/17/4 12/16/4

usemtl Concrete_Scored_Jointless
v 2.97 1.16241 -0.05
f 12/6/5 33/33/5 32/56/5

f 33/33/5 12/6/5 14/35/5

f 15/8/2 33/54/2 14/7/2

v 2.97 1.16241 -0.307247
vt 0.465244 1.76017
f 33/54/2 15/8/2 34/60/2

vt -4.16414 1.76017
f 15/13/3 19/61/3 34/38/3

vt -4.16414 0.724412
f 19/61/3 15/13/3 18/62/3

vt -4.16414 0.465244
vt -4.49727 2.4976
vt -4.49727 0.465244
f 19/63/1 21/64/1 34/65/1

vt -4.16414 2.4976
f 21/64/1 19/63/1 20/66/1

v 3 1.16241 -1.64941
vt -4.5427 2.4976
f 34/65/1 21/64/1 35/67/1

vt -4.5427 3.02847
f 21/64/1 23/68/1 35/67/1

vt -4.49727 3.02847
f 23/68/1 21/64/1 22/69/1

usemtl Brick_Rough_Tan
f 24/55/2 35/36/2 23/37/2

v 3 1.16241 -0.307247
f 24/55/2 36/60/2 35/36/2

f 24/55/2 29/54/2 36/60/2

usemtl Concrete_Scored_Jointless
vt -4.49727 0.0757117
vt -4.5427 0.465244
vt -4.5427 0.0757117
f 33/70/1 36/71/1 29/72/1

f 36/71/1 33/70/1 34/65/1

f 34/65/1 35/67/1 36/71/1

vn 6.01593e-17 -1 -0
f 30/12/10 33/70/10 29/72/10

vt -1.0589e-16 0
f 31/73/10 33/70/10 30/12/10

vt -1.0589e-16 0.0757117
f 33/70/10 31/73/10 32/74/10

usemtl Roofing_Scalloped_Ornate
vt -3.28084 2.64314
vt -1.64042 4.37244
f 11/75/4 27/53/4 25/76/4

usemtl Concrete_Scored_Jointless
vt 4.5427 2.4976
vt 4.49727 3.02847
f 8/77/6 10/78/6 16/25/6

vt 4.5427 3.02847
f 10/78/6 8/77/6 9/79/6

f 16/25/6 7/24/6 8/77/6

