# 3ds Max Wavefront OBJ Exporter v0.97b - (c)2007 guruware
# File Created: 22.04.2020 21:35:28

mtllib rooms.mtl

#
# object Box16
#

v  41.8827 21.2837 -45.7917
v  -45.3890 21.2837 -45.7917
v  -45.3890 21.2837 -46.1566
v  41.8827 21.2837 -46.1566
v  41.8827 38.4318 -46.1566
v  41.8827 38.4318 -45.7917
v  -45.3890 38.4318 -45.7917
v  -45.3890 38.4318 -46.1566
v  41.1617 21.2837 41.1690
v  41.1617 21.2837 -46.1027
v  41.5266 21.2837 -46.1027
v  41.5266 21.2837 41.1690
v  41.5266 38.4318 41.1690
v  41.1617 38.4318 41.1690
v  41.1617 38.4318 -46.1027
v  41.5266 38.4318 -46.1027
v  41.7610 20.4118 41.1721
v  -45.5107 20.4118 41.1721
v  -45.5107 20.4118 39.9913
v  41.7610 20.4118 39.9913
v  41.7610 21.3986 41.1721
v  41.7610 21.3986 39.9913
v  -45.5107 21.3986 39.9913
v  -45.5107 21.3986 41.1721
v  41.8827 21.2837 41.4367
v  -45.3890 21.2837 41.4367
v  -45.3890 21.2837 41.0718
v  41.8827 21.2837 41.0718
v  41.8827 38.4318 41.0718
v  41.8827 38.4318 41.4367
v  -45.3890 38.4318 41.0718
v  -45.3890 38.4318 41.4367
v  -45.1335 21.2837 41.1690
v  -45.1335 21.2837 -46.1027
v  -44.7686 21.2837 -46.1027
v  -44.7686 21.2837 41.1690
v  -44.7686 38.4318 41.1690
v  -45.1335 38.4318 41.1690
v  -44.7686 38.4318 -46.1027
v  -45.1335 38.4318 -46.1027
v  -45.5196 37.8956 -46.0710
v  41.7468 37.8956 -46.0710
v  41.7468 37.8956 41.1954
v  -45.5196 37.8956 41.1954
v  40.5756 20.4118 41.1690
v  40.5756 20.4118 -46.1027
v  41.7563 20.4118 -46.1027
v  41.7563 20.4118 41.1690
v  40.5756 21.3986 41.1690
v  41.7563 21.3986 41.1690
v  41.7563 21.3986 -46.1027
v  40.5756 21.3986 -46.1027
v  41.7610 20.4118 -44.8867
v  -45.5107 20.4118 -44.8867
v  -45.5107 20.4118 -46.0675
v  41.7610 20.4118 -46.0675
v  41.7610 21.3986 -44.8867
v  41.7610 21.3986 -46.0675
v  -45.5107 21.3986 -46.0675
v  -45.5107 21.3986 -44.8867
v  -45.5414 20.4118 41.1690
v  -45.5414 20.4118 -46.1027
v  -44.3607 20.4118 -46.1027
v  -44.3607 20.4118 41.1690
v  -45.5414 21.3986 41.1690
v  -44.3607 21.3986 41.1690
v  -44.3607 21.3986 -46.1027
v  -45.5414 21.3986 -46.1027
v  -44.9376 3.9699 40.9719
v  -44.9376 0.8526 38.2689
v  -43.3120 1.5452 38.8695
v  -43.3120 3.9699 40.9719
v  -44.9376 16.5508 29.0915
v  -44.9376 16.5508 37.2399
v  -43.3120 16.5508 37.2399
v  -43.3120 16.5508 29.0915
v  -44.9376 12.2468 40.9719
v  -43.3120 12.2468 40.9719
v  -43.3120 14.6714 38.8695
v  -44.9376 15.3641 38.2689
v  -44.9376 3.9262 25.3974
v  -43.3120 3.9262 25.3974
v  -43.3120 1.5452 27.4619
v  -43.3120 -0.0074 28.8083
v  -44.9376 -0.0074 28.8083
v  -44.9376 0.8526 28.0625
v  -43.3120 -0.0074 37.5231
v  -44.9376 -0.0074 37.5231
v  -43.3120 12.2904 25.3974
v  -43.3120 15.6409 29.4944
v  -43.3120 1.1797 37.5015
v  -43.3120 0.7123 37.0961
v  -43.9576 0.7123 37.0961
v  -43.9576 1.4877 37.7685
v  -43.3120 1.7357 37.9835
v  -43.3120 0.7123 29.2390
v  -43.9576 0.7123 29.2390
v  -43.3120 3.4063 26.9030
v  -43.3120 4.2588 26.1638
v  -43.9576 4.2588 26.1638
v  -43.9576 1.4877 28.5666
v  -43.3120 1.1797 28.8337
v  -43.3120 1.7357 28.3516
v  -43.3120 11.7998 26.1638
v  -43.9576 11.7998 26.1638
v  -43.9576 15.6409 29.4944
v  -43.3120 15.6409 36.8407
v  -43.9576 15.6409 36.8407
v  -43.3120 12.6286 39.4527
v  -43.3120 11.7605 40.2055
v  -43.9576 11.7605 40.2055
v  -43.9576 14.5709 37.7685
v  -43.3120 14.9959 37.4000
v  -43.3120 14.3229 37.9835
v  -43.3120 4.2982 40.2055
v  -43.9576 4.2982 40.2055
v  -44.9376 12.2904 25.3974
v  41.7610 17.0077 41.1721
v  -45.5107 17.0077 41.1721
v  -45.5107 17.0077 39.9913
v  41.7610 17.0077 39.9913
v  41.7610 17.9945 41.1721
v  41.7610 17.9945 39.9913
v  -45.5107 17.9945 39.9913
v  -45.5107 17.9945 41.1721
v  41.8827 -0.1094 41.4367
v  -45.3890 -0.1094 41.4367
v  -45.3890 -0.1094 41.0718
v  41.8827 -0.1094 41.0718
v  41.8827 17.0387 41.4367
v  41.8827 17.0387 41.0718
v  -45.3890 17.0387 41.0718
v  -45.3890 17.0387 41.4367
v  41.8827 -0.1094 -45.7917
v  -45.3890 -0.1094 -45.7917
v  -45.3890 -0.1094 -46.1566
v  41.8827 -0.1094 -46.1566
v  41.8827 17.0387 -45.7917
v  41.8827 17.0387 -46.1566
v  -45.3890 17.0387 -46.1566
v  -45.3890 17.0387 -45.7917
v  -45.1335 -0.1094 41.1690
v  -45.1335 -0.1094 -46.1027
v  -44.7686 -0.1094 -46.1027
v  -44.7686 -0.1094 41.1690
v  -45.1335 17.0387 41.1690
v  -44.7686 17.0387 41.1690
v  -44.7686 17.0387 -46.1027
v  -45.1335 17.0387 -46.1027
v  -45.5414 17.0077 41.1690
v  -45.5414 17.0077 -46.1027
v  -44.3607 17.0077 -46.1027
v  -44.3607 17.0077 41.1690
v  -45.5414 17.9945 41.1690
v  -44.3607 17.9945 41.1690
v  -44.3607 17.9945 -46.1027
v  -45.5414 17.9945 -46.1027
v  41.7610 17.0077 -44.8867
v  -45.5107 17.0077 -44.8867
v  -45.5107 17.0077 -46.0675
v  41.7610 17.0077 -46.0675
v  41.7610 17.9945 -44.8867
v  41.7610 17.9945 -46.0675
v  -45.5107 17.9945 -46.0675
v  -45.5107 17.9945 -44.8867
v  -45.5196 -0.0074 -46.0710
v  -45.5196 -0.0074 41.1954
v  41.7468 -0.0074 41.1954
v  41.7468 -0.0074 -46.0710
v  41.1617 -0.1094 41.1690
v  41.1617 -0.1094 -46.1027
v  41.5266 -0.1094 -46.1027
v  41.5266 -0.1094 41.1690
v  41.1617 17.0387 41.1690
v  41.5266 17.0387 41.1690
v  41.5266 17.0387 -46.1027
v  41.1617 17.0387 -46.1027
v  40.5756 17.0077 41.1690
v  40.5756 17.0077 -46.1027
v  41.7563 17.0077 -46.1027
v  41.7563 17.0077 41.1690
v  40.5756 17.9945 41.1690
v  41.7563 17.9945 41.1690
v  41.7563 17.9945 -46.1027
v  40.5756 17.9945 -46.1027
# 185 vertices

vn 0.0000 -1.0000 -0.0000
vn 1.0000 0.0000 -0.0000
vn -1.0000 0.0000 -0.0000
vn 0.0000 0.0000 1.0000
vn 0.0000 0.0000 -1.0000
vn 0.0000 1.0000 -0.0000
vn 1.0000 0.0000 0.0000
vn -0.0000 0.0000 1.0000
vn 0.0000 -0.9998 0.0178
vn 0.0000 0.9998 0.0178
vn -0.0000 0.9998 0.0178
vn 0.0000 -0.9998 -0.0178
vn 0.0000 0.9998 -0.0178
vn -0.0000 0.9998 -0.0178
vn -0.0000 -0.9998 -0.0178
vn 1.0000 -0.0000 0.0000
vn 0.0000 1.0000 0.0000
# 17 vertex normals

vt 0.4735 0.5997 0.0000
vt 0.4735 0.3220 0.0000
vt 0.4754 0.3220 0.0000
vt 0.4754 0.5997 0.0000
vt 0.9904 0.7834 0.0000
vt 0.9924 0.7834 0.0000
vt 0.9924 0.9812 0.0000
vt 0.9904 0.9812 0.0000
vt 0.5000 0.2874 0.0000
vt 0.5020 0.2874 0.0000
vt 0.5020 0.5022 0.0000
vt 0.5000 0.5022 0.0000
vt 0.2479 0.8230 0.0000
vt 0.4692 0.8230 0.0000
vt 0.4692 0.9839 0.0000
vt 0.2479 0.9839 0.0000
vt 0.0259 0.5974 0.0000
vt 0.4751 0.5974 0.0000
vt 0.4751 0.5985 0.0000
vt 0.0259 0.5985 0.0000
vt 0.4931 0.7834 0.0000
vt 0.4933 0.7834 0.0000
vt 0.4933 0.9812 0.0000
vt 0.4931 0.9812 0.0000
vt 0.0122 0.8256 0.0000
vt 0.0132 0.8256 0.0000
vt 0.0132 0.9887 0.0000
vt 0.0122 0.9887 0.0000
vt 0.5003 0.2874 0.0000
vt 0.9926 0.2874 0.0000
vt 0.9926 0.5022 0.0000
vt 0.5003 0.5022 0.0000
vt 0.0259 0.5993 0.0000
vt 0.0259 0.3216 0.0000
vt 0.0320 0.3216 0.0000
vt 0.0320 0.5993 0.0000
vt 0.0259 0.0174 0.0000
vt 0.0320 0.0174 0.0000
vt 0.0320 0.2950 0.0000
vt 0.0259 0.2950 0.0000
vt 0.0116 0.8173 0.0000
vt 0.2343 0.8173 0.0000
vt 0.2343 0.8267 0.0000
vt 0.0116 0.8267 0.0000
vt 0.0245 0.5997 0.0000
vt 0.0245 0.3220 0.0000
vt 0.0264 0.3220 0.0000
vt 0.0264 0.5997 0.0000
vt 0.4979 0.7834 0.0000
vt 0.5000 0.7834 0.0000
vt 0.5000 0.9812 0.0000
vt 0.4979 0.9812 0.0000
vt 0.0113 0.8256 0.0000
vt 0.2340 0.8256 0.0000
vt 0.2340 0.9887 0.0000
vt 0.0113 0.9887 0.0000
vt 0.9921 0.2874 0.0000
vt 0.9942 0.2874 0.0000
vt 0.9942 0.5022 0.0000
vt 0.9921 0.5022 0.0000
vt 0.0259 0.3228 0.0000
vt 0.4751 0.3228 0.0000
vt 0.4751 0.3240 0.0000
vt 0.0259 0.3240 0.0000
vt 0.2485 0.8230 0.0000
vt 0.2495 0.8230 0.0000
vt 0.2495 0.9839 0.0000
vt 0.2485 0.9839 0.0000
vt 0.4994 0.7834 0.0000
vt 0.9921 0.7834 0.0000
vt 0.9921 0.9812 0.0000
vt 0.4994 0.9812 0.0000
vt 0.2324 0.8256 0.0000
vt 0.2333 0.8256 0.0000
vt 0.2333 0.9887 0.0000
vt 0.2324 0.9887 0.0000
vt 0.4749 0.3216 0.0000
vt 0.4749 0.5992 0.0000
vt 0.0258 0.5992 0.0000
vt 0.0258 0.3216 0.0000
vt 0.0259 0.5955 0.0000
vt 0.4751 0.5955 0.0000
vt 0.4751 0.5993 0.0000
vt 0.0259 0.0211 0.0000
vt 0.4751 0.0174 0.0000
vt 0.4751 0.0211 0.0000
vt 0.5003 0.2764 0.0000
vt 0.9926 0.2764 0.0000
vt 0.9926 0.2888 0.0000
vt 0.5003 0.2888 0.0000
vt 0.4688 0.5993 0.0000
vt 0.4688 0.3216 0.0000
vt 0.4749 0.5993 0.0000
vt 0.4688 0.0174 0.0000
vt 0.4749 0.0174 0.0000
vt 0.4749 0.2950 0.0000
vt 0.4688 0.2950 0.0000
vt 0.5005 0.2764 0.0000
vt 0.5071 0.2764 0.0000
vt 0.5071 0.2888 0.0000
vt 0.5005 0.2888 0.0000
vt 0.2476 0.8148 0.0000
vt 0.4689 0.8148 0.0000
vt 0.4689 0.8240 0.0000
vt 0.2476 0.8240 0.0000
vt 0.0259 0.3215 0.0000
vt 0.4751 0.3215 0.0000
vt 0.4751 0.3253 0.0000
vt 0.0259 0.3253 0.0000
vt 0.0259 0.2951 0.0000
vt 0.0259 0.2913 0.0000
vt 0.4751 0.2913 0.0000
vt 0.4751 0.2951 0.0000
vt 0.4994 0.7733 0.0000
vt 0.9921 0.7733 0.0000
vt 0.9921 0.7847 0.0000
vt 0.4994 0.7847 0.0000
vt 0.0269 0.3235 0.0000
vt 0.0408 0.3235 0.0000
vt 0.0377 0.3286 0.0000
vt 0.0269 0.3286 0.0000
vt 0.0881 0.2932 0.0000
vt 0.0461 0.2932 0.0000
vt 0.0461 0.2880 0.0000
vt 0.0881 0.2880 0.0000
vt 0.0269 0.2932 0.0000
vt 0.0269 0.2880 0.0000
vt 0.0377 0.2880 0.0000
vt 0.0408 0.2932 0.0000
vt 0.1071 0.3235 0.0000
vt 0.1071 0.3286 0.0000
vt 0.0965 0.3286 0.0000
vt 0.0895 0.3286 0.0000
vt 0.0895 0.3235 0.0000
vt 0.0934 0.3235 0.0000
vt 0.0447 0.3286 0.0000
vt 0.0447 0.3235 0.0000
vt 0.2328 0.6606 0.0000
vt 0.2287 0.7401 0.0000
vt 0.2287 0.6606 0.0000
vt 0.1071 0.2880 0.0000
vt 0.2490 0.6605 0.0000
vt 0.2532 0.7382 0.0000
vt 0.2490 0.7382 0.0000
vt 0.5653 0.7183 0.0000
vt 0.5885 0.6797 0.0000
vt 0.5676 0.7288 0.0000
vt 0.0448 0.2880 0.0000
vt 0.0469 0.2880 0.0000
vt 0.0469 0.2901 0.0000
vt 0.0434 0.2901 0.0000
vt 0.0423 0.2880 0.0000
vt 0.0873 0.2880 0.0000
vt 0.0873 0.2901 0.0000
vt 0.0993 0.2880 0.0000
vt 0.1031 0.2880 0.0000
vt 0.1031 0.2901 0.0000
vt 0.0908 0.2901 0.0000
vt 0.0894 0.2880 0.0000
vt 0.0919 0.2880 0.0000
vt 0.2515 0.6632 0.0000
vt 0.2532 0.7340 0.0000
vt 0.2515 0.7340 0.0000
vt 0.0860 0.3286 0.0000
vt 0.1031 0.3266 0.0000
vt 0.1031 0.3286 0.0000
vt 0.0860 0.3266 0.0000
vt 0.0482 0.3286 0.0000
vt 0.0482 0.3266 0.0000
vt 0.0347 0.3286 0.0000
vt 0.0309 0.3286 0.0000
vt 0.0309 0.3266 0.0000
vt 0.0434 0.3266 0.0000
vt 0.0453 0.3286 0.0000
vt 0.0423 0.3286 0.0000
vt 0.2287 0.6641 0.0000
vt 0.2303 0.7351 0.0000
vt 0.2287 0.7351 0.0000
vt 0.5186 0.5551 0.0000
vt 0.5668 0.5461 0.0000
vt 0.5706 0.5551 0.0000
vt 0.0309 0.2901 0.0000
vt 0.0309 0.2880 0.0000
vt 0.2328 0.7401 0.0000
vt 0.1071 0.2932 0.0000
vt 0.2532 0.6605 0.0000
vt 0.5049 0.5875 0.0000
vt 0.5006 0.6792 0.0000
vt 0.5006 0.5837 0.0000
vt 0.5049 0.6736 0.0000
vt 0.5124 0.5557 0.0000
vt 0.5174 0.5579 0.0000
vt 0.5200 0.5378 0.0000
vt 0.5201 0.5515 0.0000
vt 0.5224 0.5461 0.0000
vt 0.5692 0.5378 0.0000
vt 0.5768 0.5557 0.0000
vt 0.5691 0.5515 0.0000
vt 0.5718 0.5579 0.0000
vt 0.5800 0.5772 0.0000
vt 0.5885 0.5832 0.0000
vt 0.5842 0.5870 0.0000
vt 0.5842 0.6740 0.0000
vt 0.5124 0.7071 0.0000
vt 0.5091 0.6836 0.0000
vt 0.5174 0.7031 0.0000
vt 0.5216 0.7288 0.0000
vt 0.5207 0.7109 0.0000
vt 0.5239 0.7183 0.0000
vt 0.2532 0.6632 0.0000
vt 0.2303 0.6641 0.0000
vt 0.5186 0.7060 0.0000
vt 0.0116 0.7849 0.0000
vt 0.2343 0.7849 0.0000
vt 0.2343 0.7943 0.0000
vt 0.0116 0.7943 0.0000
vt 0.0245 0.0170 0.0000
vt 0.0264 0.0170 0.0000
vt 0.0264 0.2946 0.0000
vt 0.0245 0.2946 0.0000
vt 0.4979 0.5367 0.0000
vt 0.5000 0.5367 0.0000
vt 0.5000 0.7344 0.0000
vt 0.4979 0.7344 0.0000
vt 0.0113 0.6222 0.0000
vt 0.2340 0.6222 0.0000
vt 0.2340 0.7852 0.0000
vt 0.0113 0.7852 0.0000
vt 0.9921 0.0193 0.0000
vt 0.9942 0.0193 0.0000
vt 0.9942 0.2342 0.0000
vt 0.9921 0.2342 0.0000
vt 0.4735 0.0170 0.0000
vt 0.4754 0.0170 0.0000
vt 0.4754 0.2946 0.0000
vt 0.4735 0.2946 0.0000
vt 0.9904 0.5367 0.0000
vt 0.9924 0.5367 0.0000
vt 0.9924 0.7344 0.0000
vt 0.9904 0.7344 0.0000
vt 0.5000 0.0193 0.0000
vt 0.5020 0.0193 0.0000
vt 0.5020 0.2342 0.0000
vt 0.5000 0.2342 0.0000
vt 0.2479 0.6222 0.0000
vt 0.4692 0.6222 0.0000
vt 0.4692 0.7831 0.0000
vt 0.2479 0.7831 0.0000
vt 0.0259 0.2938 0.0000
vt 0.0259 0.2926 0.0000
vt 0.4751 0.2926 0.0000
vt 0.4751 0.2938 0.0000
vt 0.2485 0.6222 0.0000
vt 0.2495 0.6222 0.0000
vt 0.2495 0.7831 0.0000
vt 0.2485 0.7831 0.0000
vt 0.4994 0.5367 0.0000
vt 0.9921 0.5367 0.0000
vt 0.9921 0.7344 0.0000
vt 0.4994 0.7344 0.0000
vt 0.2324 0.6222 0.0000
vt 0.2333 0.6222 0.0000
vt 0.2333 0.7852 0.0000
vt 0.2324 0.7852 0.0000
vt 0.4994 0.7341 0.0000
vt 0.9921 0.7341 0.0000
vt 0.9921 0.7455 0.0000
vt 0.4994 0.7455 0.0000
vt 0.2476 0.7828 0.0000
vt 0.4689 0.7828 0.0000
vt 0.4689 0.7921 0.0000
vt 0.2476 0.7921 0.0000
vt 0.0258 0.2950 0.0000
vt 0.0258 0.0174 0.0000
vt 0.0259 0.0193 0.0000
vt 0.0259 0.0181 0.0000
vt 0.4751 0.0181 0.0000
vt 0.4751 0.0193 0.0000
vt 0.4931 0.5367 0.0000
vt 0.4933 0.5367 0.0000
vt 0.4933 0.7344 0.0000
vt 0.4931 0.7344 0.0000
vt 0.0122 0.6222 0.0000
vt 0.0132 0.6222 0.0000
vt 0.0132 0.7852 0.0000
vt 0.0122 0.7852 0.0000
vt 0.5003 0.0193 0.0000
vt 0.9926 0.0193 0.0000
vt 0.9926 0.2342 0.0000
vt 0.5003 0.2342 0.0000
vt 0.5003 0.2338 0.0000
vt 0.9926 0.2338 0.0000
vt 0.9926 0.2461 0.0000
vt 0.5003 0.2461 0.0000
# 294 texture coords

g Box16
usemtl Material__25
s 2
f 1/1/1 2/2/1 3/3/1 4/4/1 
s 8
f 1/5/2 4/6/2 5/7/2 
f 5/7/2 6/8/2 1/5/2 
s 32
f 3/9/3 2/10/3 7/11/3 
f 7/11/3 8/12/3 3/9/3 
s 64
f 2/13/4 1/14/4 6/15/4 
f 6/15/4 7/16/4 2/13/4 
s 2
f 9/17/1 10/18/1 11/19/1 12/20/1 
s 8
f 9/21/4 12/22/4 13/23/4 
f 13/23/4 14/24/4 9/21/4 
s 32
f 11/25/5 10/26/5 15/27/5 
f 15/27/5 16/28/5 11/25/5 
s 64
f 10/29/3 9/30/3 14/31/3 
f 14/31/3 15/32/3 10/29/3 
s 2
f 17/33/1 18/34/1 19/35/1 20/36/1 
s 4
f 21/37/6 22/38/6 23/39/6 24/40/6 
s 16
f 20/41/5 19/42/5 23/43/5 
f 23/43/5 22/44/5 20/41/5 
s 2
f 25/45/1 26/46/1 27/47/1 28/48/1 
s 8
f 25/49/2 28/50/2 29/51/2 
f 29/51/2 30/52/2 25/49/2 
s 16
f 28/53/5 27/54/5 31/55/5 
f 31/55/5 29/56/5 28/53/5 
s 32
f 27/57/3 26/58/3 32/59/3 
f 32/59/3 31/60/3 27/57/3 
s 2
f 33/61/1 34/62/1 35/63/1 36/64/1 
s 8
f 33/65/4 36/66/4 37/67/4 
f 37/67/4 38/68/4 33/65/4 
s 16
f 36/69/7 35/70/7 39/71/7 
f 39/71/7 37/72/7 36/69/7 
s 32
f 35/73/5 34/74/5 40/75/5 
f 40/75/5 39/76/5 35/73/5 
s 1
f 41/77/1 42/78/1 43/79/1 44/80/1 
s 2
f 45/81/1 46/82/1 47/83/1 48/33/1 
s 4
f 49/84/6 50/37/6 51/85/6 52/86/6 
s 64
f 46/87/5 45/88/3 49/89/3 
f 49/89/5 52/90/3 46/87/3 
s 2
f 53/91/1 54/92/1 55/77/1 56/93/1 
s 4
f 57/94/6 58/95/6 59/96/6 60/97/6 
s 32
f 55/98/3 54/99/3 60/100/3 
f 60/100/3 59/101/3 55/98/3 
s 64
f 54/102/8 53/103/8 57/104/8 
f 57/104/8 60/105/8 54/102/8 
s 2
f 61/106/1 62/107/1 63/108/1 64/109/1 
s 4
f 65/110/6 66/111/6 67/112/6 68/113/6 
s 16
f 64/114/5 63/115/7 67/116/7 
f 67/116/5 66/117/7 64/114/7 
s 1
f 69/118/9 70/119/9 71/120/9 72/121/9 
s 4
f 73/122/6 74/123/6 75/124/6 76/125/6 
s 1
f 77/126/10 78/127/10 79/128/11 75/124/10 74/123/10 80/129/10 
f 81/130/12 82/131/12 83/132/12 84/133/12 85/134/12 86/135/12 
s 2
f 85/134/1 84/133/1 87/136/1 88/137/1 
s 1
f 70/119/9 88/137/9 87/136/9 71/120/9 
s 32
f 81/138/5 89/139/5 82/140/5 
s 1
f 89/141/13 73/122/13 76/125/13 
s 8
f 69/142/4 78/143/4 77/144/4 
s 16
f 90/145/7 89/146/2 76/147/2 
s 1
f 91/148/13 92/149/13 93/150/13 94/151/14 95/152/14 
s 2
f 96/153/6 97/154/6 93/150/6 92/149/6 
s 1
f 98/155/10 99/156/10 100/157/10 101/158/11 97/154/11 96/153/10 102/159/11 103/160/11 
s 2
f 100/161/4 104/162/4 105/163/4 
s 1
f 90/164/9 105/165/9 104/166/9 
s 2
f 106/167/1 90/164/1 107/168/1 108/169/1 
s 1
f 109/170/15 110/171/12 111/172/15 112/173/12 108/169/12 107/168/12 113/174/12 114/175/12 
s 2
f 115/176/5 111/177/5 110/178/5 
s 4
f 94/179/2 97/180/2 101/181/2 
s 1
f 116/182/14 115/183/13 95/152/14 94/151/14 
s 32
f 89/139/5 81/138/5 117/184/5 
s 1
f 73/122/13 89/141/13 117/185/13 
s 8
f 78/143/4 69/142/4 72/186/4 
s 16
f 115/187/2 78/188/2 72/189/2 
f 110/190/2 78/188/2 115/187/2 
f 71/191/2 115/187/2 72/189/2 
f 71/191/2 95/192/2 115/187/2 
f 87/193/2 95/192/2 71/191/2 
f 87/193/2 91/194/2 95/192/2 
f 87/193/2 92/195/2 91/194/2 
f 84/196/7 92/195/7 87/193/7 
f 84/196/16 96/180/16 92/195/16 
f 83/197/2 96/180/2 84/196/2 
f 83/197/2 102/198/2 96/180/2 
f 83/197/2 103/199/2 102/198/2 
f 83/197/2 98/200/2 103/199/2 
f 82/201/2 98/200/2 83/197/2 
f 82/201/2 99/202/2 98/200/2 
f 89/146/2 99/202/2 82/201/2 
f 89/146/2 104/203/2 99/202/2 
f 110/190/2 79/204/2 78/188/2 
f 109/205/2 79/204/2 110/190/2 
f 114/206/2 79/204/2 109/205/2 
f 114/206/2 75/207/2 79/204/2 
f 113/208/2 75/207/2 114/206/2 
f 107/209/2 75/207/2 113/208/2 
f 107/209/16 76/147/16 75/207/16 
f 90/145/7 76/147/7 107/209/7 
f 89/146/2 90/145/7 104/203/2 
s 2
f 104/162/4 100/161/4 99/210/4 
s 1
f 105/165/9 90/164/9 106/167/9 
s 2
f 111/177/5 115/176/5 116/211/5 
s 4
f 112/212/2 106/145/2 108/209/2 
f 112/212/2 105/203/2 106/145/2 
f 112/212/2 100/202/2 105/203/2 
f 111/190/2 100/202/2 112/212/2 
f 116/187/2 100/202/2 111/190/2 
f 94/179/2 100/202/2 116/187/2 
f 94/179/2 101/181/2 100/202/2 
f 97/180/2 94/179/2 93/195/2 
s 2
f 118/33/1 119/34/1 120/35/1 121/36/1 
s 4
f 122/37/6 123/38/6 124/39/6 125/40/6 
s 16
f 121/213/5 120/214/5 124/215/5 
f 124/215/5 123/216/5 121/213/5 
s 2
f 126/45/1 127/46/1 128/47/1 129/48/1 
s 4
f 130/217/6 131/218/6 132/219/6 133/220/6 
s 8
f 126/221/2 129/222/2 131/223/2 
f 131/223/2 130/224/2 126/221/2 
s 16
f 129/225/5 128/226/5 132/227/5 
f 132/227/5 131/228/5 129/225/5 
s 32
f 128/229/3 127/230/3 133/231/3 
f 133/231/3 132/232/3 128/229/3 
s 2
f 134/1/1 135/2/1 136/3/1 137/4/1 
s 4
f 138/233/6 139/234/6 140/235/6 141/236/6 
s 8
f 134/237/2 137/238/2 139/239/2 
f 139/239/2 138/240/2 134/237/2 
s 32
f 136/241/3 135/242/3 141/243/3 
f 141/243/3 140/244/3 136/241/3 
s 64
f 135/245/4 134/246/4 138/247/4 
f 138/247/4 141/248/4 135/245/4 
s 2
f 142/61/1 143/62/1 144/63/1 145/64/1 
s 4
f 146/249/17 147/250/17 148/251/17 149/252/17 
s 8
f 142/253/4 145/254/4 147/255/4 
f 147/255/4 146/256/4 142/253/4 
s 16
f 145/257/7 144/258/7 148/259/7 
f 148/259/7 147/260/7 145/257/7 
s 32
f 144/261/5 143/262/5 149/263/5 
f 149/263/5 148/264/5 144/261/5 
s 2
f 150/106/1 151/107/1 152/108/1 153/109/1 
s 4
f 154/110/6 155/111/6 156/112/6 157/113/6 
s 16
f 153/265/5 152/266/7 156/267/7 
f 156/267/5 155/268/7 153/265/7 
s 2
f 158/91/1 159/92/1 160/77/1 161/93/1 
s 4
f 162/94/6 163/95/6 164/96/6 165/97/6 
s 64
f 159/269/8 158/270/8 162/271/8 
f 162/271/8 165/272/8 159/269/8 
s 1
f 166/96/6 167/273/6 168/274/6 169/95/6 
s 2
f 170/17/1 171/18/1 172/19/1 173/20/1 
s 4
f 174/275/17 175/276/17 176/277/17 177/278/17 
s 8
f 170/279/4 173/280/4 175/281/4 
f 175/281/4 174/282/4 170/279/4 
s 32
f 172/283/5 171/284/5 177/285/5 
f 177/285/5 176/286/5 172/283/5 
s 64
f 171/287/3 170/288/3 174/289/3 
f 174/289/3 177/290/3 171/287/3 
s 2
f 178/81/1 179/82/1 180/83/1 181/33/1 
s 4
f 182/84/6 183/37/6 184/85/6 185/86/6 
s 64
f 179/291/5 178/292/3 182/293/3 
f 182/293/5 185/294/3 179/291/3 
# 42 polygons - 114 triangles

