# 3ds Max Wavefront OBJ Exporter v0.97b - (c)2007 guruware
# File Created: 03.09.2020 22:20:29

mtllib trees.mtl

#
# object Plane406
#

v  -35.4598 -11.2422 62.5130
v  -35.4598 17.2747 62.5130
v  -51.8930 17.2747 64.4405
v  -51.8930 -11.2422 64.4405
# 4 vertices

vn 0.0607 0.0000 0.9982
# 1 vertex normals

vt 1.0000 0.0000 0.0000
vt 1.0000 1.0000 0.0000
vt 0.0000 1.0000 0.0000
vt 0.0000 0.0000 0.0000
# 4 texture coords

g Plane406
usemtl _tree_contryroadsdeftree
s 1
f 1/1/1 2/2/1 3/3/1 4/4/1 
# 1 polygons

#
# object Plane408
#

v  -12.8728 -11.2422 67.3446
v  -12.8728 17.2747 67.3446
v  -29.3060 17.2747 69.2720
v  -29.3060 -11.2422 69.2720
# 4 vertices

vn 0.0607 0.0000 0.9982
# 1 vertex normals

vt 1.0000 0.0000 0.0000
vt 1.0000 1.0000 0.0000
vt 0.0000 1.0000 0.0000
vt 0.0000 0.0000 0.0000
# 4 texture coords

g Plane408
usemtl _tree_contryroadsdeftree
s 1
f 5/5/2 6/6/2 7/7/2 8/8/2 
# 1 polygons

#
# object Plane410
#

v  8.1400 -11.2422 73.4513
v  8.1400 17.2747 73.4513
v  -8.2932 17.2747 75.3787
v  -8.2932 -11.2422 75.3787
# 4 vertices

vn 0.0607 0.0000 0.9982
# 1 vertex normals

vt 1.0000 0.0000 0.0000
vt 1.0000 1.0000 0.0000
vt 0.0000 1.0000 0.0000
vt 0.0000 0.0000 0.0000
# 4 texture coords

g Plane410
usemtl _tree_contryroadsdeftree
s 1
f 9/9/3 10/10/3 11/11/3 12/12/3 
# 1 polygons

#
# object Plane413
#

v  26.7476 -11.2422 63.5001
v  26.7476 17.2747 63.5001
v  28.7449 17.2747 79.9249
v  28.7449 -11.2422 79.9249
# 4 vertices

vn 0.9979 0.0000 -0.0649
# 1 vertex normals

vt 1.0000 0.0000 0.0000
vt 1.0000 1.0000 0.0000
vt 0.0000 1.0000 0.0000
vt 0.0000 0.0000 0.0000
# 4 texture coords

g Plane413
usemtl _tree_contryroadsdeftree
s 1
f 13/13/4 14/14/4 15/15/4 16/16/4 
# 1 polygons

#
# object Plane415
#

v  26.7476 -11.2422 43.5960
v  26.7476 17.2747 43.5960
v  28.7449 17.2747 60.0208
v  28.7449 -11.2422 60.0208
# 4 vertices

vn 0.9979 0.0000 -0.0649
# 1 vertex normals

vt 1.0000 0.0000 0.0000
vt 1.0000 1.0000 0.0000
vt 0.0000 1.0000 0.0000
vt 0.0000 0.0000 0.0000
# 4 texture coords

g Plane415
usemtl _tree_contryroadsdeftree
s 1
f 17/17/5 18/18/5 19/19/5 20/20/5 
# 1 polygons

#
# object Plane417
#

v  26.7476 -11.2422 23.9833
v  26.7476 17.2747 23.9833
v  28.7449 17.2747 40.4082
v  28.7449 -11.2422 40.4082
# 4 vertices

vn 0.9979 0.0000 -0.0649
# 1 vertex normals

vt 1.0000 0.0000 0.0000
vt 1.0000 1.0000 0.0000
vt 0.0000 1.0000 0.0000
vt 0.0000 0.0000 0.0000
# 4 texture coords

g Plane417
usemtl _tree_contryroadsdeftree
s 1
f 21/21/6 22/22/6 23/23/6 24/24/6 
# 1 polygons

#
# object Plane419
#

v  26.7476 -11.2422 2.4321
v  26.7476 17.2747 2.4321
v  28.7449 17.2747 18.8569
v  28.7449 -11.2422 18.8569
# 4 vertices

vn 0.9979 0.0000 -0.0649
# 1 vertex normals

vt 1.0000 0.0000 0.0000
vt 1.0000 1.0000 0.0000
vt 0.0000 1.0000 0.0000
vt 0.0000 0.0000 0.0000
# 4 texture coords

g Plane419
usemtl _tree_contryroadsdeftree
s 1
f 25/25/7 26/26/7 27/27/7 28/28/7 
# 1 polygons

#
# object Plane421
#

v  28.8276 -11.2422 -36.6676
v  28.8276 17.2747 -36.6676
v  30.8249 17.2747 -20.2427
v  30.8249 -11.2422 -20.2427
# 4 vertices

vn 0.9979 0.0000 -0.0649
# 1 vertex normals

vt 1.0000 0.0000 0.0000
vt 1.0000 1.0000 0.0000
vt 0.0000 1.0000 0.0000
vt 0.0000 0.0000 0.0000
# 4 texture coords

g Plane421
usemtl _tree_contryroadsdeftree
s 1
f 29/29/8 30/30/8 31/31/8 32/32/8 
# 1 polygons

#
# object Plane423
#

v  28.8276 -11.2422 -56.2802
v  28.8276 17.2747 -56.2802
v  30.8249 17.2747 -39.8554
v  30.8249 -11.2422 -39.8554
# 4 vertices

vn 0.9979 0.0000 -0.0649
# 1 vertex normals

vt 1.0000 0.0000 0.0000
vt 1.0000 1.0000 0.0000
vt 0.0000 1.0000 0.0000
vt 0.0000 0.0000 0.0000
# 4 texture coords

g Plane423
usemtl _tree_contryroadsdeftree
s 1
f 33/33/9 34/34/9 35/35/9 36/36/9 
# 1 polygons

#
# object Plane425
#

v  20.8310 -11.2422 -72.0638
v  20.8310 17.2747 -72.0638
v  22.8283 17.2747 -55.6389
v  22.8283 -11.2422 -55.6389
# 4 vertices

vn 0.9979 0.0000 -0.0649
# 1 vertex normals

vt 1.0000 0.0000 0.0000
vt 1.0000 1.0000 0.0000
vt 0.0000 1.0000 0.0000
vt 0.0000 0.0000 0.0000
# 4 texture coords

g Plane425
usemtl _tree_contryroadsdeftree
s 1
f 37/37/10 38/38/10 39/39/10 40/40/10 
# 1 polygons

#
# object Plane427
#

v  28.8276 -11.2422 -16.7635
v  28.8276 17.2747 -16.7635
v  30.8249 17.2747 -0.3386
v  30.8249 -11.2422 -0.3386
# 4 vertices

vn 0.9979 0.0000 -0.0649
# 1 vertex normals

vt 1.0000 0.0000 0.0000
vt 1.0000 1.0000 0.0000
vt 0.0000 1.0000 0.0000
vt 0.0000 0.0000 0.0000
# 4 texture coords

g Plane427
usemtl _tree_contryroadsdeftree
s 1
f 41/41/11 42/42/11 43/43/11 44/44/11 
# 1 polygons

#
# object Plane428
#

v  -53.8664 -19.5029 29.8396
v  -53.8664 24.1886 29.8396
v  -54.2039 24.1886 55.1876
v  -54.2039 -19.5029 55.1876
# 4 vertices

vn 0.9976 0.0000 0.0693
# 1 vertex normals

vt 1.0000 0.0000 0.0000
vt 1.0000 1.0000 0.0000
vt 0.0000 1.0000 0.0000
vt 0.0000 0.0000 0.0000
# 4 texture coords

g Plane428
usemtl _tree_contryroadsdeftree
s 1
f 45/45/12 46/46/12 47/47/12 48/48/12 
# 1 polygons

#
# object Plane429
#

v  -53.8664 -19.5029 -3.1808
v  -53.8664 24.1886 -3.1808
v  -54.2039 24.1886 22.1672
v  -54.2039 -19.5029 22.1672
# 4 vertices

vn 0.9976 0.0000 0.0693
# 1 vertex normals

vt 1.0000 0.0000 0.0000
vt 1.0000 1.0000 0.0000
vt 0.0000 1.0000 0.0000
vt 0.0000 0.0000 0.0000
# 4 texture coords

g Plane429
usemtl _tree_contryroadsdeftree
s 1
f 49/49/13 50/50/13 51/51/13 52/52/13 
# 1 polygons

#
# object Plane431
#

v  -53.8664 -19.5029 -42.2005
v  -53.8664 24.1886 -42.2005
v  -54.2039 24.1886 -16.8525
v  -54.2039 -19.5029 -16.8525
# 4 vertices

vn 0.9976 0.0000 0.0693
# 1 vertex normals

vt 1.0000 0.0000 0.0000
vt 1.0000 1.0000 0.0000
vt 0.0000 1.0000 0.0000
vt 0.0000 0.0000 0.0000
# 4 texture coords

g Plane431
usemtl _tree_contryroadsdeftree
s 1
f 53/53/14 54/54/14 55/55/14 56/56/14 
# 1 polygons

#
# object Plane433
#

v  -15.9466 -19.5029 -78.7813
v  -15.9466 24.1886 -78.7813
v  -41.2969 24.1886 -78.7525
v  -41.2969 -19.5029 -78.7525
# 4 vertices

vn -0.0549 0.0000 0.9985
# 1 vertex normals

vt 1.0000 0.0000 0.0000
vt 1.0000 1.0000 0.0000
vt 0.0000 1.0000 0.0000
vt 0.0000 0.0000 0.0000
# 4 texture coords

g Plane433
usemtl _tree_contryroadsdeftree
s 1
f 57/57/15 58/58/15 59/59/15 60/60/15 
# 1 polygons

#
# object Plane434
#

v  -53.8664 -19.5029 -78.4849
v  -53.8664 24.1886 -78.4849
v  -54.2039 24.1886 -53.1369
v  -54.2039 -19.5029 -53.1369
# 4 vertices

vn 0.9976 0.0000 0.0693
# 1 vertex normals

vt 1.0000 0.0000 0.0000
vt 1.0000 1.0000 0.0000
vt 0.0000 1.0000 0.0000
vt 0.0000 0.0000 0.0000
# 4 texture coords

g Plane434
usemtl _tree_contryroadsdeftree
s 1
f 61/61/16 62/62/16 63/63/16 64/64/16 
# 1 polygons

#
# object Plane436
#

v  -34.1728 -19.5029 -80.5213
v  -34.1728 24.1886 -80.5213
v  -59.5231 24.1886 -80.4925
v  -59.5231 -19.5029 -80.4925
# 4 vertices

vn -0.0549 0.0000 0.9985
# 1 vertex normals

vt 1.0000 0.0000 0.0000
vt 1.0000 1.0000 0.0000
vt 0.0000 1.0000 0.0000
vt 0.0000 0.0000 0.0000
# 4 texture coords

g Plane436
usemtl _tree_contryroadsdeftree
s 1
f 65/65/17 66/66/17 67/67/17 68/68/17 
# 1 polygons

#
# object Plane437
#

v  0.2105 -19.5029 -80.5213
v  0.2105 24.1886 -80.5213
v  -25.1398 24.1886 -80.4925
v  -25.1398 -19.5029 -80.4925
# 4 vertices

vn -0.0549 0.0000 0.9985
# 1 vertex normals

vt 1.0000 0.0000 0.0000
vt 1.0000 1.0000 0.0000
vt 0.0000 1.0000 0.0000
vt 0.0000 0.0000 0.0000
# 4 texture coords

g Plane437
usemtl _tree_contryroadsdeftree
s 1
f 69/69/18 70/70/18 71/71/18 72/72/18 
# 1 polygons

#
# object Plane438
#

v  18.4366 -19.5029 -78.7813
v  18.4366 24.1886 -78.7813
v  -6.9137 24.1886 -78.7525
v  -6.9137 -19.5029 -78.7525
# 4 vertices

vn -0.0549 0.0000 0.9985
# 1 vertex normals

vt 1.0000 0.0000 0.0000
vt 1.0000 1.0000 0.0000
vt 0.0000 1.0000 0.0000
vt 0.0000 0.0000 0.0000
# 4 texture coords

g Plane438
usemtl _tree_contryroadsdeftree
s 1
f 73/73/19 74/74/19 75/75/19 76/76/19 
# 1 polygons

#
# object Plane439
#

v  37.3217 -19.5029 -80.5213
v  37.3217 24.1886 -80.5213
v  11.9714 24.1886 -80.4925
v  11.9714 -19.5029 -80.4925
# 4 vertices

vn -0.0549 0.0000 0.9985
# 1 vertex normals

vt 1.0000 0.0000 0.0000
vt 1.0000 1.0000 0.0000
vt 0.0000 1.0000 0.0000
vt 0.0000 0.0000 0.0000
# 4 texture coords

g Plane439
usemtl _tree_contryroadsdeftree
s 1
f 77/77/20 78/78/20 79/79/20 80/80/20 
# 1 polygons

#
# object Plane440
#

v  55.5478 -19.5029 -78.7813
v  55.5478 24.1886 -78.7813
v  30.1975 24.1886 -78.7525
v  30.1975 -19.5029 -78.7525
# 4 vertices

vn -0.0549 0.0000 0.9985
# 1 vertex normals

vt 1.0000 0.0000 0.0000
vt 1.0000 1.0000 0.0000
vt 0.0000 1.0000 0.0000
vt 0.0000 0.0000 0.0000
# 4 texture coords

g Plane440
usemtl _tree_contryroadsdeftree
s 1
f 81/81/21 82/82/21 83/83/21 84/84/21 
# 1 polygons

#
# object Plane442
#

v  -24.4791 -11.2422 68.5437
v  -24.4791 17.2747 68.5437
v  -40.1230 17.2747 63.1553
v  -40.1230 -11.2422 63.1553
# 4 vertices

vn -0.3781 0.0000 0.9258
# 1 vertex normals

vt 1.0000 0.0000 0.0000
vt 1.0000 1.0000 0.0000
vt 0.0000 1.0000 0.0000
vt 0.0000 0.0000 0.0000
# 4 texture coords

g Plane442
usemtl _tree_contryroadsdeftree
s 1
f 85/85/22 86/86/22 87/87/22 88/88/22 
# 1 polygons

#
# object Plane443
#

v  -2.6522 -11.2422 73.9473
v  -2.6522 17.2747 73.9473
v  -18.2961 17.2747 68.5589
v  -18.2961 -11.2422 68.5589
# 4 vertices

vn -0.3781 0.0000 0.9258
# 1 vertex normals

vt 1.0000 0.0000 0.0000
vt 1.0000 1.0000 0.0000
vt 0.0000 1.0000 0.0000
vt 0.0000 0.0000 0.0000
# 4 texture coords

g Plane443
usemtl _tree_contryroadsdeftree
s 1
f 89/89/23 90/90/23 91/91/23 92/92/23 
# 1 polygons

#
# object Plane447
#

v  32.0099 -11.2422 84.5439
v  32.0099 17.2747 84.5439
v  15.5767 17.2747 86.4714
v  15.5767 -11.2422 86.4714
# 4 vertices

vn 0.0607 0.0000 0.9982
# 1 vertex normals

vt 1.0000 0.0000 0.0000
vt 1.0000 1.0000 0.0000
vt 0.0000 1.0000 0.0000
vt 0.0000 0.0000 0.0000
# 4 texture coords

g Plane447
usemtl _tree_contryroadsdeftree
s 1
f 93/93/24 94/94/24 95/95/24 96/96/24 
# 1 polygons

#
# object Line001
#

v  -50.8278 4.4432 -77.5446
v  19.2012 4.4432 -77.7634
v  19.2012 -0.1446 -77.7634
v  -50.8278 -0.1446 -77.5446
v  21.8272 4.4432 -55.0040
v  21.8272 -0.1446 -55.0040
v  27.9548 4.4432 -55.8794
v  27.9548 -0.1446 -55.8794
v  27.9548 4.4432 -15.6128
v  27.9548 -0.1446 -15.6128
v  26.4229 4.4432 4.3017
v  26.4229 -0.1446 4.3017
v  26.2041 4.4432 25.5292
v  26.2041 -0.1446 25.5292
v  26.4229 4.4432 58.1364
v  26.4229 -0.1446 58.1364
v  14.6055 4.4432 71.9233
v  14.6055 -0.1446 71.9233
v  -32.0075 4.4432 60.7625
v  -32.0075 -0.1446 60.7625
v  -52.5785 4.4432 59.6683
v  -52.5785 -0.1446 59.6683
v  -52.1409 4.4432 -48.8766
v  -52.1409 -0.1446 -48.8766
# 24 vertices

vn -0.6919 0.0000 -0.7220
vn 0.6642 0.0000 -0.7476
vn 0.6108 0.0000 -0.7918
vn 0.6552 0.0000 -0.7555
vn 0.9993 0.0000 0.0384
vn 0.9991 0.0000 0.0435
vn 1.0000 0.0000 0.0018
vn 0.9390 0.0000 0.3438
vn 0.3085 0.0000 0.9512
vn -0.1436 0.0000 0.9896
vn -0.7270 0.0000 0.6866
vn -0.9997 0.0000 -0.0249
# 12 vertex normals

vt 25.1511 1.0000 0.9985
vt 2.7946 1.0000 1.0000
vt 2.7946 -0.0000 1.0000
vt 25.1511 -0.0000 0.9985
vt 25.7100 1.0000 0.8913
vt 21.8009 1.0000 0.9239
vt 21.8009 -0.0000 0.9239
vt 25.7100 -0.0000 0.8913
vt 1.9562 1.0000 0.8480
vt 0.0000 1.0000 0.8538
vt 0.0000 -0.0000 0.8538
vt 1.9562 -0.0000 0.8480
vt 21.9512 1.0000 1.0000
vt 15.0351 1.0000 1.0000
vt 15.0351 -0.0000 1.0000
vt 21.9512 -0.0000 1.0000
vt 11.6146 1.0000 0.9810
vt 11.6146 -0.0000 0.9810
vt 7.9686 1.0000 0.9783
vt 7.9686 -0.0000 0.9783
vt 2.3680 1.0000 0.9810
vt 2.3680 -0.0000 0.9810
vt 0.0000 1.0000 0.8342
vt 0.0000 -0.0000 0.8342
vt 21.4483 1.0000 0.0000
vt 6.5672 1.0000 0.0746
vt 6.5672 -0.0000 0.0746
vt 21.4483 -0.0000 0.0000
vt 0.0000 1.0000 0.0819
vt 0.0000 -0.0000 0.0819
vt 23.6051 1.0000 0.0000
vt 4.9616 1.0000 0.0054
vt 4.9616 -0.0000 0.0054
vt 23.6051 -0.0000 0.0000
vt 0.0376 1.0000 0.0217
vt 0.0376 -0.0000 0.0217
# 36 texture coords

g Line001
usemtl Material__215
s 2049
f 97/97/25 98/98/26 99/99/26 100/100/25 
s 2056
f 98/101/26 101/102/27 102/103/27 99/104/26 
s 2049
f 101/105/27 103/106/28 104/107/28 102/108/27 
s 2056
f 103/109/28 105/110/29 106/111/29 104/112/28 
s 2049
f 105/110/29 107/113/30 108/114/30 106/111/29 
s 2056
f 107/113/30 109/115/31 110/116/31 108/114/30 
s 2049
f 109/115/31 111/117/32 112/118/32 110/116/31 
s 2056
f 111/117/32 113/119/33 114/120/33 112/118/32 
s 2049
f 113/121/33 115/122/34 116/123/34 114/124/33 
s 2056
f 115/122/34 117/125/35 118/126/35 116/123/34 
s 2049
f 117/127/35 119/128/36 120/129/36 118/130/35 
s 2056
f 119/128/36 97/131/25 100/132/25 120/129/36 
# 12 polygons

