# 3ds Max Wavefront OBJ Exporter v0.97b - (c)2007 guruware
# File Created: 03.09.2020 21:52:56

mtllib trees.mtl

#
# object Plane398
#

v  -61.6279 -11.2422 40.4019
v  -61.6279 17.2747 40.4019
v  -59.6306 17.2747 56.8267
v  -59.6306 -11.2422 56.8267
# 4 vertices

vn 0.9979 0.0000 -0.0649
# 1 vertex normals

vt 1.0000 0.0000 0.0000
vt 1.0000 1.0000 0.0000
vt 0.0000 1.0000 0.0000
vt 0.0000 0.0000 0.0000
# 4 texture coords

g Plane398
usemtl _tree_contryroadsdeftree
s 1
f 1/1/1 2/2/1 3/3/1 4/4/1 
# 1 polygons

#
# object Plane399
#

v  -52.1449 -11.2422 47.4592
v  -52.1449 17.2747 47.4592
v  -68.5781 17.2747 49.3867
v  -68.5781 -11.2422 49.3867
# 4 vertices

vn 0.0607 0.0000 0.9982
# 1 vertex normals

vt 1.0000 0.0000 0.0000
vt 1.0000 1.0000 0.0000
vt 0.0000 1.0000 0.0000
vt 0.0000 0.0000 0.0000
# 4 texture coords

g Plane399
usemtl _tree_contryroadsdeftree
s 1
f 5/5/2 6/6/2 7/7/2 8/8/2 
# 1 polygons

#
# object Plane400
#

v  -49.9895 -11.2422 34.1192
v  -49.9895 17.2747 34.1192
v  -66.4227 17.2747 36.0467
v  -66.4227 -11.2422 36.0467
# 4 vertices

vn 0.0607 0.0000 0.9982
# 1 vertex normals

vt 1.0000 0.0000 0.0000
vt 1.0000 1.0000 0.0000
vt 0.0000 1.0000 0.0000
vt 0.0000 0.0000 0.0000
# 4 texture coords

g Plane400
usemtl _tree_contryroadsdeftree
s 1
f 9/9/3 10/10/3 11/11/3 12/12/3 
# 1 polygons

#
# object Plane401
#

v  -59.4725 -11.2422 27.0619
v  -59.4725 17.2747 27.0619
v  -57.4752 17.2747 43.4867
v  -57.4752 -11.2422 43.4867
# 4 vertices

vn 0.9979 0.0000 -0.0649
# 1 vertex normals

vt 1.0000 0.0000 0.0000
vt 1.0000 1.0000 0.0000
vt 0.0000 1.0000 0.0000
vt 0.0000 0.0000 0.0000
# 4 texture coords

g Plane401
usemtl _tree_contryroadsdeftree
s 1
f 13/13/4 14/14/4 15/15/4 16/16/4 
# 1 polygons

#
# object Plane402
#

v  -48.4548 -11.2422 21.2638
v  -48.4548 17.2747 21.2638
v  -64.8880 17.2747 23.1913
v  -64.8880 -11.2422 23.1913
# 4 vertices

vn 0.0607 0.0000 0.9982
# 1 vertex normals

vt 1.0000 0.0000 0.0000
vt 1.0000 1.0000 0.0000
vt 0.0000 1.0000 0.0000
vt 0.0000 0.0000 0.0000
# 4 texture coords

g Plane402
usemtl _tree_contryroadsdeftree
s 1
f 17/17/5 18/18/5 19/19/5 20/20/5 
# 1 polygons

#
# object Plane403
#

v  -57.9378 -11.2422 14.2064
v  -57.9378 17.2747 14.2064
v  -55.9405 17.2747 30.6313
v  -55.9405 -11.2422 30.6313
# 4 vertices

vn 0.9979 0.0000 -0.0649
# 1 vertex normals

vt 1.0000 0.0000 0.0000
vt 1.0000 1.0000 0.0000
vt 0.0000 1.0000 0.0000
vt 0.0000 0.0000 0.0000
# 4 texture coords

g Plane403
usemtl _tree_contryroadsdeftree
s 1
f 21/21/6 22/22/6 23/23/6 24/24/6 
# 1 polygons

#
# object Plane404
#

v  -46.9245 -11.2422 7.0157
v  -46.9245 17.2747 7.0157
v  -63.3577 17.2747 8.9432
v  -63.3577 -11.2422 8.9432
# 4 vertices

vn 0.0607 0.0000 0.9982
# 1 vertex normals

vt 1.0000 0.0000 0.0000
vt 1.0000 1.0000 0.0000
vt 0.0000 1.0000 0.0000
vt 0.0000 0.0000 0.0000
# 4 texture coords

g Plane404
usemtl _tree_contryroadsdeftree
s 1
f 25/25/7 26/26/7 27/27/7 28/28/7 
# 1 polygons

#
# object Plane405
#

v  -56.4075 -11.2422 -0.0416
v  -56.4075 17.2747 -0.0416
v  -54.4102 17.2747 16.3832
v  -54.4102 -11.2422 16.3832
# 4 vertices

vn 0.9979 0.0000 -0.0649
# 1 vertex normals

vt 1.0000 0.0000 0.0000
vt 1.0000 1.0000 0.0000
vt 0.0000 1.0000 0.0000
vt 0.0000 0.0000 0.0000
# 4 texture coords

g Plane405
usemtl _tree_contryroadsdeftree
s 1
f 29/29/8 30/30/8 31/31/8 32/32/8 
# 1 polygons

#
# object Plane406
#

v  -35.4598 -11.2422 62.5130
v  -35.4598 17.2747 62.5130
v  -51.8930 17.2747 64.4405
v  -51.8930 -11.2422 64.4405
# 4 vertices

vn 0.0607 0.0000 0.9982
# 1 vertex normals

vt 1.0000 0.0000 0.0000
vt 1.0000 1.0000 0.0000
vt 0.0000 1.0000 0.0000
vt 0.0000 0.0000 0.0000
# 4 texture coords

g Plane406
usemtl _tree_contryroadsdeftree
s 1
f 33/33/9 34/34/9 35/35/9 36/36/9 
# 1 polygons

#
# object Plane407
#

v  -44.9428 -11.2422 55.4557
v  -44.9428 17.2747 55.4557
v  -42.9455 17.2747 71.8805
v  -42.9455 -11.2422 71.8805
# 4 vertices

vn 0.9979 0.0000 -0.0649
# 1 vertex normals

vt 1.0000 0.0000 0.0000
vt 1.0000 1.0000 0.0000
vt 0.0000 1.0000 0.0000
vt 0.0000 0.0000 0.0000
# 4 texture coords

g Plane407
usemtl _tree_contryroadsdeftree
s 1
f 37/37/10 38/38/10 39/39/10 40/40/10 
# 1 polygons

#
# object Plane408
#

v  -12.8728 -11.2422 67.3446
v  -12.8728 17.2747 67.3446
v  -29.3060 17.2747 69.2720
v  -29.3060 -11.2422 69.2720
# 4 vertices

vn 0.0607 0.0000 0.9982
# 1 vertex normals

vt 1.0000 0.0000 0.0000
vt 1.0000 1.0000 0.0000
vt 0.0000 1.0000 0.0000
vt 0.0000 0.0000 0.0000
# 4 texture coords

g Plane408
usemtl _tree_contryroadsdeftree
s 1
f 41/41/11 42/42/11 43/43/11 44/44/11 
# 1 polygons

#
# object Plane409
#

v  -22.3558 -11.2422 60.2872
v  -22.3558 17.2747 60.2872
v  -20.3584 17.2747 76.7121
v  -20.3584 -11.2422 76.7121
# 4 vertices

vn 0.9979 0.0000 -0.0649
# 1 vertex normals

vt 1.0000 0.0000 0.0000
vt 1.0000 1.0000 0.0000
vt 0.0000 1.0000 0.0000
vt 0.0000 0.0000 0.0000
# 4 texture coords

g Plane409
usemtl _tree_contryroadsdeftree
s 1
f 45/45/12 46/46/12 47/47/12 48/48/12 
# 1 polygons

#
# object Plane410
#

v  8.1400 -11.2422 73.4513
v  8.1400 17.2747 73.4513
v  -8.2932 17.2747 75.3787
v  -8.2932 -11.2422 75.3787
# 4 vertices

vn 0.0607 0.0000 0.9982
# 1 vertex normals

vt 1.0000 0.0000 0.0000
vt 1.0000 1.0000 0.0000
vt 0.0000 1.0000 0.0000
vt 0.0000 0.0000 0.0000
# 4 texture coords

g Plane410
usemtl _tree_contryroadsdeftree
s 1
f 49/49/13 50/50/13 51/51/13 52/52/13 
# 1 polygons

#
# object Plane411
#

v  -1.3430 -11.2422 66.3939
v  -1.3430 17.2747 66.3939
v  0.6543 17.2747 82.8187
v  0.6543 -11.2422 82.8187
# 4 vertices

vn 0.9979 0.0000 -0.0649
# 1 vertex normals

vt 1.0000 0.0000 0.0000
vt 1.0000 1.0000 0.0000
vt 0.0000 1.0000 0.0000
vt 0.0000 0.0000 0.0000
# 4 texture coords

g Plane411
usemtl _tree_contryroadsdeftree
s 1
f 53/53/14 54/54/14 55/55/14 56/56/14 
# 1 polygons

#
# object Plane412
#

v  36.2306 -11.2422 70.5575
v  36.2306 17.2747 70.5575
v  19.7974 17.2747 72.4849
v  19.7974 -11.2422 72.4849
# 4 vertices

vn 0.0607 0.0000 0.9982
# 1 vertex normals

vt 1.0000 0.0000 0.0000
vt 1.0000 1.0000 0.0000
vt 0.0000 1.0000 0.0000
vt 0.0000 0.0000 0.0000
# 4 texture coords

g Plane412
usemtl _tree_contryroadsdeftree
s 1
f 57/57/15 58/58/15 59/59/15 60/60/15 
# 1 polygons

#
# object Plane413
#

v  26.7476 -11.2422 63.5001
v  26.7476 17.2747 63.5001
v  28.7449 17.2747 79.9249
v  28.7449 -11.2422 79.9249
# 4 vertices

vn 0.9979 0.0000 -0.0649
# 1 vertex normals

vt 1.0000 0.0000 0.0000
vt 1.0000 1.0000 0.0000
vt 0.0000 1.0000 0.0000
vt 0.0000 0.0000 0.0000
# 4 texture coords

g Plane413
usemtl _tree_contryroadsdeftree
s 1
f 61/61/16 62/62/16 63/63/16 64/64/16 
# 1 polygons

#
# object Plane414
#

v  36.2306 -11.2422 50.6533
v  36.2306 17.2747 50.6533
v  19.7974 17.2747 52.5808
v  19.7974 -11.2422 52.5808
# 4 vertices

vn 0.0607 0.0000 0.9982
# 1 vertex normals

vt 1.0000 0.0000 0.0000
vt 1.0000 1.0000 0.0000
vt 0.0000 1.0000 0.0000
vt 0.0000 0.0000 0.0000
# 4 texture coords

g Plane414
usemtl _tree_contryroadsdeftree
s 1
f 65/65/17 66/66/17 67/67/17 68/68/17 
# 1 polygons

#
# object Plane415
#

v  26.7476 -11.2422 43.5960
v  26.7476 17.2747 43.5960
v  28.7449 17.2747 60.0208
v  28.7449 -11.2422 60.0208
# 4 vertices

vn 0.9979 0.0000 -0.0649
# 1 vertex normals

vt 1.0000 0.0000 0.0000
vt 1.0000 1.0000 0.0000
vt 0.0000 1.0000 0.0000
vt 0.0000 0.0000 0.0000
# 4 texture coords

g Plane415
usemtl _tree_contryroadsdeftree
s 1
f 69/69/18 70/70/18 71/71/18 72/72/18 
# 1 polygons

#
# object Plane416
#

v  36.2306 -11.2422 31.0407
v  36.2306 17.2747 31.0407
v  19.7974 17.2747 32.9682
v  19.7974 -11.2422 32.9682
# 4 vertices

vn 0.0607 0.0000 0.9982
# 1 vertex normals

vt 1.0000 0.0000 0.0000
vt 1.0000 1.0000 0.0000
vt 0.0000 1.0000 0.0000
vt 0.0000 0.0000 0.0000
# 4 texture coords

g Plane416
usemtl _tree_contryroadsdeftree
s 1
f 73/73/19 74/74/19 75/75/19 76/76/19 
# 1 polygons

#
# object Plane417
#

v  26.7476 -11.2422 23.9833
v  26.7476 17.2747 23.9833
v  28.7449 17.2747 40.4082
v  28.7449 -11.2422 40.4082
# 4 vertices

vn 0.9979 0.0000 -0.0649
# 1 vertex normals

vt 1.0000 0.0000 0.0000
vt 1.0000 1.0000 0.0000
vt 0.0000 1.0000 0.0000
vt 0.0000 0.0000 0.0000
# 4 texture coords

g Plane417
usemtl _tree_contryroadsdeftree
s 1
f 77/77/20 78/78/20 79/79/20 80/80/20 
# 1 polygons

#
# object Plane418
#

v  36.2306 -11.2422 9.4895
v  36.2306 17.2747 9.4895
v  19.7974 17.2747 11.4169
v  19.7974 -11.2422 11.4169
# 4 vertices

vn 0.0607 0.0000 0.9982
# 1 vertex normals

vt 1.0000 0.0000 0.0000
vt 1.0000 1.0000 0.0000
vt 0.0000 1.0000 0.0000
vt 0.0000 0.0000 0.0000
# 4 texture coords

g Plane418
usemtl _tree_contryroadsdeftree
s 1
f 81/81/21 82/82/21 83/83/21 84/84/21 
# 1 polygons

#
# object Plane419
#

v  26.7476 -11.2422 2.4321
v  26.7476 17.2747 2.4321
v  28.7449 17.2747 18.8569
v  28.7449 -11.2422 18.8569
# 4 vertices

vn 0.9979 0.0000 -0.0649
# 1 vertex normals

vt 1.0000 0.0000 0.0000
vt 1.0000 1.0000 0.0000
vt 0.0000 1.0000 0.0000
vt 0.0000 0.0000 0.0000
# 4 texture coords

g Plane419
usemtl _tree_contryroadsdeftree
s 1
f 85/85/22 86/86/22 87/87/22 88/88/22 
# 1 polygons

#
# object Plane420
#

v  38.3106 -11.2422 -29.6102
v  38.3106 17.2747 -29.6102
v  21.8774 17.2747 -27.6828
v  21.8774 -11.2422 -27.6828
# 4 vertices

vn 0.0607 0.0000 0.9982
# 1 vertex normals

vt 1.0000 0.0000 0.0000
vt 1.0000 1.0000 0.0000
vt 0.0000 1.0000 0.0000
vt 0.0000 0.0000 0.0000
# 4 texture coords

g Plane420
usemtl _tree_contryroadsdeftree
s 1
f 89/89/23 90/90/23 91/91/23 92/92/23 
# 1 polygons

#
# object Plane421
#

v  28.8276 -11.2422 -36.6676
v  28.8276 17.2747 -36.6676
v  30.8249 17.2747 -20.2427
v  30.8249 -11.2422 -20.2427
# 4 vertices

vn 0.9979 0.0000 -0.0649
# 1 vertex normals

vt 1.0000 0.0000 0.0000
vt 1.0000 1.0000 0.0000
vt 0.0000 1.0000 0.0000
vt 0.0000 0.0000 0.0000
# 4 texture coords

g Plane421
usemtl _tree_contryroadsdeftree
s 1
f 93/93/24 94/94/24 95/95/24 96/96/24 
# 1 polygons

#
# object Plane422
#

v  30.3139 -11.2422 -65.0064
v  30.3139 17.2747 -65.0064
v  13.8808 17.2747 -63.0790
v  13.8808 -11.2422 -63.0790
# 4 vertices

vn 0.0607 0.0000 0.9982
# 1 vertex normals

vt 1.0000 0.0000 0.0000
vt 1.0000 1.0000 0.0000
vt 0.0000 1.0000 0.0000
vt 0.0000 0.0000 0.0000
# 4 texture coords

g Plane422
usemtl _tree_contryroadsdeftree
s 1
f 97/97/25 98/98/25 99/99/25 100/100/25 
# 1 polygons

#
# object Plane423
#

v  28.8276 -11.2422 -56.2802
v  28.8276 17.2747 -56.2802
v  30.8249 17.2747 -39.8554
v  30.8249 -11.2422 -39.8554
# 4 vertices

vn 0.9979 0.0000 -0.0649
# 1 vertex normals

vt 1.0000 0.0000 0.0000
vt 1.0000 1.0000 0.0000
vt 0.0000 1.0000 0.0000
vt 0.0000 0.0000 0.0000
# 4 texture coords

g Plane423
usemtl _tree_contryroadsdeftree
s 1
f 101/101/26 102/102/26 103/103/26 104/104/26 
# 1 polygons

#
# object Plane424
#

v  38.3106 -11.2422 -49.2228
v  38.3106 17.2747 -49.2228
v  21.8774 17.2747 -47.2954
v  21.8774 -11.2422 -47.2954
# 4 vertices

vn 0.0607 0.0000 0.9982
# 1 vertex normals

vt 1.0000 0.0000 0.0000
vt 1.0000 1.0000 0.0000
vt 0.0000 1.0000 0.0000
vt 0.0000 0.0000 0.0000
# 4 texture coords

g Plane424
usemtl _tree_contryroadsdeftree
s 1
f 105/105/27 106/106/27 107/107/27 108/108/27 
# 1 polygons

#
# object Plane425
#

v  20.8310 -11.2422 -72.0638
v  20.8310 17.2747 -72.0638
v  22.8283 17.2747 -55.6389
v  22.8283 -11.2422 -55.6389
# 4 vertices

vn 0.9979 0.0000 -0.0649
# 1 vertex normals

vt 1.0000 0.0000 0.0000
vt 1.0000 1.0000 0.0000
vt 0.0000 1.0000 0.0000
vt 0.0000 0.0000 0.0000
# 4 texture coords

g Plane425
usemtl _tree_contryroadsdeftree
s 1
f 109/109/28 110/110/28 111/111/28 112/112/28 
# 1 polygons

#
# object Plane426
#

v  38.3106 -11.2422 -9.7061
v  38.3106 17.2747 -9.7061
v  21.8774 17.2747 -7.7786
v  21.8774 -11.2422 -7.7786
# 4 vertices

vn 0.0607 0.0000 0.9982
# 1 vertex normals

vt 1.0000 0.0000 0.0000
vt 1.0000 1.0000 0.0000
vt 0.0000 1.0000 0.0000
vt 0.0000 0.0000 0.0000
# 4 texture coords

g Plane426
usemtl _tree_contryroadsdeftree
s 1
f 113/113/29 114/114/29 115/115/29 116/116/29 
# 1 polygons

#
# object Plane427
#

v  28.8276 -11.2422 -16.7635
v  28.8276 17.2747 -16.7635
v  30.8249 17.2747 -0.3386
v  30.8249 -11.2422 -0.3386
# 4 vertices

vn 0.9979 0.0000 -0.0649
# 1 vertex normals

vt 1.0000 0.0000 0.0000
vt 1.0000 1.0000 0.0000
vt 0.0000 1.0000 0.0000
vt 0.0000 0.0000 0.0000
# 4 texture coords

g Plane427
usemtl _tree_contryroadsdeftree
s 1
f 117/117/30 118/118/30 119/119/30 120/120/30 
# 1 polygons

#
# object Plane428
#

v  -54.1979 -11.2422 -13.9925
v  -54.1979 17.2747 -13.9925
v  -52.2006 17.2747 2.4324
v  -52.2006 -11.2422 2.4324
# 4 vertices

vn 0.9979 0.0000 -0.0649
# 1 vertex normals

vt 1.0000 0.0000 0.0000
vt 1.0000 1.0000 0.0000
vt 0.0000 1.0000 0.0000
vt 0.0000 0.0000 0.0000
# 4 texture coords

g Plane428
usemtl _tree_contryroadsdeftree
s 1
f 121/121/31 122/122/31 123/123/31 124/124/31 
# 1 polygons

#
# object Plane429
#

v  -44.7149 -11.2422 -6.9351
v  -44.7149 17.2747 -6.9351
v  -61.1481 17.2747 -5.0076
v  -61.1481 -11.2422 -5.0076
# 4 vertices

vn 0.0607 0.0000 0.9982
# 1 vertex normals

vt 1.0000 0.0000 0.0000
vt 1.0000 1.0000 0.0000
vt 0.0000 1.0000 0.0000
vt 0.0000 0.0000 0.0000
# 4 texture coords

g Plane429
usemtl _tree_contryroadsdeftree
s 1
f 125/125/32 126/126/32 127/127/32 128/128/32 
# 1 polygons

#
# object Plane430
#

v  -52.0425 -11.2422 -27.3324
v  -52.0425 17.2747 -27.3324
v  -50.0451 17.2747 -10.9076
v  -50.0451 -11.2422 -10.9076
# 4 vertices

vn 0.9979 0.0000 -0.0649
# 1 vertex normals

vt 1.0000 0.0000 0.0000
vt 1.0000 1.0000 0.0000
vt 0.0000 1.0000 0.0000
vt 0.0000 0.0000 0.0000
# 4 texture coords

g Plane430
usemtl _tree_contryroadsdeftree
s 1
f 129/129/33 130/130/33 131/131/33 132/132/33 
# 1 polygons

#
# object Plane431
#

v  -42.5595 -11.2422 -20.2751
v  -42.5595 17.2747 -20.2751
v  -58.9927 17.2747 -18.3476
v  -58.9927 -11.2422 -18.3476
# 4 vertices

vn 0.0607 0.0000 0.9982
# 1 vertex normals

vt 1.0000 0.0000 0.0000
vt 1.0000 1.0000 0.0000
vt 0.0000 1.0000 0.0000
vt 0.0000 0.0000 0.0000
# 4 texture coords

g Plane431
usemtl _tree_contryroadsdeftree
s 1
f 133/133/34 134/134/34 135/135/34 136/136/34 
# 1 polygons

#
# object Plane432
#

v  -39.4945 -11.2422 -47.3786
v  -39.4945 17.2747 -47.3786
v  -55.9277 17.2747 -45.4511
v  -55.9277 -11.2422 -45.4511
# 4 vertices

vn 0.0607 0.0000 0.9982
# 1 vertex normals

vt 1.0000 0.0000 0.0000
vt 1.0000 1.0000 0.0000
vt 0.0000 1.0000 0.0000
vt 0.0000 0.0000 0.0000
# 4 texture coords

g Plane432
usemtl _tree_contryroadsdeftree
s 1
f 137/137/35 138/138/35 139/139/35 140/140/35 
# 1 polygons

#
# object Plane433
#

v  -48.9775 -11.2422 -54.4359
v  -48.9775 17.2747 -54.4359
v  -46.9802 17.2747 -38.0111
v  -46.9802 -11.2422 -38.0111
# 4 vertices

vn 0.9979 0.0000 -0.0649
# 1 vertex normals

vt 1.0000 0.0000 0.0000
vt 1.0000 1.0000 0.0000
vt 0.0000 1.0000 0.0000
vt 0.0000 0.0000 0.0000
# 4 texture coords

g Plane433
usemtl _tree_contryroadsdeftree
s 1
f 141/141/36 142/142/36 143/143/36 144/144/36 
# 1 polygons

#
# object Plane434
#

v  -41.0248 -11.2422 -33.1305
v  -41.0248 17.2747 -33.1305
v  -57.4580 17.2747 -31.2030
v  -57.4580 -11.2422 -31.2030
# 4 vertices

vn 0.0607 0.0000 0.9982
# 1 vertex normals

vt 1.0000 0.0000 0.0000
vt 1.0000 1.0000 0.0000
vt 0.0000 1.0000 0.0000
vt 0.0000 0.0000 0.0000
# 4 texture coords

g Plane434
usemtl _tree_contryroadsdeftree
s 1
f 145/145/37 146/146/37 147/147/37 148/148/37 
# 1 polygons

#
# object Plane435
#

v  -50.5078 -11.2422 -40.1879
v  -50.5078 17.2747 -40.1879
v  -48.5105 17.2747 -23.7630
v  -48.5105 -11.2422 -23.7630
# 4 vertices

vn 0.9979 0.0000 -0.0649
# 1 vertex normals

vt 1.0000 0.0000 0.0000
vt 1.0000 1.0000 0.0000
vt 0.0000 1.0000 0.0000
vt 0.0000 0.0000 0.0000
# 4 texture coords

g Plane435
usemtl _tree_contryroadsdeftree
s 1
f 149/149/38 150/150/38 151/151/38 152/152/38 
# 1 polygons

