# 3ds Max Wavefront OBJ Exporter v0.97b - (c)2007 guruware
# File Created: 06.01.2020 22:29:59

mtllib cyl.mtl

#
# object Cylinder001
#

v  -0.0087 0.0000 0.0138
v  0.0950 0.0000 -0.0732
v  0.1185 0.0000 -0.0325
v  0.1266 0.0000 0.0138
v  0.0148 0.0000 -0.1195
v  0.0589 0.0000 -0.1034
v  -0.0764 0.0000 -0.1034
v  -0.0322 0.0000 -0.1195
v  -0.1359 0.0000 -0.0325
v  -0.1124 0.0000 -0.0732
v  -0.1359 0.0000 0.0601
v  -0.1441 0.0000 0.0138
v  -0.0764 0.0000 0.1311
v  -0.1124 0.0000 0.1008
v  0.0148 0.0000 0.1471
v  -0.0322 0.0000 0.1471
v  0.0950 0.0000 0.1008
v  0.0589 0.0000 0.1311
v  0.1185 0.0000 0.0601
v  0.1185 0.7000 -0.0325
v  0.1266 0.7000 0.0138
v  0.0950 0.7000 -0.0732
v  0.0589 0.7000 -0.1034
v  0.0148 0.7000 -0.1195
v  -0.0322 0.7000 -0.1195
v  -0.0764 0.7000 -0.1034
v  -0.1124 0.7000 -0.0732
v  -0.1359 0.7000 -0.0325
v  -0.1441 0.7000 0.0138
v  -0.1359 0.7000 0.0601
v  -0.1124 0.7000 0.1008
v  -0.0764 0.7000 0.1311
v  -0.0322 0.7000 0.1471
v  0.0148 0.7000 0.1471
v  0.0589 0.7000 0.1311
v  0.0950 0.7000 0.1008
v  0.1185 0.7000 0.0601
v  -0.0087 0.7000 0.0138
# 38 vertices

vn 0.0000 -1.0000 -0.0000
vn 1.0000 0.0000 0.0000
vn 0.9397 0.0000 -0.3420
vn 0.7660 0.0000 -0.6428
vn 0.5000 0.0000 -0.8660
vn 0.1736 0.0000 -0.9848
vn -0.1736 0.0000 -0.9848
vn -0.5000 0.0000 -0.8660
vn -0.7660 0.0000 -0.6428
vn -0.9397 0.0000 -0.3420
vn -1.0000 0.0000 -0.0000
vn -0.9397 0.0000 0.3420
vn -0.7660 0.0000 0.6428
vn -0.5000 0.0000 0.8660
vn -0.1736 0.0000 0.9848
vn 0.1736 0.0000 0.9848
vn 0.5000 0.0000 0.8660
vn 0.7660 0.0000 0.6428
vn 0.9397 0.0000 0.3420
vn 0.0000 1.0000 -0.0000
# 20 vertex normals

vt 0.7778 0.0000 1.6972
vt 0.8578 0.1033 1.8049
vt 0.8056 0.1175 1.8197
vt 0.7500 0.1175 1.8197
vt 0.8889 0.0000 1.6972
vt 0.9689 0.1033 1.8049
vt 0.9167 0.1175 1.8197
vt 0.8611 0.1175 1.8197
vt -0.0000 0.0000 1.6972
vt 0.0800 0.1033 1.8049
vt 0.0278 0.1175 1.8197
vt -0.0278 0.1175 1.8197
vt 0.1667 0.0000 1.6972
vt 0.1944 0.1175 1.8197
vt 0.1389 0.1175 1.8197
vt 0.0867 0.1033 1.8049
vt 0.2778 0.0000 1.6972
vt 0.3056 0.1175 1.8197
vt 0.2500 0.1175 1.8197
vt 0.1978 0.1033 1.8049
vt 0.3889 0.0000 1.6972
vt 0.4167 0.1175 1.8197
vt 0.3611 0.1175 1.8197
vt 0.3089 0.1033 1.8049
vt 0.5000 0.0000 1.6972
vt 0.5278 0.1175 1.8197
vt 0.4722 0.1175 1.8197
vt 0.4200 0.1033 1.8049
vt 0.5556 0.0000 1.6972
vt 0.6355 0.1033 1.8049
vt 0.5833 0.1175 1.8197
vt 0.7222 0.0000 1.6972
vt 0.6944 0.1175 1.8197
vt 0.6422 0.1033 1.8049
vt 0.8056 0.8825 1.8197
vt 0.7500 0.8825 1.8197
vt 0.8611 0.8825 1.8197
vt 0.9167 0.8825 1.8197
vt 0.9722 0.1175 1.8197
vt 0.9722 0.8825 1.8197
vt 0.0278 0.8825 1.8197
vt -0.0278 0.8825 1.8197
vt 0.0833 0.1175 1.8197
vt 0.0833 0.8825 1.8197
vt 0.1389 0.8825 1.8197
vt 0.1944 0.8825 1.8197
vt 0.2500 0.8825 1.8197
vt 0.3056 0.8825 1.8197
vt 0.3611 0.8825 1.8197
vt 0.4167 0.8825 1.8197
vt 0.4722 0.8825 1.8197
vt 0.5278 0.8825 1.8197
vt 0.5833 0.8825 1.8197
vt 0.6389 0.1175 1.8197
vt 0.6389 0.8825 1.8197
vt 0.6944 0.8825 1.8197
vt 0.7222 1.0000 1.6972
vt 0.8022 0.8967 1.8049
vt 0.8889 1.0000 1.6972
vt 0.8089 0.8967 1.8049
vt 0.9444 1.0000 1.6972
vt 1.0244 0.8967 1.8049
vt 0.0556 1.0000 1.6972
vt 0.1355 0.8967 1.8049
vt 0.1667 1.0000 1.6972
vt 0.2466 0.8967 1.8049
vt 0.2778 1.0000 1.6972
vt 0.3578 0.8967 1.8049
vt 0.3889 1.0000 1.6972
vt 0.4689 0.8967 1.8049
vt 0.5000 1.0000 1.6972
vt 0.5800 0.8967 1.8049
vt 0.6667 1.0000 1.6972
vt 0.5867 0.8967 1.8049
# 74 texture coords

g Cylinder001
usemtl 01___Default
s 1
f 1/1/1 2/2/1 3/3/1 4/4/1 
f 1/5/1 5/6/1 6/7/1 2/8/1 
f 1/9/1 7/10/1 8/11/1 5/12/1 
f 1/13/1 9/14/1 10/15/1 7/16/1 
f 1/17/1 11/18/1 12/19/1 9/20/1 
f 1/21/1 13/22/1 14/23/1 11/24/1 
f 1/25/1 15/26/1 16/27/1 13/28/1 
f 1/29/1 17/30/1 18/31/1 15/26/1 
f 1/32/1 4/4/1 19/33/1 17/34/1 
s 8
f 4/4/2 3/3/3 20/35/3 21/36/2 
f 3/3/3 2/8/4 22/37/4 20/35/3 
f 2/8/4 6/7/5 23/38/5 22/37/4 
f 6/7/5 5/39/6 24/40/6 23/38/5 
f 5/12/6 8/11/7 25/41/7 24/42/6 
f 8/11/7 7/43/8 26/44/8 25/41/7 
f 7/43/8 10/15/9 27/45/9 26/44/8 
f 10/15/9 9/14/10 28/46/10 27/45/9 
f 9/14/10 12/19/11 29/47/11 28/46/10 
f 12/19/11 11/18/12 30/48/12 29/47/11 
f 11/18/12 14/23/13 31/49/13 30/48/12 
f 14/23/13 13/22/14 32/50/14 31/49/13 
f 13/22/14 16/27/15 33/51/15 32/50/14 
f 16/27/15 15/26/16 34/52/16 33/51/15 
f 15/26/16 18/31/17 35/53/17 34/52/16 
f 18/31/17 17/54/18 36/55/18 35/53/17 
f 17/54/18 19/33/19 37/56/19 36/55/18 
f 19/33/19 4/4/2 21/36/2 37/56/19 
s 1
f 38/57/20 37/56/20 21/36/20 20/58/20 
f 38/59/20 20/60/20 22/37/20 23/38/20 
f 38/61/20 23/38/20 24/40/20 25/62/20 
f 38/63/20 25/41/20 26/44/20 27/64/20 
f 38/65/20 27/45/20 28/46/20 29/66/20 
f 38/67/20 29/47/20 30/48/20 31/68/20 
f 38/69/20 31/49/20 32/50/20 33/70/20 
f 38/71/20 33/51/20 34/52/20 35/72/20 
f 38/73/20 35/74/20 36/55/20 37/56/20 
# 36 polygons

