# 3ds Max Wavefront OBJ Exporter v0.97b - (c)2007 guruware
# File Created: 06.01.2020 22:35:15

mtllib sword.mtl

#
# object Cylinder001
#

v  -0.0087 0.0000 0.0138
v  0.0950 0.0000 -0.0732
v  0.1185 0.0000 -0.0325
v  0.1266 0.0000 0.0138
v  0.0148 0.0000 -0.1195
v  0.0589 0.0000 -0.1034
v  -0.0764 0.0000 -0.1034
v  -0.0322 0.0000 -0.1195
v  -0.1359 0.0000 -0.0325
v  -0.1124 0.0000 -0.0732
v  -0.1359 0.0000 0.0601
v  -0.1441 0.0000 0.0138
v  -0.0764 0.0000 0.1311
v  -0.1124 0.0000 0.1008
v  0.0148 0.0000 0.1471
v  -0.0322 0.0000 0.1471
v  0.0950 0.0000 0.1008
v  0.0589 0.0000 0.1311
v  0.1185 0.0000 0.0601
v  0.1185 0.7000 -0.0325
v  0.1266 0.7000 0.0138
v  0.0950 0.7000 -0.0732
v  0.0589 0.7000 -0.1034
v  0.0148 0.7000 -0.1195
v  -0.0322 0.7000 -0.1195
v  -0.0764 0.7000 -0.1034
v  -0.1124 0.7000 -0.0732
v  -0.1359 0.7000 -0.0325
v  -0.1441 0.7000 0.0138
v  -0.1359 0.7000 0.0601
v  -0.1124 0.7000 0.1008
v  -0.0764 0.7000 0.1311
v  -0.0322 0.7000 0.1471
v  0.0148 0.7000 0.1471
v  0.0589 0.7000 0.1311
v  0.0950 0.7000 0.1008
v  0.1185 0.7000 0.0601
v  -0.0087 0.7000 0.0138
# 38 vertices

vn 0.0000 -1.0000 -0.0000
vn 1.0000 0.0000 0.0000
vn 0.9397 0.0000 -0.3420
vn 0.7660 0.0000 -0.6428
vn 0.5000 0.0000 -0.8660
vn 0.1736 0.0000 -0.9848
vn -0.1736 0.0000 -0.9848
vn -0.5000 0.0000 -0.8660
vn -0.7660 0.0000 -0.6428
vn -0.9397 0.0000 -0.3420
vn -1.0000 0.0000 -0.0000
vn -0.9397 0.0000 0.3420
vn -0.7660 0.0000 0.6428
vn -0.5000 0.0000 0.8660
vn -0.1736 0.0000 0.9848
vn 0.1736 0.0000 0.9848
vn 0.5000 0.0000 0.8660
vn 0.7660 0.0000 0.6428
vn 0.9397 0.0000 0.3420
vn 0.0000 1.0000 -0.0000
# 20 vertex normals

vt 0.7778 0.0000 1.6972
vt 0.8578 0.1033 1.8049
vt 0.8056 0.1175 1.8197
vt 0.7500 0.1175 1.8197
vt 0.8889 0.0000 1.6972
vt 0.9689 0.1033 1.8049
vt 0.9167 0.1175 1.8197
vt 0.8611 0.1175 1.8197
vt -0.0000 0.0000 1.6972
vt 0.0800 0.1033 1.8049
vt 0.0278 0.1175 1.8197
vt -0.0278 0.1175 1.8197
vt 0.1667 0.0000 1.6972
vt 0.1944 0.1175 1.8197
vt 0.1389 0.1175 1.8197
vt 0.0867 0.1033 1.8049
vt 0.2778 0.0000 1.6972
vt 0.3056 0.1175 1.8197
vt 0.2500 0.1175 1.8197
vt 0.1978 0.1033 1.8049
vt 0.3889 0.0000 1.6972
vt 0.4167 0.1175 1.8197
vt 0.3611 0.1175 1.8197
vt 0.3089 0.1033 1.8049
vt 0.5000 0.0000 1.6972
vt 0.5278 0.1175 1.8197
vt 0.4722 0.1175 1.8197
vt 0.4200 0.1033 1.8049
vt 0.5556 0.0000 1.6972
vt 0.6355 0.1033 1.8049
vt 0.5833 0.1175 1.8197
vt 0.7222 0.0000 1.6972
vt 0.6944 0.1175 1.8197
vt 0.6422 0.1033 1.8049
vt 0.8056 0.8825 1.8197
vt 0.7500 0.8825 1.8197
vt 0.8611 0.8825 1.8197
vt 0.9167 0.8825 1.8197
vt 0.9722 0.1175 1.8197
vt 0.9722 0.8825 1.8197
vt 0.0278 0.8825 1.8197
vt -0.0278 0.8825 1.8197
vt 0.0833 0.1175 1.8197
vt 0.0833 0.8825 1.8197
vt 0.1389 0.8825 1.8197
vt 0.1944 0.8825 1.8197
vt 0.2500 0.8825 1.8197
vt 0.3056 0.8825 1.8197
vt 0.3611 0.8825 1.8197
vt 0.4167 0.8825 1.8197
vt 0.4722 0.8825 1.8197
vt 0.5278 0.8825 1.8197
vt 0.5833 0.8825 1.8197
vt 0.6389 0.1175 1.8197
vt 0.6389 0.8825 1.8197
vt 0.6944 0.8825 1.8197
vt 0.7222 1.0000 1.6972
vt 0.8022 0.8967 1.8049
vt 0.8889 1.0000 1.6972
vt 0.8089 0.8967 1.8049
vt 0.9444 1.0000 1.6972
vt 1.0244 0.8967 1.8049
vt 0.0556 1.0000 1.6972
vt 0.1355 0.8967 1.8049
vt 0.1667 1.0000 1.6972
vt 0.2466 0.8967 1.8049
vt 0.2778 1.0000 1.6972
vt 0.3578 0.8967 1.8049
vt 0.3889 1.0000 1.6972
vt 0.4689 0.8967 1.8049
vt 0.5000 1.0000 1.6972
vt 0.5800 0.8967 1.8049
vt 0.6667 1.0000 1.6972
vt 0.5867 0.8967 1.8049
# 74 texture coords

g Cylinder001
usemtl 01___Default
s 1
f 1/1/1 2/2/1 3/3/1 4/4/1 
f 1/5/1 5/6/1 6/7/1 2/8/1 
f 1/9/1 7/10/1 8/11/1 5/12/1 
f 1/13/1 9/14/1 10/15/1 7/16/1 
f 1/17/1 11/18/1 12/19/1 9/20/1 
f 1/21/1 13/22/1 14/23/1 11/24/1 
f 1/25/1 15/26/1 16/27/1 13/28/1 
f 1/29/1 17/30/1 18/31/1 15/26/1 
f 1/32/1 4/4/1 19/33/1 17/34/1 
s 8
f 4/4/2 3/3/3 20/35/3 21/36/2 
f 3/3/3 2/8/4 22/37/4 20/35/3 
f 2/8/4 6/7/5 23/38/5 22/37/4 
f 6/7/5 5/39/6 24/40/6 23/38/5 
f 5/12/6 8/11/7 25/41/7 24/42/6 
f 8/11/7 7/43/8 26/44/8 25/41/7 
f 7/43/8 10/15/9 27/45/9 26/44/8 
f 10/15/9 9/14/10 28/46/10 27/45/9 
f 9/14/10 12/19/11 29/47/11 28/46/10 
f 12/19/11 11/18/12 30/48/12 29/47/11 
f 11/18/12 14/23/13 31/49/13 30/48/12 
f 14/23/13 13/22/14 32/50/14 31/49/13 
f 13/22/14 16/27/15 33/51/15 32/50/14 
f 16/27/15 15/26/16 34/52/16 33/51/15 
f 15/26/16 18/31/17 35/53/17 34/52/16 
f 18/31/17 17/54/18 36/55/18 35/53/17 
f 17/54/18 19/33/19 37/56/19 36/55/18 
f 19/33/19 4/4/2 21/36/2 37/56/19 
s 1
f 38/57/20 37/56/20 21/36/20 20/58/20 
f 38/59/20 20/60/20 22/37/20 23/38/20 
f 38/61/20 23/38/20 24/40/20 25/62/20 
f 38/63/20 25/41/20 26/44/20 27/64/20 
f 38/65/20 27/45/20 28/46/20 29/66/20 
f 38/67/20 29/47/20 30/48/20 31/68/20 
f 38/69/20 31/49/20 32/50/20 33/70/20 
f 38/71/20 33/51/20 34/52/20 35/72/20 
f 38/73/20 35/74/20 36/55/20 37/56/20 
# 36 polygons

#
# object Cylinder002
#

v  -0.0087 0.0000 0.0138
v  0.0512 0.0000 -0.0365
v  0.0648 0.0000 -0.0129
v  0.0695 0.0000 0.0138
v  0.0048 0.0000 -0.0632
v  0.0304 0.0000 -0.0539
v  -0.0479 0.0000 -0.0539
v  -0.0223 0.0000 -0.0632
v  -0.0823 0.0000 -0.0129
v  -0.0687 0.0000 -0.0365
v  -0.0823 0.0000 0.0406
v  -0.0870 0.0000 0.0138
v  -0.0479 0.0000 0.0816
v  -0.0687 0.0000 0.0641
v  0.0048 0.0000 0.0909
v  -0.0223 0.0000 0.0909
v  0.0512 0.0000 0.0641
v  0.0304 0.0000 0.0816
v  0.0648 0.0000 0.0406
v  0.0648 5.2036 -0.0129
v  0.0695 5.2036 0.0138
v  0.0512 5.2036 -0.0365
v  0.0304 5.2036 -0.0539
v  0.0048 5.2036 -0.0632
v  -0.0223 5.2036 -0.0632
v  -0.0479 5.2036 -0.0539
v  -0.0687 5.2036 -0.0365
v  -0.0823 5.2036 -0.0129
v  -0.0870 5.2036 0.0138
v  -0.0823 5.2036 0.0406
v  -0.0687 5.2036 0.0641
v  -0.0479 5.2036 0.0816
v  -0.0223 5.2036 0.0909
v  0.0048 5.2036 0.0909
v  0.0304 5.2036 0.0816
v  0.0512 5.2036 0.0641
v  0.0648 5.2036 0.0406
v  -0.0087 5.2036 0.0138
# 38 vertices

vn 0.0000 -1.0000 -0.0000
vn 1.0000 0.0000 0.0000
vn 0.9397 0.0000 -0.3420
vn 0.7660 0.0000 -0.6428
vn 0.5000 0.0000 -0.8660
vn 0.1736 0.0000 -0.9848
vn -0.1736 0.0000 -0.9848
vn -0.5000 0.0000 -0.8660
vn -0.7660 0.0000 -0.6428
vn -0.9397 0.0000 -0.3420
vn -1.0000 0.0000 -0.0000
vn -0.9397 0.0000 0.3420
vn -0.7660 0.0000 0.6428
vn -0.5000 0.0000 0.8660
vn -0.1736 0.0000 0.9848
vn 0.1736 0.0000 0.9848
vn 0.5000 0.0000 0.8660
vn 0.7660 0.0000 0.6428
vn 0.9397 0.0000 0.3420
vn 0.0000 1.0000 -0.0000
# 20 vertex normals

vt 0.9260 0.0000 2.2742
vt 0.9576 0.3064 2.3870
vt 0.9369 0.3706 2.4216
vt 0.9150 0.3900 2.4384
vt 0.9879 0.0000 2.2742
vt 1.0548 0.1156 2.2720
vt 1.0112 0.2286 2.3285
vt 0.9647 0.3141 2.3785
vt -0.0000 0.0000 2.2742
vt 0.2877 0.1260 2.2927
vt 0.0999 0.1433 2.2953
vt -0.0999 0.1433 2.2953
vt 0.2692 0.0000 2.2742
vt 0.2831 0.3706 2.4216
vt 0.2553 0.3141 2.3785
vt 0.2292 0.2197 2.3228
vt 0.3160 0.0000 2.2742
vt 0.3269 0.3706 2.4216
vt 0.3050 0.3900 2.4384
vt 0.2844 0.3624 2.4354
vt 0.3779 0.0000 2.2742
vt 0.4012 0.2286 2.3285
vt 0.3547 0.3141 2.3785
vt 0.3110 0.3616 2.4159
vt 0.6100 0.0000 2.2742
vt 0.7099 0.1433 2.2953
vt 0.5101 0.1433 2.2953
vt 0.3223 0.1260 2.2927
vt 0.7644 0.0000 2.2742
vt 0.9212 0.2864 2.3551
vt 0.8188 0.2286 2.3285
vt 0.9040 0.0000 2.2742
vt 0.8931 0.3706 2.4216
vt 0.8724 0.3064 2.3870
vt 0.9369 2.9494 2.4216
vt 0.9150 2.9300 2.4384
vt 0.9647 3.0059 2.3785
vt 1.0112 3.0914 2.3285
vt 1.1201 0.1433 2.2953
vt 1.1201 3.1767 2.2953
vt 0.0999 3.1767 2.2953
vt -0.0999 3.1767 2.2953
vt 0.2088 0.2286 2.3285
vt 0.2088 3.0914 2.3285
vt 0.2553 3.0059 2.3785
vt 0.2831 2.9494 2.4216
vt 0.3050 2.9300 2.4384
vt 0.3269 2.9494 2.4216
vt 0.3547 3.0059 2.3785
vt 0.4012 3.0914 2.3285
vt 0.5101 3.1767 2.2953
vt 0.7099 3.1767 2.2953
vt 0.8188 3.0914 2.3285
vt 0.8653 0.3141 2.3785
vt 0.8653 3.0059 2.3785
vt 0.8931 2.9494 2.4216
vt 0.9040 3.3200 2.2742
vt 0.9356 2.9576 2.4354
vt 0.9879 3.3200 2.2742
vt 0.9210 2.9584 2.4159
vt 1.0656 3.3200 2.2742
vt 1.2224 3.2793 2.2595
vt 0.1544 3.3200 2.2742
vt 0.3112 3.0336 2.3551
vt 0.2692 3.3200 2.2742
vt 0.3091 2.9376 2.4469
vt 0.3160 3.3200 2.2742
vt 0.3476 3.0136 2.3870
vt 0.3779 3.3200 2.2742
vt 0.4448 3.2044 2.2720
vt 0.6100 3.3200 2.2742
vt 0.8977 3.1940 2.2927
vt 0.8792 3.3200 2.2742
vt 0.8392 3.1003 2.3228
# 74 texture coords

g Cylinder002
usemtl 02___Default
s 1
f 39/75/21 40/76/21 41/77/21 42/78/21 
f 39/79/21 43/80/21 44/81/21 40/82/21 
f 39/83/21 45/84/21 46/85/21 43/86/21 
f 39/87/21 47/88/21 48/89/21 45/90/21 
f 39/91/21 49/92/21 50/93/21 47/94/21 
f 39/95/21 51/96/21 52/97/21 49/98/21 
f 39/99/21 53/100/21 54/101/21 51/102/21 
f 39/103/21 55/104/21 56/105/21 53/100/21 
f 39/106/21 42/78/21 57/107/21 55/108/21 
s 8
f 42/78/22 41/77/23 58/109/23 59/110/22 
f 41/77/23 40/82/24 60/111/24 58/109/23 
f 40/82/24 44/81/25 61/112/25 60/111/24 
f 44/81/25 43/113/26 62/114/26 61/112/25 
f 43/86/26 46/85/27 63/115/27 62/116/26 
f 46/85/27 45/117/28 64/118/28 63/115/27 
f 45/117/28 48/89/29 65/119/29 64/118/28 
f 48/89/29 47/88/30 66/120/30 65/119/29 
f 47/88/30 50/93/31 67/121/31 66/120/30 
f 50/93/31 49/92/32 68/122/32 67/121/31 
f 49/92/32 52/97/33 69/123/33 68/122/32 
f 52/97/33 51/96/34 70/124/34 69/123/33 
f 51/96/34 54/101/35 71/125/35 70/124/34 
f 54/101/35 53/100/36 72/126/36 71/125/35 
f 53/100/36 56/105/37 73/127/37 72/126/36 
f 56/105/37 55/128/38 74/129/38 73/127/37 
f 55/128/38 57/107/39 75/130/39 74/129/38 
f 57/107/39 42/78/22 59/110/22 75/130/39 
s 1
f 76/131/40 75/130/40 59/110/40 58/132/40 
f 76/133/40 58/134/40 60/111/40 61/112/40 
f 76/135/40 61/112/40 62/114/40 63/136/40 
f 76/137/40 63/115/40 64/118/40 65/138/40 
f 76/139/40 65/119/40 66/120/40 67/140/40 
f 76/141/40 67/121/40 68/122/40 69/142/40 
f 76/143/40 69/123/40 70/124/40 71/144/40 
f 76/145/40 71/125/40 72/126/40 73/146/40 
f 76/147/40 73/148/40 74/129/40 75/130/40 
# 36 polygons

