# 3ds Max Wavefront OBJ Exporter v0.97b - (c)2007 guruware
# File Created: 06.01.2020 21:53:34

mtllib table.mtl

#
# object Box009
#

v  -1.6582 0.0000 2.3797
v  -1.6582 0.0000 1.0428
v  1.0110 0.0000 1.0428
v  1.0110 0.0000 2.3797
v  -1.6582 1.4303 2.3797
v  1.0110 1.4303 2.3797
v  1.0110 1.4303 1.0428
v  -1.6582 1.4303 1.0428
# 8 vertices

vn 0.0000 -1.0000 -0.0000
vn 0.0000 1.0000 -0.0000
vn 0.0000 0.0000 1.0000
vn 1.0000 0.0000 -0.0000
vn 0.0000 0.0000 -1.0000
vn -1.0000 0.0000 -0.0000
# 6 vertex normals

vt 1.0000 0.0000 0.0000
vt 1.0000 0.7200 0.0000
vt 0.0000 0.7200 0.0000
vt 0.0000 0.0000 0.0000
vt -0.0000 0.0000 1.0000
vt 1.0000 0.0000 1.0000
vt 1.0000 0.7200 1.0000
vt 0.0000 0.7200 1.0000
vt -0.0000 0.0000 0.0000
vt -0.0000 0.7200 0.0000
vt 0.0000 0.0000 1.0000
vt 1.0000 0.0000 -0.0000
vt 1.0000 0.7200 -0.0000
# 13 texture coords

g Box009
usemtl 11___Default
s 2
f 1/1/1 2/2/1 3/3/1 4/4/1 
s 4
f 5/5/2 6/6/2 7/7/2 8/8/2 
s 8
f 1/9/3 4/1/3 6/2/3 5/10/3 
s 16
f 4/11/4 3/6/4 7/7/4 6/8/4 
s 32
f 3/11/5 2/6/5 8/7/5 7/8/5 
s 64
f 2/4/6 1/12/6 5/13/6 8/3/6 
# 6 polygons

