# 3ds Max Wavefront OBJ Exporter v0.97b - (c)2007 guruware
# File Created: 05.04.2020 01:28:49

mtllib country.mtl

#
# object Plane001
#

v  -1147.1080 0.0000 225.9609
v  -1147.1080 0.0000 1239.2661
v  -133.8028 0.0000 1239.2661
v  -133.8028 0.0000 225.9609
v  879.5024 0.0000 1239.2661
v  879.5024 0.0000 225.9609
v  -1147.1080 0.0000 -787.3442
v  -133.8028 0.0000 -787.3442
v  879.5024 0.0000 -787.3442
# 9 vertices

vn 0.0000 1.0000 -0.0000
# 1 vertex normals

vt 0.0020 0.9980 0.0000
vt 0.0020 0.0020 0.0000
vt 0.9980 0.0020 0.0000
vt 0.9980 0.9980 0.0000
# 4 texture coords

g Plane001
usemtl Material__111
s 1
f 1/1/1 2/2/1 3/3/1 4/4/1 
usemtl Material__110
f 4/1/1 3/2/1 5/3/1 6/4/1 
usemtl Material__108
f 7/1/1 1/2/1 4/3/1 8/4/1 
usemtl Material__109
f 8/1/1 4/2/1 6/3/1 9/4/1 
# 4 polygons

#
# object Box001
#

v  -51.8785 0.0000 20.3506
v  -51.8785 0.0000 -1.3340
v  -29.4661 0.0000 -1.3340
v  -29.4661 0.0000 20.3506
v  -51.8785 11.0663 20.3506
v  -29.4661 11.0663 20.3506
v  -29.4661 11.0663 -1.3340
v  -51.8785 11.0663 -1.3340
# 8 vertices

vn 0.0000 -1.0000 -0.0000
vn 0.0000 1.0000 -0.0000
vn 0.0000 0.0000 1.0000
vn 1.0000 0.0000 -0.0000
vn 0.0000 0.0000 -1.0000
vn -1.0000 0.0000 -0.0000
# 6 vertex normals

vt 0.0000 0.0000 0.0000
vt 1.0000 0.0000 0.0000
vt 1.0000 1.0000 0.0000
vt 0.0000 1.0000 0.0000
# 4 texture coords

g Box001
usemtl Material__181
s 2
f 10/5/2 11/6/2 12/7/2 13/8/2 
usemtl 09___Default
s 4
f 14/5/3 15/6/3 16/7/3 17/8/3 
usemtl Material__181
s 8
f 10/5/4 13/6/4 15/7/4 14/8/4 
s 16
f 13/5/5 12/6/5 16/7/5 15/8/5 
s 32
f 12/5/6 11/6/6 17/7/6 16/8/6 
s 64
f 11/5/7 10/6/7 14/7/7 17/8/7 
# 6 polygons

#
# object Box002
#

v  -3.4524 0.0000 61.0704
v  -3.4524 0.0000 47.1811
v  14.9292 0.0000 47.1811
v  14.9292 0.0000 61.0704
v  -3.4524 13.0295 61.0704
v  14.9292 13.0295 61.0704
v  14.9292 13.0295 47.1811
v  -3.4524 13.0295 47.1811
# 8 vertices

vn 0.0000 -1.0000 -0.0000
vn 0.0000 1.0000 -0.0000
vn 0.0000 0.0000 1.0000
vn 1.0000 0.0000 -0.0000
vn 0.0000 0.0000 -1.0000
vn -1.0000 0.0000 -0.0000
# 6 vertex normals

vt 1.0000 0.0000 0.0000
vt 1.0000 1.0000 0.0000
vt 0.0000 1.0000 0.0000
vt 0.0000 0.0000 0.0000
# 4 texture coords

g Box002
usemtl Material__158
s 2
f 18/9/8 19/10/8 20/11/8 21/12/8 
usemtl 09___Default
s 4
f 22/12/9 23/9/9 24/10/9 25/11/9 
usemtl Material__158
s 8
f 18/12/10 21/9/10 23/10/10 22/11/10 
s 16
f 21/12/11 20/9/11 24/10/11 23/11/11 
s 32
f 20/12/12 19/9/12 25/10/12 24/11/12 
s 64
f 19/12/13 18/9/13 22/10/13 25/11/13 
# 6 polygons

#
# object Box003
#

v  -10.9394 0.0000 36.2136
v  -10.9394 0.0000 8.6692
v  23.8349 0.0000 8.6692
v  23.8349 0.0000 36.2136
v  -10.9394 10.3164 36.2136
v  23.8349 10.3164 36.2136
v  23.8349 10.3164 8.6692
v  -10.9394 10.3164 8.6692
# 8 vertices

vn 0.0000 -1.0000 -0.0000
vn 0.0000 1.0000 -0.0000
vn 0.0000 0.0000 1.0000
vn 1.0000 0.0000 -0.0000
vn 0.0000 0.0000 -1.0000
vn -1.0000 0.0000 -0.0000
# 6 vertex normals

vt 1.0050 -0.0000 0.0243
vt 1.0050 0.5100 0.0243
vt 0.0050 0.5100 0.0243
vt 0.0050 -0.0000 0.0243
vt 0.0050 -0.0000 0.9957
vt 1.0050 -0.0000 0.9957
vt 1.0050 0.5100 0.9957
vt 0.0050 0.5100 0.9957
vt 0.0050 0.0121 -0.0001
vt 1.0050 0.0121 -0.0001
vt 1.0050 0.4979 -0.0001
vt 0.0050 0.4979 -0.0001
vt -0.0001 0.0121 1.0150
vt 1.0101 0.0121 1.0150
vt 1.0101 0.4979 1.0150
vt -0.0001 0.4979 1.0150
vt 0.0050 0.0121 1.0201
vt 1.0050 0.0121 1.0201
vt 1.0050 0.4979 1.0201
vt 0.0050 0.4979 1.0201
vt -0.0001 0.0121 0.0050
vt 1.0101 0.0121 0.0050
vt 1.0101 0.4979 0.0050
vt -0.0001 0.4979 0.0050
# 24 texture coords

g Box003
usemtl Material__157
s 2
f 26/13/14 27/14/14 28/15/14 29/16/14 
usemtl 09___Default
s 4
f 30/17/15 31/18/15 32/19/15 33/20/15 
usemtl Material__157
s 8
f 26/21/16 29/22/16 31/23/16 30/24/16 
s 16
f 29/25/17 28/26/17 32/27/17 31/28/17 
s 32
f 28/29/18 27/30/18 33/31/18 32/32/18 
s 64
f 27/33/19 26/34/19 30/35/19 33/36/19 
# 6 polygons

#
# object Box004
#

v  78.9286 0.0000 98.6124
v  78.9286 0.0000 82.3629
v  116.6539 0.0000 82.3629
v  116.6539 0.0000 98.6124
v  78.9286 15.4177 98.6124
v  116.6539 15.4177 98.6124
v  116.6539 15.4177 82.3629
v  78.9286 15.4177 82.3629
# 8 vertices

vn 0.0000 -1.0000 -0.0000
vn 0.0000 1.0000 -0.0000
vn 0.0000 0.0000 1.0000
vn 1.0000 0.0000 -0.0000
vn 0.0000 0.0000 -1.0000
vn -1.0000 0.0000 -0.0000
# 6 vertex normals

vt 1.0000 0.0000 0.0000
vt 1.0000 1.0000 0.0000
vt 0.0000 1.0000 0.0000
vt 0.0000 0.0000 0.0000
# 4 texture coords

g Box004
usemtl wire_213154229
s 2
f 34/37/20 35/38/20 36/39/20 37/40/20 
s 4
f 38/40/21 39/37/21 40/38/21 41/39/21 
s 8
f 34/40/22 37/37/22 39/38/22 38/39/22 
s 16
f 37/40/23 36/37/23 40/38/23 39/39/23 
s 32
f 36/40/24 35/37/24 41/38/24 40/39/24 
s 64
f 35/40/25 34/37/25 38/38/25 41/39/25 
# 6 polygons

#
# object Box005
#

v  -56.4994 0.0000 41.2013
v  -56.4994 0.0000 19.5167
v  -34.0870 0.0000 19.5167
v  -34.0870 0.0000 41.2013
v  -56.4994 11.0663 41.2013
v  -34.0870 11.0663 41.2013
v  -34.0870 11.0663 19.5167
v  -56.4994 11.0663 19.5167
# 8 vertices

vn 0.0000 -1.0000 -0.0000
vn 0.0000 1.0000 -0.0000
vn 0.0000 0.0000 1.0000
vn 1.0000 0.0000 -0.0000
vn 0.0000 0.0000 -1.0000
vn -1.0000 0.0000 -0.0000
# 6 vertex normals

vt 0.0000 0.0000 0.0000
vt 1.0000 0.0000 0.0000
vt 1.0000 1.0000 0.0000
vt 0.0000 1.0000 0.0000
# 4 texture coords

g Box005
usemtl Material__181
s 2
f 42/41/26 43/42/26 44/43/26 45/44/26 
usemtl 09___Default
s 4
f 46/41/27 47/42/27 48/43/27 49/44/27 
usemtl Material__181
s 8
f 42/41/28 45/42/28 47/43/28 46/44/28 
s 16
f 45/41/29 44/42/29 48/43/29 47/44/29 
s 32
f 44/41/30 43/42/30 49/43/30 48/44/30 
s 64
f 43/41/31 42/42/31 46/43/31 49/44/31 
# 6 polygons

