# 3ds Max Wavefront OBJ Exporter v0.97b - (c)2007 guruware
# File Created: 05.04.2020 01:16:35

mtllib country.mtl

#
# object Plane001
#

v  -468.3012 0.0000 4.4617
v  -468.3012 0.0000 469.5567
v  -3.2063 0.0000 469.5567
v  -3.2063 0.0000 4.4617
v  461.8887 0.0000 469.5567
v  461.8887 0.0000 4.4617
v  -468.3012 0.0000 -460.6332
v  -3.2063 0.0000 -460.6332
v  461.8887 0.0000 -460.6332
# 9 vertices

vn 0.0000 1.0000 -0.0000
# 1 vertex normals

vt 0.0020 0.9980 0.0000
vt 0.0020 0.0020 0.0000
vt 0.9980 0.0020 0.0000
vt 0.9980 0.9980 0.0000
# 4 texture coords

g Plane001
usemtl Material__111
s 1
f 1/1/1 2/2/1 3/3/1 4/4/1 
usemtl Material__110
f 4/1/1 3/2/1 5/3/1 6/4/1 
usemtl Material__108
f 7/1/1 1/2/1 4/3/1 8/4/1 
usemtl Material__109
f 8/1/1 4/2/1 6/3/1 9/4/1 
# 4 polygons

#
# object Plane002
#

v  -47.1598 14.6989 54.5396
v  -47.1598 14.6989 62.0799
v  -47.1598 1.4157 62.0799
v  -47.1598 1.4157 54.5396
v  -47.1598 14.6989 46.9993
v  -47.1598 1.4157 46.9993
v  -47.1598 14.6989 39.4590
v  -47.1598 1.4157 39.4590
v  -47.1598 14.6989 31.9187
v  -47.1598 1.4157 31.9187
v  -47.1598 14.6989 24.3784
v  -47.1598 1.4157 24.3784
v  -47.1598 14.6989 16.8381
v  -47.1598 1.4157 16.8381
v  -47.1598 14.6989 9.2978
v  -47.1598 1.4157 9.2978
v  -47.1598 14.6989 1.7575
v  -47.1598 1.4157 1.7575
# 18 vertices

vn 1.0000 0.0000 -0.0000
# 1 vertex normals

vt 0.1241 0.9993 0.5000
vt -0.0009 0.9991 0.5000
vt 0.0009 -0.0009 0.5000
vt 0.1259 -0.0007 0.5000
vt 0.2491 0.9996 0.5000
vt 0.2509 -0.0004 0.5000
vt 0.3741 0.9998 0.5000
vt 0.3759 -0.0002 0.5000
vt 0.4991 1.0000 0.5000
vt 0.5009 0.0000 0.5000
vt 0.6241 1.0002 0.5000
vt 0.6259 0.0002 0.5000
vt 0.7491 1.0004 0.5000
vt 0.7509 0.0004 0.5000
vt 0.8741 1.0007 0.5000
vt 0.8759 0.0007 0.5000
vt 0.9991 1.0009 0.5000
vt 1.0009 0.0009 0.5000
# 18 texture coords

g Plane002
usemtl Material__156
s 1
f 10/5/2 11/6/2 12/7/2 13/8/2 
f 14/9/2 10/5/2 13/8/2 15/10/2 
f 16/11/2 14/9/2 15/10/2 17/12/2 
f 18/13/2 16/11/2 17/12/2 19/14/2 
f 20/15/2 18/13/2 19/14/2 21/16/2 
f 22/17/2 20/15/2 21/16/2 23/18/2 
f 24/19/2 22/17/2 23/18/2 25/20/2 
f 26/21/2 24/19/2 25/20/2 27/22/2 
# 8 polygons

